<svg xmlns="http://www.w3.org/2000/svg" viewBox="0.90778 5.14619 140.7 15.35">
  <path d="M 17.275 13.6328 l -1.4844 6.3574 l -4.8828 0 l 1.2793 -5.4199 c -0.49805 0.75195 -0.99609 1.4941 -1.4551 2.2461 l -3.4473 0 l -0.41992 -2.2656 l -1.2793 5.4395 l -4.6777 0 l 1.4453 -6.3574 l -0.87891 0 l 1.8848 -8.1836 l 5.1855 0 l 1.0645 5.2051 c 1.1426 -1.7188 2.2852 -3.457 3.457 -5.2051 l 5.1855 0 l -1.8848 8.1836 l 0.9082 0 Z M 28.4962 13.3594 l -0.47852 0.61523 l -1.3867 6.0645 l -4.9219 0 l 1.3574 -5.9082 c -0.078125 -0.24414 -0.16602 -0.50781 -0.25391 -0.77148 l -0.87891 0 c -0.9082 -2.6367 -1.9824 -5.3613 -2.7539 -7.9785 l 5.5273 0 l 1.1523 3.7012 c 0.89844 -1.2305 1.8262 -2.4707 2.7246 -3.7012 l 5.4004 0 l -6.3672 7.9785 l 0.87891 0 Z M 45.6833 13.6719 l -1.4844 6.3672 l -4.8926 0 l 1.3867 -5.9766 l -2.832 0 l -1.3965 5.9766 l -4.9219 0 l 1.4746 -6.3672 l -0.98633 0 l 1.8848 -8.2422 l 4.9219 0 l -1.123 4.9512 l 2.8223 0 l 1.1426 -4.9512 l 4.9023 0 l -1.9043 8.2422 l 1.0059 0 Z M 52.8516 13.6719 l -1.4648 6.3672 l -4.9414 0 l 1.4648 -6.3672 l -0.99609 0 l 1.9141 -8.2422 l 4.9316 0 l -1.8945 8.2422 l 0.98633 0 Z M 64.5316 13.6719 l 2.832 6.3672 l -5.791 0 l -1.8359 -4.4043 l -1.0156 4.4043 l -4.9023 0 l 1.4648 -6.3672 l -0.98633 0 l 1.8848 -8.2422 l 4.9121 0 l -0.94727 4.1016 c 1.2793 -1.3672 2.5293 -2.7539 3.7988 -4.1016 l 5.6445 0 l -6.6602 6.8359 l 0.5957 1.4063 l 1.0059 0 Z M 74.7461 13.6719 l -1.4648 6.3672 l -4.9414 0 l 1.4648 -6.3672 l -0.99609 0 l 1.9141 -8.2422 l 4.9316 0 l -1.8945 8.2422 l 0.98633 0 Z M 90.0392 13.6328 l -1.4551 6.3574 l -4.541 0 l -1.9336 -6.3574 l -0.22461 0 l -1.4746 6.3574 l -4.5996 0 l 1.4746 -6.3574 l -0.88867 0 l 1.8848 -8.1836 l 5.3613 0 l 1.582 5.1367 l 1.2012 -5.1367 l 4.6191 0 l -1.8945 8.1836 l 0.88867 0 Z M 91.4843 13.7891 l -1.0352 0 c 0.58594 -3.3789 3.2227 -6.9629 6.3477 -8.0469 c 3.2129 -1.123 5.8691 -0.57617 8.6816 0.94727 l -0.9375 4.0332 l -1.543 0 c -0.22461 -0.54688 -0.078125 -1.6211 -2.3438 -1.8164 c -3.2227 -0.2832 -5.3418 2.5391 -5.7227 4.8828 l 1.0352 0 c -0.19531 1.2207 0.068359 2.3242 0.89844 2.7734 c 0.54688 0.29297 1.3379 0.42969 2.5098 0.29297 l 0.019531 0 l 0.36133 -1.582 l -2.3242 0 l 0.3418 -1.4844 l -1.0547 0 l 0.50781 -2.1875 l 7.168 0 l -0.49805 2.1875 l 1.0449 0 l -1.2402 5.3809 c -0.49805 0.20508 -1.0156 0.37109 -1.5332 0.54688 c -2.3242 0.71289 -5.3027 1.1914 -7.6172 0.26367 c -2.7441 -1.0742 -3.5156 -3.5742 -3.0664 -6.1914 Z M 105.869 13.6328 c 0.63477 -2.7246 1.2695 -5.459 1.9043 -8.1836 l 5.8594 0 c 3.5059 0 5.957 1.8164 4.3457 5.791 c -0.41016 0.98633 -0.95703 1.7773 -1.582 2.3926 l 0.88867 0 c -1.5332 1.4746 -3.6523 1.9727 -6.0938 1.9727 l -1.0156 4.3848 l -4.8633 0 l 1.4648 -6.3574 l -0.9082 0 Z M 111.797 9.072 c -0.20508 0.95703 -0.43945 1.9336 -0.6543 2.9297 c 2.4316 -0.12695 3.3398 -2.9297 0.6543 -2.9297 Z M 119.248 13.6328 l -1.123 0 l 4.5898 -8.1934 l 4.873 0 l 0.79102 8.1934 l 1.0938 0 l 0.61523 6.3574 l -5.0293 0 l -0.20508 -2.7441 l -2.7832 0 c -0.48828 0.9082 -0.94727 1.8262 -1.4355 2.7441 l -4.9414 0 Z M 124.727 13.8379 l 0 -0.20508 l -1.0645 0 l 0.019531 -3.2422 l -1.3086 3.2422 l 1.084 0 l -0.078125 0.20508 l 1.3477 0 Z M 131.953 13.6328 l -0.89844 0 l 1.875 -8.1836 l 4.9023 0 l -1.8945 8.1836 l 0.9082 0 l -0.64453 2.666 l 5.4199 0 l -0.83984 3.6914 l -10.303 0 Z
" fill="#000000"/>
</svg>