<?xml version="1.0" standalone="no"?>
<!DOCTYPE svg PUBLIC "-//W3C//DTD SVG 20010904//EN"
 "http://www.w3.org/TR/2001/REC-SVG-20010904/DTD/svg10.dtd">
<svg version="1.0" xmlns="http://www.w3.org/2000/svg"
 width="500.000000pt" height="500.000000pt" viewBox="0 0 500.000000 500.000000"
 preserveAspectRatio="xMidYMid meet">

<g transform="translate(0.000000,500.000000) scale(0.100000,-0.100000)"
fill="#000000" stroke="none">
<path d="M0 2500 l0 -2500 2500 0 2500 0 0 2500 0 2500 -2500 0 -2500 0 0
-2500z m1202 228 c-16 -16 -15 -50 1 -68 10 -12 9 -12 -5 -1 -21 15 -24 51 -6
69 7 7 14 12 17 12 3 0 0 -5 -7 -12z m88 -38 c-11 -16 -26 -32 -33 -36 -9 -5
-8 -3 1 7 6 7 12 21 12 32 0 10 4 16 9 12 5 -3 12 -1 16 5 3 5 8 10 11 10 3 0
-4 -13 -16 -30z m81 13 c13 -16 12 -17 -3 -4 -17 13 -22 21 -14 21 2 0 10 -8
17 -17z m1985 1 c19 -9 42 -30 50 -45 l15 -29 -40 0 c-22 0 -43 5 -46 10 -9
14 -48 13 -63 -2 -15 -15 -15 -51 0 -66 15 -15 54 -16 63 -2 3 6 -3 10 -14 10
-12 0 -21 5 -21 10 0 6 27 10 60 10 65 0 69 -4 45 -50 -21 -42 -53 -60 -103
-60 -37 0 -50 6 -78 34 -26 26 -34 42 -34 70 0 50 23 90 62 109 42 21 62 21
104 1z m-1691 -26 l26 -33 28 33 c23 27 34 32 69 32 l42 0 0 -110 0 -110 -40
0 -40 0 0 62 0 62 -30 -29 -30 -29 -30 29 -30 29 0 -62 0 -62 -35 0 -35 0 0
110 0 110 39 0 c33 0 44 -6 66 -32z m295 2 c12 -16 25 -30 30 -30 5 0 17 14
27 30 15 26 23 30 60 30 24 0 43 -2 43 -5 0 -3 -20 -32 -45 -66 -37 -51 -45
-69 -45 -105 l0 -44 -40 0 -40 0 0 43 c0 35 -8 52 -50 106 -28 36 -50 66 -50
68 0 2 20 3 44 3 38 0 48 -4 66 -30z m260 -10 l0 -40 55 0 55 0 0 40 c0 39 1
40 35 40 l35 0 0 -110 0 -110 -35 0 c-34 0 -35 1 -35 40 l0 40 -55 0 -55 0 0
-40 c0 -39 -1 -40 -35 -40 l-35 0 0 110 0 110 35 0 c34 0 35 -1 35 -40z m290
-70 l0 -110 -35 0 -35 0 0 110 0 110 35 0 35 0 0 -110z m110 80 c0 -16 3 -30
6 -30 3 0 17 14 31 30 20 24 33 30 65 30 l40 0 -36 -42 c-20 -23 -36 -46 -36
-51 0 -5 15 -30 33 -56 53 -73 53 -71 8 -71 -36 0 -44 4 -67 40 -30 45 -44 44
-44 -6 0 -32 -2 -34 -35 -34 l-35 0 0 110 0 110 35 0 c32 0 35 -2 35 -30z
m250 -80 l0 -110 -40 0 -40 0 0 110 0 110 40 0 40 0 0 -110z m160 54 l45 -55
3 55 3 56 39 0 40 0 0 -110 0 -110 -37 0 c-34 -1 -44 6 -90 57 l-53 58 0 -57
0 -58 -40 0 -40 0 0 110 0 110 43 0 c39 -1 45 -5 87 -56z m632 39 c18 -16 24
-68 10 -89 -14 -22 -51 -34 -101 -34 l-51 0 0 -40 c0 -39 -1 -40 -35 -40 l-35
0 0 110 0 110 97 0 c76 0 100 -4 115 -17z m230 -93 l36 -110 -44 0 c-32 0 -44
4 -44 15 0 11 -11 15 -40 15 -27 0 -43 -5 -46 -15 -6 -16 -84 -22 -84 -7 0 7
47 153 65 200 3 8 25 12 62 12 l59 0 36 -110z m128 30 l0 -80 60 0 60 0 0 -30
0 -30 -95 0 -95 0 0 110 0 110 35 0 35 0 0 -80z m-2800 0 c-6 -11 -13 -20 -16
-20 -2 0 0 9 6 20 6 11 13 20 16 20 2 0 0 -9 -6 -20z m-83 -46 c-3 -3 -12 -4
-19 -1 -8 3 -5 6 6 6 11 1 17 -2 13 -5z m50 -10 c-3 -3 -12 -4 -19 -1 -8 3 -5
6 6 6 11 1 17 -2 13 -5z m59 -31 c-3 -4 -6 -1 -6 6 0 7 -4 9 -10 6 -6 -4 -7 1
-3 11 6 15 7 15 15 -1 6 -9 7 -19 4 -22z m-143 -14 c-8 -28 -12 -23 -11 12 1
17 4 25 8 18 4 -6 5 -20 3 -30z m300 -3 c-10 -13 -20 -22 -22 -20 -4 4 29 44
36 44 2 0 -4 -11 -14 -24z m-143 -21 c0 -9 -9 -15 -22 -14 -17 1 -19 2 -5 6 9
2 17 9 17 14 0 5 2 9 5 9 3 0 5 -7 5 -15z m82 -27 c-6 -6 -9 0 -9 18 0 23 1
24 9 10 7 -12 7 -21 0 -28z m-225 10 c-3 -8 -6 -5 -6 6 -1 11 2 17 5 13 3 -3
4 -12 1 -19z m-57 -3 c11 -13 15 -13 21 -3 6 9 9 7 9 -7 0 -14 -7 -21 -19 -21
-10 0 -18 7 -17 16 1 11 -9 15 -39 13 -30 -1 -35 1 -20 7 31 13 51 11 65 -5z
m97 -52 c-3 -10 -5 -4 -5 12 0 17 2 24 5 18 2 -7 2 -21 0 -30z m-43 12 c-4 -8
-8 -15 -10 -15 -2 0 -4 7 -4 15 0 8 4 15 10 15 5 0 7 -7 4 -15z m119 -2 c-13
-2 -23 -8 -23 -12 0 -11 36 -42 41 -36 3 2 11 -6 18 -18 13 -19 10 -19 -22 6
-24 18 -37 23 -40 14 -3 -6 -6 0 -6 14 -1 31 6 39 33 38 19 -2 19 -2 -1 -6z
m34 -25 c-3 -7 -5 -2 -5 12 0 14 2 19 5 13 2 -7 2 -19 0 -25z m-190 -10 c-3
-8 -6 -5 -6 6 -1 11 2 17 5 13 3 -3 4 -12 1 -19z m570 -56 c18 -49 20 -62 8
-62 -7 0 -17 5 -20 10 -3 6 -17 10 -31 10 -13 0 -24 -4 -24 -10 0 -5 -7 -10
-15 -10 -20 0 -19 8 7 75 28 73 46 70 75 -13z m127 47 c50 -39 27 -97 -42
-106 l-42 -6 0 67 0 66 29 0 c15 0 40 -9 55 -21z m76 -16 c18 -57 26 -59 40
-9 7 26 19 46 26 46 19 0 18 -9 -7 -74 -29 -74 -51 -75 -75 -3 -9 28 -19 58
-22 65 -2 6 3 12 11 12 9 0 20 -16 27 -37z m170 22 c0 -8 -9 -15 -20 -15 -27
0 -25 -28 3 -33 l22 -4 -22 -8 c-28 -9 -30 -35 -3 -35 11 0 20 -4 20 -10 0 -5
-16 -10 -35 -10 l-35 0 0 65 0 65 35 0 c24 0 35 -5 35 -15z m80 -23 l25 -37 3
38 c2 24 8 37 18 37 11 0 14 -15 14 -65 0 -77 -16 -86 -52 -30 -29 44 -38 44
-38 0 0 -19 -4 -35 -10 -35 -6 0 -10 28 -10 65 0 76 13 83 50 27z m170 23 c0
-8 -7 -15 -15 -15 -11 0 -15 -12 -15 -50 0 -38 -4 -50 -15 -50 -11 0 -15 12
-15 49 0 41 -3 50 -21 54 -35 9 -11 27 37 27 32 0 44 -4 44 -15z m40 -19 c0
-47 9 -66 31 -66 16 0 19 8 19 50 0 38 4 50 15 50 21 0 21 -93 -1 -114 -18
-19 -55 -21 -72 -4 -14 14 -16 118 -2 118 6 0 10 -15 10 -34z m181 24 c21 -12
25 -40 7 -58 -9 -9 -9 -18 0 -37 16 -36 -10 -34 -37 3 l-20 27 -1 -27 c0 -18
-5 -28 -15 -28 -12 0 -15 13 -15 58 0 32 3 62 7 65 10 10 52 8 74 -3z m119 -5
c0 -9 -9 -15 -25 -15 -30 0 -33 -20 -5 -27 26 -7 26 -23 -1 -23 -27 0 -19 -24
9 -28 38 -6 24 -22 -18 -22 l-40 0 0 65 0 65 40 0 c29 0 40 -4 40 -15z m138 3
c-3 -7 -14 -14 -26 -16 -25 -4 -31 -32 -7 -32 8 0 15 -4 15 -10 0 -5 -7 -10
-15 -10 -9 0 -15 -9 -15 -25 0 -16 -6 -25 -15 -25 -12 0 -15 14 -15 65 l0 65
41 0 c28 0 39 -4 37 -12z m42 -53 c0 -51 -3 -65 -15 -65 -12 0 -15 13 -15 58
0 32 3 62 7 65 17 17 23 2 23 -58z m101 55 c20 -11 26 -54 9 -65 -7 -4 -7 -12
0 -25 13 -25 13 -30 -5 -30 -8 0 -21 12 -29 28 l-15 27 -1 -27 c0 -18 -5 -28
-15 -28 -12 0 -15 14 -15 65 0 63 1 65 26 65 14 0 34 -5 45 -10z m117 -2 c21
-21 13 -30 -18 -23 -39 9 -38 2 5 -24 39 -23 42 -32 19 -55 -19 -20 -44 -20
-70 -2 -24 18 -10 34 16 18 25 -15 30 -15 30 1 0 6 -14 20 -30 29 -34 19 -39
42 -12 57 23 14 45 14 60 -1z m122 -3 c0 -8 -7 -15 -15 -15 -11 0 -15 -12 -15
-50 0 -38 -4 -50 -15 -50 -11 0 -15 12 -15 50 0 38 -4 50 -15 50 -8 0 -15 7
-15 15 0 11 12 15 45 15 33 0 45 -4 45 -15z m-2033 -17 c-3 -8 -6 -5 -6 6 -1
11 2 17 5 13 3 -3 4 -12 1 -19z m278 -41 c19 -5 19 -5 -1 -6 -11 0 -31 11 -45
27 l-24 27 25 -22 c14 -11 34 -23 45 -26z m-308 1 c-3 -7 -5 -2 -5 12 0 14 2
19 5 13 2 -7 2 -19 0 -25z m100 -14 c2 -13 1 -15 -4 -4 -3 8 -11 19 -17 23 -7
6 -6 7 4 4 8 -2 16 -12 17 -23z m143 -9 c13 -14 21 -25 18 -25 -2 0 -15 11
-28 25 -13 14 -21 25 -18 25 2 0 15 -11 28 -25z m105 5 c3 -5 1 -10 -4 -10 -6
0 -11 5 -11 10 0 6 2 10 4 10 3 0 8 -4 11 -10z m-37 -35 c-2 -20 -5 -22 -18
-12 -25 19 -26 20 -6 13 15 -5 17 -2 13 14 -3 11 -1 18 4 15 5 -4 8 -17 7 -30z
m87 24 c11 -16 1 -19 -13 -3 -7 8 -8 14 -3 14 5 0 13 -5 16 -11z"/>
<path d="M3527 2654 c-13 -14 5 -24 44 -24 28 0 39 4 37 13 -5 13 -69 22 -81
11z"/>
<path d="M3786 2628 c-11 -42 -7 -58 15 -58 18 0 20 4 14 33 -9 43 -21 53 -29
25z"/>
<path d="M1598 2362 c-4 -12 -2 -25 4 -28 16 -10 22 4 11 28 l-10 22 -5 -22z"/>
<path d="M1710 2355 c0 -30 3 -35 24 -35 16 0 27 7 31 20 8 25 -10 50 -36 50
-15 0 -19 -7 -19 -35z"/>
<path d="M2440 2375 c0 -8 9 -15 20 -15 11 0 20 7 20 15 0 8 -9 15 -20 15 -11
0 -20 -7 -20 -15z"/>
<path d="M2850 2375 c0 -8 7 -15 15 -15 8 0 15 7 15 15 0 8 -7 15 -15 15 -8 0
-15 -7 -15 -15z"/>
</g>
</svg>
