<svg width="500" height="100" viewBox="0 0 500 100" fill="none" xmlns="http://www.w3.org/2000/svg">
<g clip-path="url(#clip0_3_8)">
<path d="M58.1635 55.2874L52.8885 96.7037H35.5367L40.0829 61.3949C38.313 66.2936 36.5431 71.1284 34.9119 76.0274H22.6614L21.1692 61.2678L16.623 96.7043H0L5.13611 55.288H2.01276L8.7107 1.97467H27.1382L30.9211 35.8841C34.9815 24.6867 39.0419 13.3629 43.2061 1.97467H61.6336L54.9356 55.288L58.1635 55.2874ZM98.0399 53.5063L96.3394 57.5143L91.4115 97.0224H73.9208L78.7445 58.5325C78.4669 56.942 78.1545 55.2243 77.8422 53.5066H74.7188C71.4914 36.3294 67.6741 18.5796 64.9324 1.52939H84.5746L88.6694 25.6414C91.8622 17.6252 95.1591 9.54568 98.3517 1.52939H117.543L94.9161 53.5066L98.0399 53.5063ZM159.117 55.5421L153.842 97.0222H136.455L141.383 58.0867H131.319L126.357 97.0222H108.866L114.106 55.5421H110.601L117.299 1.84698H134.79L130.799 34.1024H140.828L144.889 1.84698H162.31L155.543 55.5421H159.117ZM184.591 55.5421L179.385 97.0222H161.825L167.031 55.5421H163.491L170.293 1.84698H187.818L181.086 55.5421H184.591ZM226.097 55.5421L236.161 97.0222H215.582L209.058 68.3297L205.449 97.0222H188.028L193.233 55.5421H189.728L196.426 1.84698H213.882L210.516 28.5675C215.062 19.6607 219.504 10.6268 224.015 1.84698H244.074L220.406 46.3805L222.523 55.5421H226.097ZM262.396 55.5421L257.191 97.0222H239.631L244.836 55.5421H241.296L248.099 1.84698H265.624L258.891 55.5421H262.396ZM316.743 55.2874L311.572 96.7037H295.435L288.563 55.2874H287.765L282.525 96.7037H266.179L271.42 55.2874H268.262L274.96 1.97402H294.012L299.634 35.4379L303.902 1.97402H320.317L313.585 55.2874H316.743ZM321.878 56.3056H318.199C320.282 34.2932 329.652 10.9447 340.757 3.88281C352.175 -3.43315 361.614 0.129263 371.608 10.054L368.277 36.3289H362.794C361.995 32.7661 362.516 25.768 354.465 24.4956C343.012 22.6507 335.482 41.037 334.128 56.3054H337.807C337.113 64.2579 338.05 71.4468 340.999 74.3732C342.943 76.2818 345.754 77.1725 349.918 76.2818H349.988L351.272 65.9756H343.012L344.227 56.3052H340.479L342.284 42.0544H367.756L365.986 56.3052H369.7L365.292 91.36C363.522 92.696 361.683 93.7775 359.844 94.9227C351.584 99.5669 341 102.684 332.775 96.6404C323.023 89.6424 320.282 73.3558 321.878 56.3056ZM372.997 55.2874C375.252 37.5375 377.508 19.7239 379.764 1.97402H400.586C413.045 1.97402 421.755 13.8072 416.029 39.7004C414.572 46.126 412.628 51.2789 410.407 55.2874H413.565C408.117 64.8939 400.586 68.1388 391.91 68.1388L388.301 96.7043H371.018L376.224 55.288L372.997 55.2874ZM394.063 25.5753C393.334 31.81 392.501 38.1721 391.737 44.6613C400.379 43.8343 403.606 25.5753 394.063 25.5753ZM420.541 55.2874H416.55L432.861 1.91018H450.178L452.989 55.2874H456.876L459.062 96.7037H441.19L440.461 78.8268H430.57C428.835 84.7434 427.204 90.7239 425.469 96.7037H407.909L420.541 55.2874ZM440.011 56.6235V55.2875H436.229L436.298 34.1657L431.648 55.2875H435.5L435.222 56.6235H440.011ZM465.69 55.2874H462.497L469.161 1.97402H486.582L479.849 55.2874H483.077L480.786 72.6555H500.047L497.062 96.7037H460.449L465.69 55.2874Z" fill="#20BFE2"/>
</g>
<defs>
<clipPath id="clip0_3_8">
<rect width="500" height="100" fill="white"/>
</clipPath>
</defs>
</svg>
