<svg width="90" height="78" viewBox="0 0 90 78" fill="none" xmlns="http://www.w3.org/2000/svg">
<g clip-path="url(#clip0_3_10)">
<mask id="path-1-inside-1_3_10" fill="white">
<path d="M18.7225 72.2633L16.7755 72.5623C16.7585 72.5663 16.7495 72.5743 16.7335 72.5783L14.8395 71.1873C14.8995 71.0293 14.9375 70.8633 14.9375 70.6853C14.9375 70.5073 14.8995 70.3413 14.8395 70.1833L16.7335 68.7853C16.7485 68.7933 16.7585 68.8013 16.7755 68.8013L18.7225 69.1043C18.9135 69.1333 19.0935 68.9993 19.1235 68.8093C19.1515 68.6123 19.0195 68.4383 18.8315 68.4093L17.5255 68.2123L18.1265 67.7673C18.3065 67.8203 18.5045 67.8023 18.6665 67.6813C18.9445 67.4763 19.0035 67.0873 18.7985 66.8083C18.5975 66.5333 18.2055 66.4723 17.9275 66.6753C17.7655 66.7963 17.6855 66.9823 17.6855 67.1673L17.0925 67.6013L17.2895 66.3183C17.3185 66.1253 17.1895 65.9433 16.9945 65.9143C16.8025 65.8873 16.6285 66.0193 16.5955 66.2093L16.2965 68.1603C16.2965 68.1683 16.2995 68.1763 16.2995 68.1833L14.3945 69.5833C14.2495 69.4743 14.0855 69.3923 13.9045 69.3433V66.9893C13.9185 66.9813 13.9315 66.9733 13.9425 66.9663L15.3345 65.5703C15.4725 65.4333 15.4725 65.2113 15.3345 65.0763C15.1985 64.9393 14.9775 64.9393 14.8405 65.0763L13.9045 66.0123V65.2643C14.0525 65.1473 14.1575 64.9773 14.1575 64.7743C14.1575 64.4343 13.8775 64.1513 13.5335 64.1513C13.1895 64.1513 12.9095 64.4343 12.9095 64.7743C12.9095 64.9773 13.0125 65.1473 13.1615 65.2643V65.9933L12.2395 65.0733C12.1035 64.9363 11.8815 64.9363 11.7445 65.0733C11.6065 65.2083 11.6065 65.4303 11.7445 65.5673L13.1405 66.9633C13.1455 66.9673 13.1535 66.9713 13.1615 66.9793V69.3463C12.9795 69.3973 12.8175 69.4753 12.6785 69.5923L10.7795 68.2033C10.7795 68.1833 10.7855 68.1723 10.7795 68.1563L10.4855 66.2053C10.4535 66.0163 10.2755 65.8833 10.0815 65.9103C9.89253 65.9393 9.76053 66.1213 9.78953 66.3143L9.99153 67.6213L9.38653 67.1763C9.38353 66.9873 9.30653 66.8053 9.14053 66.6843C8.86553 66.4853 8.47753 66.5413 8.27253 66.8213C8.06553 67.0963 8.12653 67.4893 8.40453 67.6943C8.56753 67.8093 8.76653 67.8293 8.94353 67.7763L9.53653 68.2103L8.25053 68.4073C8.06053 68.4363 7.92753 68.6103 7.95653 68.8073C7.98553 68.9963 8.16553 69.1313 8.35753 69.1023L10.3065 68.7993C10.3145 68.7993 10.3235 68.7913 10.3315 68.7913L12.2365 70.1933C12.1795 70.3473 12.1435 70.5093 12.1435 70.6833C12.1435 70.8533 12.1795 71.0153 12.2365 71.1653L10.3315 72.5673C10.3235 72.5673 10.3145 72.5633 10.3065 72.5593L8.35753 72.2603C8.16653 72.2313 7.98553 72.3623 7.95653 72.5553C7.92853 72.7483 8.06053 72.9223 8.25053 72.9513L9.53653 73.1523L8.94353 73.5823C8.76653 73.5333 8.56753 73.5513 8.40453 73.6683C8.12653 73.8773 8.06553 74.2623 8.27253 74.5453C8.47753 74.8163 8.86453 74.8773 9.14053 74.6743C9.30653 74.5573 9.38353 74.3753 9.38653 74.1823L9.99153 73.7413L9.78953 75.0483C9.76053 75.2373 9.89253 75.4193 10.0815 75.4483C10.2755 75.4753 10.4535 75.3433 10.4855 75.1493L10.7795 73.2063C10.7855 73.1903 10.7795 73.1753 10.7795 73.1633L12.6765 71.7703C12.8165 71.8833 12.9805 71.9613 13.1625 72.0143V74.3833C13.1545 74.3913 13.1455 74.3913 13.1415 74.3993L11.7455 75.7953C11.6075 75.9323 11.6075 76.1503 11.7455 76.2853C11.8815 76.4263 12.1045 76.4263 12.2405 76.2853L13.1625 75.3693V76.1013C13.0135 76.2183 12.9105 76.3843 12.9105 76.5873C12.9105 76.9313 13.1905 77.2103 13.5345 77.2103C13.8785 77.2103 14.1585 76.9313 14.1585 76.5873C14.1585 76.3843 14.0535 76.2183 13.9055 76.1013V75.3533L14.8415 76.2853C14.9765 76.4263 15.1985 76.4263 15.3355 76.2853C15.4735 76.1503 15.4735 75.9313 15.3355 75.7953L13.9435 74.3993C13.9325 74.3913 13.9195 74.3833 13.9055 74.3763V72.0223C14.0875 71.9693 14.2515 71.8873 14.3955 71.7783L16.3005 73.1783C16.3005 73.1903 16.2975 73.1943 16.2975 73.2053L16.5965 75.1523C16.6295 75.3413 16.8045 75.4743 16.9955 75.4473C17.1905 75.4183 17.3205 75.2363 17.2905 75.0473L17.0935 73.7643L17.6865 74.2023C17.6865 74.3843 17.7665 74.5693 17.9285 74.6863C18.2065 74.8933 18.5975 74.8293 18.7995 74.5573C19.0045 74.2743 18.9455 73.8893 18.6675 73.6803C18.5055 73.5593 18.3075 73.5453 18.1275 73.5983L17.5265 73.1553L18.8325 72.9523C19.0205 72.9233 19.1535 72.7493 19.1245 72.5563C19.0935 72.3643 18.9145 72.2343 18.7225 72.2633ZM70.6465 55.2693C70.4535 53.1953 68.2925 51.8243 67.7505 48.7403H67.7465C67.2015 51.8243 65.0395 53.1953 64.8465 55.2693C64.6725 57.1873 66.1085 58.5353 67.7425 58.5333C69.3765 58.5253 70.8235 57.1873 70.6465 55.2693ZM75.0955 71.2223C74.9025 69.1443 72.7385 67.7773 72.1955 64.6913H72.1915C71.6465 67.7773 69.4865 69.1443 69.2955 71.2223C69.1175 73.1403 70.5575 74.4883 72.1885 74.4843C73.8255 74.4803 75.2725 73.1403 75.0955 71.2223ZM64.1775 65.9603C63.9645 63.6593 61.5645 62.1423 60.9585 58.7083H60.9545C60.3505 62.1423 57.9525 63.6593 57.7415 65.9603C57.5405 68.0913 59.1375 69.5933 60.9545 69.5853C62.7675 69.5773 64.3725 68.0913 64.1775 65.9603ZM81.8235 58.8943C81.5915 56.3373 78.9235 54.6543 78.2515 50.8553H78.2475C77.5795 54.6543 74.9135 56.3373 74.6795 58.8943C74.4605 61.2553 76.2325 62.9193 78.2475 62.9143C80.2615 62.9053 82.0405 61.2553 81.8235 58.8943ZM17.2505 50.8003L14.1325 51.2803C14.1065 51.2803 14.0905 51.2923 14.0665 51.3003L11.0295 49.0713C11.1275 48.8253 11.1865 48.5533 11.1865 48.2663C11.1865 47.9873 11.1275 47.7153 11.0295 47.4613L12.8605 46.1173C12.4055 45.9593 11.9615 45.7913 11.5385 45.6113L10.3155 46.5063C10.0845 46.3323 9.82053 46.1953 9.53153 46.1213V44.5643C9.11453 44.3063 8.71753 44.0423 8.34153 43.7583V46.1283C8.05153 46.2063 7.79253 46.3433 7.56653 46.5243L4.52653 44.2943C4.52653 44.2643 4.53253 44.2453 4.52753 44.2233L4.05253 41.0993C4.00453 40.7893 3.71853 40.5823 3.41053 40.6273C3.10353 40.6723 2.89353 40.9593 2.94053 41.2693L3.26153 43.3583L2.29453 42.6523C2.28953 42.3493 2.16453 42.0593 1.90353 41.8663C1.46253 41.5433 0.838527 41.6413 0.511527 42.0833C0.182527 42.5283 0.280527 43.1513 0.723527 43.4773C0.983527 43.6693 1.30553 43.7043 1.58953 43.6173L2.53753 44.3113L0.475527 44.6243C0.171527 44.6713 -0.0404727 44.9583 0.00652728 45.2673C0.0545273 45.5743 0.341527 45.7833 0.645527 45.7363L3.76953 45.2593C3.78453 45.2593 3.79653 45.2453 3.81053 45.2413L6.86053 47.4893C6.77053 47.7293 6.71453 47.9913 6.71453 48.2663C6.71453 48.5413 6.77053 48.8033 6.86053 49.0473L3.81053 51.2913C3.79753 51.2873 3.78553 51.2793 3.76953 51.2793L0.645527 50.7993C0.341527 50.7463 0.0545273 50.9673 0.00652728 51.2723C-0.0404727 51.5793 0.172527 51.8663 0.475527 51.9073L2.53753 52.2233L1.58953 52.9183C1.30553 52.8403 0.983527 52.8693 0.723527 53.0593C0.279527 53.3833 0.182527 54.0103 0.511527 54.4553C0.838527 54.8963 1.46253 54.9923 1.90553 54.6663C2.16653 54.4783 2.29153 54.1843 2.29653 53.8813L3.26353 53.1723L2.94253 55.2643C2.89653 55.5713 3.10653 55.8583 3.41253 55.9073C3.72053 55.9483 4.00653 55.7373 4.05453 55.4343L4.52953 52.3153C4.53453 52.2883 4.52853 52.2663 4.52853 52.2433L7.56653 50.0113C7.79253 50.1933 8.05353 50.3293 8.34353 50.4073V54.2003C8.33253 54.2123 8.32053 54.2123 8.30953 54.2213L6.07553 56.4573C5.85453 56.6763 5.85453 57.0353 6.07553 57.2463C6.29253 57.4693 6.64853 57.4693 6.86953 57.2463L8.34353 55.7773V56.9513C8.10553 57.1333 7.94153 57.4083 7.94153 57.7303C7.94153 58.2853 8.38853 58.7263 8.94153 58.7263C9.49153 58.7263 9.93653 58.2853 9.93653 57.7303C9.93653 57.4083 9.77553 57.1323 9.53353 56.9513V55.7543L11.0335 57.2463C11.2475 57.4693 11.6065 57.4693 11.8255 57.2463C12.0465 57.0353 12.0465 56.6763 11.8255 56.4573L9.59453 54.2213C9.57753 54.2073 9.55553 54.2003 9.53453 54.1883V50.4153C9.82353 50.3373 10.0865 50.2043 10.3185 50.0263L13.3745 52.2743C13.3745 52.2883 13.3695 52.2953 13.3695 52.3153L13.8485 55.4343C13.8965 55.7373 14.1815 55.9483 14.4855 55.9073C14.7975 55.8583 15.0065 55.5713 14.9585 55.2643L14.6435 53.2053L15.5915 53.9043C15.5935 54.1993 15.7175 54.4963 15.9785 54.6853C16.4245 55.0133 17.0495 54.9153 17.3755 54.4783C17.7025 54.0253 17.6065 53.4103 17.1635 53.0763C16.9035 52.8813 16.5835 52.8533 16.2975 52.9413L15.3315 52.2303L17.4225 51.9063C17.7285 51.8653 17.9415 51.5783 17.8935 51.2713C17.8465 50.9683 17.5595 50.7513 17.2505 50.8003ZM72.8315 30.4213C72.6815 28.2473 71.1595 23.4133 66.1475 20.2583C60.5325 16.7303 55.3095 16.5893 50.3275 18.1753C47.7965 11.6943 40.8065 5.57725 30.4715 6.92425C20.4265 8.23125 14.9155 16.8543 14.9155 23.7993C8.95853 25.4573 5.58653 29.3943 5.58653 34.7033C5.58653 40.0963 10.8755 45.2703 20.8505 45.2373C24.2975 45.2279 30.4757 45.2348 37.5 45.2445C40.2418 45.2483 43.1125 45.2525 46 45.2563C57.1158 45.2709 68.481 45.2798 73.7005 45.2373C82.4405 45.1653 84.9625 40.3493 83.4485 35.8133C82.0505 31.6183 77.3685 29.3613 72.8315 30.4213ZM89.7515 17.5313C88.9095 15.0033 86.0875 13.6423 83.3515 14.2813C83.2595 12.9703 82.3415 10.0563 79.3205 8.15325C75.9335 6.02525 72.7875 5.94025 69.7815 6.89825C68.2565 2.98925 64.0375 -0.698745 57.8065 0.113255C52.3825 0.818255 49.1755 5.05625 48.5605 8.94425C50.2285 10.5373 51.5685 12.3193 52.5565 14.1043C54.0095 13.8053 55.4495 13.6533 56.8535 13.6533C60.7715 13.6533 64.6305 14.8293 68.3325 17.1553C71.0965 18.8943 72.9775 21.0933 74.2305 23.2353C78.2915 23.2353 81.8555 23.2313 83.8755 23.2163C89.1475 23.1723 90.6655 20.2683 89.7515 17.5313Z"/>
<path d="M37.5 45.2445L32 56.9513L40.5 55.4343L30.4715 75.7953L48.5605 51.3003L38.5 52.3153L46 45.2563C43.1125 45.2525 40.2418 45.2483 37.5 45.2445Z"/>
</mask>
<path d="M18.7225 72.2633L16.7755 72.5623C16.7585 72.5663 16.7495 72.5743 16.7335 72.5783L14.8395 71.1873C14.8995 71.0293 14.9375 70.8633 14.9375 70.6853C14.9375 70.5073 14.8995 70.3413 14.8395 70.1833L16.7335 68.7853C16.7485 68.7933 16.7585 68.8013 16.7755 68.8013L18.7225 69.1043C18.9135 69.1333 19.0935 68.9993 19.1235 68.8093C19.1515 68.6123 19.0195 68.4383 18.8315 68.4093L17.5255 68.2123L18.1265 67.7673C18.3065 67.8203 18.5045 67.8023 18.6665 67.6813C18.9445 67.4763 19.0035 67.0873 18.7985 66.8083C18.5975 66.5333 18.2055 66.4723 17.9275 66.6753C17.7655 66.7963 17.6855 66.9823 17.6855 67.1673L17.0925 67.6013L17.2895 66.3183C17.3185 66.1253 17.1895 65.9433 16.9945 65.9143C16.8025 65.8873 16.6285 66.0193 16.5955 66.2093L16.2965 68.1603C16.2965 68.1683 16.2995 68.1763 16.2995 68.1833L14.3945 69.5833C14.2495 69.4743 14.0855 69.3923 13.9045 69.3433V66.9893C13.9185 66.9813 13.9315 66.9733 13.9425 66.9663L15.3345 65.5703C15.4725 65.4333 15.4725 65.2113 15.3345 65.0763C15.1985 64.9393 14.9775 64.9393 14.8405 65.0763L13.9045 66.0123V65.2643C14.0525 65.1473 14.1575 64.9773 14.1575 64.7743C14.1575 64.4343 13.8775 64.1513 13.5335 64.1513C13.1895 64.1513 12.9095 64.4343 12.9095 64.7743C12.9095 64.9773 13.0125 65.1473 13.1615 65.2643V65.9933L12.2395 65.0733C12.1035 64.9363 11.8815 64.9363 11.7445 65.0733C11.6065 65.2083 11.6065 65.4303 11.7445 65.5673L13.1405 66.9633C13.1455 66.9673 13.1535 66.9713 13.1615 66.9793V69.3463C12.9795 69.3973 12.8175 69.4753 12.6785 69.5923L10.7795 68.2033C10.7795 68.1833 10.7855 68.1723 10.7795 68.1563L10.4855 66.2053C10.4535 66.0163 10.2755 65.8833 10.0815 65.9103C9.89253 65.9393 9.76053 66.1213 9.78953 66.3143L9.99153 67.6213L9.38653 67.1763C9.38353 66.9873 9.30653 66.8053 9.14053 66.6843C8.86553 66.4853 8.47753 66.5413 8.27253 66.8213C8.06553 67.0963 8.12653 67.4893 8.40453 67.6943C8.56753 67.8093 8.76653 67.8293 8.94353 67.7763L9.53653 68.2103L8.25053 68.4073C8.06053 68.4363 7.92753 68.6103 7.95653 68.8073C7.98553 68.9963 8.16553 69.1313 8.35753 69.1023L10.3065 68.7993C10.3145 68.7993 10.3235 68.7913 10.3315 68.7913L12.2365 70.1933C12.1795 70.3473 12.1435 70.5093 12.1435 70.6833C12.1435 70.8533 12.1795 71.0153 12.2365 71.1653L10.3315 72.5673C10.3235 72.5673 10.3145 72.5633 10.3065 72.5593L8.35753 72.2603C8.16653 72.2313 7.98553 72.3623 7.95653 72.5553C7.92853 72.7483 8.06053 72.9223 8.25053 72.9513L9.53653 73.1523L8.94353 73.5823C8.76653 73.5333 8.56753 73.5513 8.40453 73.6683C8.12653 73.8773 8.06553 74.2623 8.27253 74.5453C8.47753 74.8163 8.86453 74.8773 9.14053 74.6743C9.30653 74.5573 9.38353 74.3753 9.38653 74.1823L9.99153 73.7413L9.78953 75.0483C9.76053 75.2373 9.89253 75.4193 10.0815 75.4483C10.2755 75.4753 10.4535 75.3433 10.4855 75.1493L10.7795 73.2063C10.7855 73.1903 10.7795 73.1753 10.7795 73.1633L12.6765 71.7703C12.8165 71.8833 12.9805 71.9613 13.1625 72.0143V74.3833C13.1545 74.3913 13.1455 74.3913 13.1415 74.3993L11.7455 75.7953C11.6075 75.9323 11.6075 76.1503 11.7455 76.2853C11.8815 76.4263 12.1045 76.4263 12.2405 76.2853L13.1625 75.3693V76.1013C13.0135 76.2183 12.9105 76.3843 12.9105 76.5873C12.9105 76.9313 13.1905 77.2103 13.5345 77.2103C13.8785 77.2103 14.1585 76.9313 14.1585 76.5873C14.1585 76.3843 14.0535 76.2183 13.9055 76.1013V75.3533L14.8415 76.2853C14.9765 76.4263 15.1985 76.4263 15.3355 76.2853C15.4735 76.1503 15.4735 75.9313 15.3355 75.7953L13.9435 74.3993C13.9325 74.3913 13.9195 74.3833 13.9055 74.3763V72.0223C14.0875 71.9693 14.2515 71.8873 14.3955 71.7783L16.3005 73.1783C16.3005 73.1903 16.2975 73.1943 16.2975 73.2053L16.5965 75.1523C16.6295 75.3413 16.8045 75.4743 16.9955 75.4473C17.1905 75.4183 17.3205 75.2363 17.2905 75.0473L17.0935 73.7643L17.6865 74.2023C17.6865 74.3843 17.7665 74.5693 17.9285 74.6863C18.2065 74.8933 18.5975 74.8293 18.7995 74.5573C19.0045 74.2743 18.9455 73.8893 18.6675 73.6803C18.5055 73.5593 18.3075 73.5453 18.1275 73.5983L17.5265 73.1553L18.8325 72.9523C19.0205 72.9233 19.1535 72.7493 19.1245 72.5563C19.0935 72.3643 18.9145 72.2343 18.7225 72.2633ZM70.6465 55.2693C70.4535 53.1953 68.2925 51.8243 67.7505 48.7403H67.7465C67.2015 51.8243 65.0395 53.1953 64.8465 55.2693C64.6725 57.1873 66.1085 58.5353 67.7425 58.5333C69.3765 58.5253 70.8235 57.1873 70.6465 55.2693ZM75.0955 71.2223C74.9025 69.1443 72.7385 67.7773 72.1955 64.6913H72.1915C71.6465 67.7773 69.4865 69.1443 69.2955 71.2223C69.1175 73.1403 70.5575 74.4883 72.1885 74.4843C73.8255 74.4803 75.2725 73.1403 75.0955 71.2223ZM64.1775 65.9603C63.9645 63.6593 61.5645 62.1423 60.9585 58.7083H60.9545C60.3505 62.1423 57.9525 63.6593 57.7415 65.9603C57.5405 68.0913 59.1375 69.5933 60.9545 69.5853C62.7675 69.5773 64.3725 68.0913 64.1775 65.9603ZM81.8235 58.8943C81.5915 56.3373 78.9235 54.6543 78.2515 50.8553H78.2475C77.5795 54.6543 74.9135 56.3373 74.6795 58.8943C74.4605 61.2553 76.2325 62.9193 78.2475 62.9143C80.2615 62.9053 82.0405 61.2553 81.8235 58.8943ZM17.2505 50.8003L14.1325 51.2803C14.1065 51.2803 14.0905 51.2923 14.0665 51.3003L11.0295 49.0713C11.1275 48.8253 11.1865 48.5533 11.1865 48.2663C11.1865 47.9873 11.1275 47.7153 11.0295 47.4613L12.8605 46.1173C12.4055 45.9593 11.9615 45.7913 11.5385 45.6113L10.3155 46.5063C10.0845 46.3323 9.82053 46.1953 9.53153 46.1213V44.5643C9.11453 44.3063 8.71753 44.0423 8.34153 43.7583V46.1283C8.05153 46.2063 7.79253 46.3433 7.56653 46.5243L4.52653 44.2943C4.52653 44.2643 4.53253 44.2453 4.52753 44.2233L4.05253 41.0993C4.00453 40.7893 3.71853 40.5823 3.41053 40.6273C3.10353 40.6723 2.89353 40.9593 2.94053 41.2693L3.26153 43.3583L2.29453 42.6523C2.28953 42.3493 2.16453 42.0593 1.90353 41.8663C1.46253 41.5433 0.838527 41.6413 0.511527 42.0833C0.182527 42.5283 0.280527 43.1513 0.723527 43.4773C0.983527 43.6693 1.30553 43.7043 1.58953 43.6173L2.53753 44.3113L0.475527 44.6243C0.171527 44.6713 -0.0404727 44.9583 0.00652728 45.2673C0.0545273 45.5743 0.341527 45.7833 0.645527 45.7363L3.76953 45.2593C3.78453 45.2593 3.79653 45.2453 3.81053 45.2413L6.86053 47.4893C6.77053 47.7293 6.71453 47.9913 6.71453 48.2663C6.71453 48.5413 6.77053 48.8033 6.86053 49.0473L3.81053 51.2913C3.79753 51.2873 3.78553 51.2793 3.76953 51.2793L0.645527 50.7993C0.341527 50.7463 0.0545273 50.9673 0.00652728 51.2723C-0.0404727 51.5793 0.172527 51.8663 0.475527 51.9073L2.53753 52.2233L1.58953 52.9183C1.30553 52.8403 0.983527 52.8693 0.723527 53.0593C0.279527 53.3833 0.182527 54.0103 0.511527 54.4553C0.838527 54.8963 1.46253 54.9923 1.90553 54.6663C2.16653 54.4783 2.29153 54.1843 2.29653 53.8813L3.26353 53.1723L2.94253 55.2643C2.89653 55.5713 3.10653 55.8583 3.41253 55.9073C3.72053 55.9483 4.00653 55.7373 4.05453 55.4343L4.52953 52.3153C4.53453 52.2883 4.52853 52.2663 4.52853 52.2433L7.56653 50.0113C7.79253 50.1933 8.05353 50.3293 8.34353 50.4073V54.2003C8.33253 54.2123 8.32053 54.2123 8.30953 54.2213L6.07553 56.4573C5.85453 56.6763 5.85453 57.0353 6.07553 57.2463C6.29253 57.4693 6.64853 57.4693 6.86953 57.2463L8.34353 55.7773V56.9513C8.10553 57.1333 7.94153 57.4083 7.94153 57.7303C7.94153 58.2853 8.38853 58.7263 8.94153 58.7263C9.49153 58.7263 9.93653 58.2853 9.93653 57.7303C9.93653 57.4083 9.77553 57.1323 9.53353 56.9513V55.7543L11.0335 57.2463C11.2475 57.4693 11.6065 57.4693 11.8255 57.2463C12.0465 57.0353 12.0465 56.6763 11.8255 56.4573L9.59453 54.2213C9.57753 54.2073 9.55553 54.2003 9.53453 54.1883V50.4153C9.82353 50.3373 10.0865 50.2043 10.3185 50.0263L13.3745 52.2743C13.3745 52.2883 13.3695 52.2953 13.3695 52.3153L13.8485 55.4343C13.8965 55.7373 14.1815 55.9483 14.4855 55.9073C14.7975 55.8583 15.0065 55.5713 14.9585 55.2643L14.6435 53.2053L15.5915 53.9043C15.5935 54.1993 15.7175 54.4963 15.9785 54.6853C16.4245 55.0133 17.0495 54.9153 17.3755 54.4783C17.7025 54.0253 17.6065 53.4103 17.1635 53.0763C16.9035 52.8813 16.5835 52.8533 16.2975 52.9413L15.3315 52.2303L17.4225 51.9063C17.7285 51.8653 17.9415 51.5783 17.8935 51.2713C17.8465 50.9683 17.5595 50.7513 17.2505 50.8003ZM72.8315 30.4213C72.6815 28.2473 71.1595 23.4133 66.1475 20.2583C60.5325 16.7303 55.3095 16.5893 50.3275 18.1753C47.7965 11.6943 40.8065 5.57725 30.4715 6.92425C20.4265 8.23125 14.9155 16.8543 14.9155 23.7993C8.95853 25.4573 5.58653 29.3943 5.58653 34.7033C5.58653 40.0963 10.8755 45.2703 20.8505 45.2373C24.2975 45.2279 30.4757 45.2348 37.5 45.2445C40.2418 45.2483 43.1125 45.2525 46 45.2563C57.1158 45.2709 68.481 45.2798 73.7005 45.2373C82.4405 45.1653 84.9625 40.3493 83.4485 35.8133C82.0505 31.6183 77.3685 29.3613 72.8315 30.4213ZM89.7515 17.5313C88.9095 15.0033 86.0875 13.6423 83.3515 14.2813C83.2595 12.9703 82.3415 10.0563 79.3205 8.15325C75.9335 6.02525 72.7875 5.94025 69.7815 6.89825C68.2565 2.98925 64.0375 -0.698745 57.8065 0.113255C52.3825 0.818255 49.1755 5.05625 48.5605 8.94425C50.2285 10.5373 51.5685 12.3193 52.5565 14.1043C54.0095 13.8053 55.4495 13.6533 56.8535 13.6533C60.7715 13.6533 64.6305 14.8293 68.3325 17.1553C71.0965 18.8943 72.9775 21.0933 74.2305 23.2353C78.2915 23.2353 81.8555 23.2313 83.8755 23.2163C89.1475 23.1723 90.6655 20.2683 89.7515 17.5313Z" fill="#20BFE2"/>
<path d="M37.5 45.2445L32 56.9513L40.5 55.4343L30.4715 75.7953L48.5605 51.3003L38.5 52.3153L46 45.2563C43.1125 45.2525 40.2418 45.2483 37.5 45.2445Z" fill="#20BFE2"/>
<path d="M37.4993 45.7445C40.241 45.7483 43.1118 45.7525 45.9993 45.7563L46.0007 44.7563C43.1131 44.7525 40.2425 44.7483 37.5007 44.7445L37.4993 45.7445ZM18.7225 72.2633L18.5732 71.2745L18.5707 71.2748L18.7225 72.2633ZM16.7755 72.5623L16.6237 71.5738L16.5848 71.5798L16.5465 71.5888L16.7755 72.5623ZM16.7335 72.5783L16.1416 73.3842L16.5203 73.6623L16.9761 73.5484L16.7335 72.5783ZM14.8395 71.1873L13.9047 70.8322L13.6347 71.5431L14.2476 71.9932L14.8395 71.1873ZM14.8395 70.1833L14.2457 69.3787L13.6354 69.8291L13.9047 70.5383L14.8395 70.1833ZM16.7335 68.7853L17.2041 67.9029L16.6473 67.606L16.1397 67.9807L16.7335 68.7853ZM16.7755 68.8013L16.9293 67.8131L16.8529 67.8013H16.7755V68.8013ZM18.7225 69.1043L18.5688 70.0924L18.5724 70.0929L18.7225 69.1043ZM19.1235 68.8093L20.1113 68.9652L20.1125 68.9576L20.1136 68.95L19.1235 68.8093ZM18.8315 68.4093L18.984 67.4209L18.9807 67.4204L18.8315 68.4093ZM17.5255 68.2123L16.9305 67.4086L14.9948 68.8418L17.3764 69.2011L17.5255 68.2123ZM18.1265 67.7673L18.409 66.808L17.9315 66.6674L17.5315 66.9636L18.1265 67.7673ZM18.6665 67.6813L18.073 66.8764L18.0681 66.8801L18.6665 67.6813ZM18.7985 66.8083L17.9912 67.3983L17.9927 67.4004L18.7985 66.8083ZM17.9275 66.6753L17.3378 65.8676L17.3291 65.8741L17.9275 66.6753ZM17.6855 67.1673L18.2761 67.9742L18.6855 67.6746V67.1673H17.6855ZM17.0925 67.6013L16.1041 67.4495L15.7384 69.8316L17.6831 68.4082L17.0925 67.6013ZM17.2895 66.3183L18.2779 66.47L18.2784 66.4668L17.2895 66.3183ZM16.9945 65.9143L17.1416 64.9251L17.1338 64.924L16.9945 65.9143ZM16.5955 66.2093L15.6103 66.0381L15.6086 66.0479L15.6071 66.0578L16.5955 66.2093ZM16.2965 68.1603L15.3081 68.0088L15.2965 68.0841V68.1603H16.2965ZM16.2995 68.1833L16.8917 68.989L17.2995 68.6893V68.1833H16.2995ZM14.3945 69.5833L13.7936 70.3826L14.3878 70.8292L14.9867 70.3891L14.3945 69.5833ZM13.9045 69.3433H12.9045V70.1085L13.6432 70.3085L13.9045 69.3433ZM13.9045 66.9893L13.4084 66.121L12.9045 66.4089V66.9893H13.9045ZM13.9425 66.9663L14.4794 67.8099L14.5726 67.7506L14.6506 67.6723L13.9425 66.9663ZM15.3345 65.5703L14.63 64.8606L14.6264 64.8642L15.3345 65.5703ZM15.3345 65.0763L14.6248 65.7808L14.63 65.786L14.6352 65.7911L15.3345 65.0763ZM14.8405 65.0763L15.5476 65.7834L15.5476 65.7834L14.8405 65.0763ZM13.9045 66.0123H12.9045V68.4265L14.6116 66.7194L13.9045 66.0123ZM13.9045 65.2643L13.2844 64.4798L12.9045 64.7801V65.2643H13.9045ZM13.1615 65.2643H14.1615V64.778L13.7791 64.4778L13.1615 65.2643ZM13.1615 65.9933L12.4552 66.7011L14.1615 68.4038V65.9933H13.1615ZM12.2395 65.0733L11.5298 65.7778L11.5332 65.7811L12.2395 65.0733ZM11.7445 65.0733L12.4439 65.7881L12.4516 65.7804L11.7445 65.0733ZM11.7445 65.5673L12.4516 64.8601L12.4491 64.8576L11.7445 65.5673ZM13.1405 66.9633L12.4334 67.6704L12.4726 67.7095L12.5158 67.7441L13.1405 66.9633ZM13.1615 66.9793H14.1615V66.565L13.8686 66.2721L13.1615 66.9793ZM13.1615 69.3463L13.4314 70.3092L14.1615 70.1046V69.3463H13.1615ZM12.6785 69.5923L12.0882 70.3994L12.7218 70.8629L13.3225 70.3573L12.6785 69.5923ZM10.7795 68.2033H9.77953V68.7108L10.1892 69.0104L10.7795 68.2033ZM10.7795 68.1563L9.79069 68.3053L9.80633 68.4091L9.8432 68.5074L10.7795 68.1563ZM10.4855 66.2053L11.4744 66.0562L11.473 66.0473L11.4715 66.0383L10.4855 66.2053ZM10.0815 65.9103L9.94367 64.9197L9.92986 64.9218L10.0815 65.9103ZM9.78953 66.3143L8.80062 66.4628L8.80126 66.467L9.78953 66.3143ZM9.99153 67.6213L9.39901 68.4268L11.3496 69.8616L10.9798 67.4685L9.99153 67.6213ZM9.38653 67.1763L8.38665 67.1921L8.39452 67.688L8.79401 67.9818L9.38653 67.1763ZM9.14053 66.6843L9.72957 65.8761L9.72677 65.8741L9.14053 66.6843ZM8.27253 66.8213L9.07155 67.4227L9.07939 67.412L8.27253 66.8213ZM8.40453 67.6943L7.81103 68.4991L7.81947 68.5053L7.82804 68.5114L8.40453 67.6943ZM8.94353 67.7763L9.53412 66.9693L9.13294 66.6757L8.65668 66.8183L8.94353 67.7763ZM9.53653 68.2103L9.68795 69.1987L12.0797 68.8323L10.1271 67.4033L9.53653 68.2103ZM8.25053 68.4073L8.40141 69.3958L8.40195 69.3957L8.25053 68.4073ZM7.95653 68.8073L6.96717 68.9529L6.9681 68.9589L7.95653 68.8073ZM8.35753 69.1023L8.50688 70.0911L8.51115 70.0904L8.35753 69.1023ZM10.3065 68.7993V67.7993H10.2293L10.1529 67.8111L10.3065 68.7993ZM10.3315 68.7913L10.9243 67.9859L10.6598 67.7913H10.3315V68.7913ZM12.2365 70.1933L13.1743 70.5404L13.4357 69.8342L12.8293 69.3879L12.2365 70.1933ZM12.2365 71.1653L12.8293 71.9706L13.4412 71.5203L13.1713 70.81L12.2365 71.1653ZM10.3315 72.5673V73.5673H10.6598L10.9243 73.3726L10.3315 72.5673ZM10.3065 72.5593L10.7537 71.6648L10.6133 71.5946L10.4582 71.5708L10.3065 72.5593ZM8.35753 72.2603L8.50917 71.2718L8.50764 71.2716L8.35753 72.2603ZM7.95653 72.5553L6.96762 72.4067L6.96689 72.4117L7.95653 72.5553ZM8.25053 72.9513L8.40495 71.9632L8.40141 71.9627L8.25053 72.9513ZM9.53653 73.1523L10.1236 73.9618L12.0862 72.5386L9.69095 72.1642L9.53653 73.1523ZM8.94353 73.5823L8.67673 74.546L9.14076 74.6745L9.53056 74.3918L8.94353 73.5823ZM8.40453 73.6683L7.8214 72.8559L7.81243 72.8623L7.80361 72.8689L8.40453 73.6683ZM8.27253 74.5453L7.4654 75.1356L7.47015 75.1421L7.47501 75.1485L8.27253 74.5453ZM9.14053 74.6743L8.56442 73.8569L8.55616 73.8627L8.54802 73.8687L9.14053 74.6743ZM9.38653 74.1823L8.79749 73.3741L8.3944 73.668L8.38665 74.1667L9.38653 74.1823ZM9.99153 73.7413L10.9798 73.894L11.3474 71.5155L9.40249 72.9332L9.99153 73.7413ZM9.78953 75.0483L8.80126 74.8955L8.80109 74.8966L9.78953 75.0483ZM10.0815 75.4483L9.92985 76.4368L9.94368 76.4387L10.0815 75.4483ZM10.4855 75.1493L11.4723 75.312L11.4743 75.2989L10.4855 75.1493ZM10.7795 73.2063L9.8432 72.8551L9.80644 72.9531L9.79078 73.0566L10.7795 73.2063ZM10.7795 73.1633L10.1876 72.3572L9.77953 72.6569V73.1633H10.7795ZM12.6765 71.7703L13.3046 70.9921L12.7054 70.5084L12.0846 70.9642L12.6765 71.7703ZM13.1625 72.0143H14.1625V71.2639L13.4421 71.0541L13.1625 72.0143ZM13.1625 74.3833L13.8696 75.0904L14.1625 74.7975V74.3833H13.1625ZM13.1415 74.3993L13.8486 75.1064L13.9634 74.9916L14.036 74.8465L13.1415 74.3993ZM11.7455 75.7953L12.4501 76.5049L12.4526 76.5024L11.7455 75.7953ZM11.7455 76.2853L12.4653 75.591L12.4552 75.5806L12.4448 75.5704L11.7455 76.2853ZM12.2405 76.2853L11.5357 75.5758L11.5282 75.5834L11.5208 75.591L12.2405 76.2853ZM13.1625 75.3693H14.1625V72.9661L12.4577 74.6598L13.1625 75.3693ZM13.1625 76.1013L13.7801 76.8878L14.1625 76.5875V76.1013H13.1625ZM13.9055 76.1013H12.9055V76.5855L13.2854 76.8857L13.9055 76.1013ZM13.9055 75.3533L14.6111 74.6446L12.9055 72.9463V75.3533H13.9055ZM14.8415 76.2853L15.5638 75.5937L15.5556 75.5851L15.5471 75.5766L14.8415 76.2853ZM15.3355 76.2853L14.6362 75.5704L14.6272 75.5793L14.6183 75.5884L15.3355 76.2853ZM15.3355 75.7953L14.6274 76.5014L14.6336 76.5075L15.3355 75.7953ZM13.9435 74.3993L14.6516 73.6932L14.5957 73.6371L14.5317 73.5905L13.9435 74.3993ZM13.9055 74.3763H12.9055V74.9943L13.4583 75.2707L13.9055 74.3763ZM13.9055 72.0223L13.6259 71.0621L12.9055 71.2719V72.0223H13.9055ZM14.3955 71.7783L14.9877 70.9725L14.3867 70.5308L13.792 70.9809L14.3955 71.7783ZM16.3005 73.1783H17.3005V72.6722L16.8927 72.3725L16.3005 73.1783ZM16.2975 73.2053H15.2975V73.2816L15.3091 73.357L16.2975 73.2053ZM16.5965 75.1523L15.6081 75.304L15.6097 75.3142L15.6114 75.3243L16.5965 75.1523ZM16.9955 75.4473L17.1355 76.4374L17.1426 76.4364L16.9955 75.4473ZM17.2905 75.0473L16.3021 75.199L16.3029 75.204L17.2905 75.0473ZM17.0935 73.7643L17.6877 72.9599L15.7371 71.5191L16.1051 73.916L17.0935 73.7643ZM17.6865 74.2023H18.6865V73.6977L18.2807 73.3979L17.6865 74.2023ZM17.9285 74.6863L18.5258 73.8842L18.5199 73.8798L18.514 73.8756L17.9285 74.6863ZM18.7995 74.5573L19.6024 75.1535L19.6094 75.1439L18.7995 74.5573ZM18.6675 73.6803L19.2685 72.8809L19.2659 72.8791L18.6675 73.6803ZM18.1275 73.5983L17.5342 74.4032L17.9338 74.6977L18.41 74.5575L18.1275 73.5983ZM17.5265 73.1553L17.3729 72.1671L15.0008 72.5358L16.9332 73.9602L17.5265 73.1553ZM18.8325 72.9523L18.6801 71.9639L18.6789 71.9641L18.8325 72.9523ZM19.1245 72.5563L20.1135 72.4077L20.1117 72.3969L19.1245 72.5563ZM70.6465 55.2693L71.6423 55.1774L71.6422 55.1766L70.6465 55.2693ZM67.7505 48.7403L68.7354 48.5672L68.5901 47.7403H67.7505V48.7403ZM67.7465 48.7403V47.7403H66.9078L66.7618 48.5662L67.7465 48.7403ZM64.8465 55.2693L63.8508 55.1766L63.8506 55.1789L64.8465 55.2693ZM67.7425 58.5333L67.7437 59.5333L67.7474 59.5332L67.7425 58.5333ZM75.0955 71.2223L76.0913 71.1304L76.0912 71.1298L75.0955 71.2223ZM72.1955 64.6913L73.1804 64.518L73.0349 63.6913H72.1955V64.6913ZM72.1915 64.6913V63.6913H71.3527L71.2068 64.5173L72.1915 64.6913ZM69.2955 71.2223L70.2912 71.3147L70.2913 71.3138L69.2955 71.2223ZM72.1885 74.4843L72.1861 73.4843L72.1861 73.4843L72.1885 74.4843ZM64.1775 65.9603L65.1734 65.8691L65.1733 65.8681L64.1775 65.9603ZM60.9585 58.7083L61.9433 58.5345L61.7975 57.7083H60.9585V58.7083ZM60.9545 58.7083V57.7083H60.1151L59.9696 58.535L60.9545 58.7083ZM57.7415 65.9603L58.7371 66.0542L58.7373 66.0516L57.7415 65.9603ZM60.9545 69.5853L60.9589 70.5852L60.9589 70.5852L60.9545 69.5853ZM81.8235 58.8943L80.8276 58.9846L80.8277 58.9858L81.8235 58.8943ZM78.2515 50.8553L79.2362 50.6811L79.0902 49.8553H78.2515V50.8553ZM78.2475 50.8553V49.8553H77.408L77.2626 50.6821L78.2475 50.8553ZM74.6795 58.8943L75.6753 58.9866L75.6754 58.9854L74.6795 58.8943ZM78.2475 62.9143L78.25 63.9143L78.252 63.9142L78.2475 62.9143ZM17.2505 50.8003L17.4027 51.7886L17.4071 51.7879L17.2505 50.8003ZM14.1325 51.2803V52.2803H14.209L14.2847 52.2686L14.1325 51.2803ZM14.0665 51.3003L13.4748 52.1064L13.8919 52.4125L14.3828 52.2489L14.0665 51.3003ZM11.0295 49.0713L10.1005 48.7012L9.81426 49.4198L10.4378 49.8774L11.0295 49.0713ZM11.0295 47.4613L10.4378 46.6551L9.82126 47.1077L10.0966 47.8212L11.0295 47.4613ZM12.8605 46.1173L13.4523 46.9234L14.9868 45.797L13.1886 45.1726L12.8605 46.1173ZM11.5385 45.6113L11.9301 44.6911L11.4069 44.4684L10.948 44.8043L11.5385 45.6113ZM10.3155 46.5063L9.71387 47.305L10.3069 47.7517L10.9061 47.3132L10.3155 46.5063ZM9.53153 46.1213H8.53153V46.8975L9.28347 47.09L9.53153 46.1213ZM9.53153 44.5643H10.5315V44.007L10.0577 43.7139L9.53153 44.5643ZM8.34153 43.7583L8.94424 42.9603L7.34153 41.7497V43.7583H8.34153ZM8.34153 46.1283L8.60126 47.0939L9.34153 46.8948V46.1283H8.34153ZM7.56653 46.5243L6.97505 47.3306L7.59323 47.784L8.19164 47.3048L7.56653 46.5243ZM4.52653 44.2943H3.52653V44.8009L3.93505 45.1006L4.52653 44.2943ZM4.52753 44.2233L3.53889 44.3736L3.54435 44.4095L3.55239 44.4449L4.52753 44.2233ZM4.05253 41.0993L5.04117 40.9489L5.04075 40.9462L4.05253 41.0993ZM3.41053 40.6273L3.26596 39.6378L3.2655 39.6378L3.41053 40.6273ZM2.94053 41.2693L1.95182 41.4192L1.95213 41.4211L2.94053 41.2693ZM3.26153 43.3583L2.67187 44.1659L4.61541 45.5849L4.24993 43.2064L3.26153 43.3583ZM2.29453 42.6523L1.29466 42.6688L1.30288 43.1664L1.70487 43.4599L2.29453 42.6523ZM1.90353 41.8663L2.4981 41.0622L2.49441 41.0595L1.90353 41.8663ZM0.511527 42.0833L-0.292384 41.4885L-0.292574 41.4888L0.511527 42.0833ZM0.723527 43.4773L1.31757 42.6728L1.31623 42.6718L0.723527 43.4773ZM1.58953 43.6173L2.18023 42.8104L1.77583 42.5143L1.29662 42.6611L1.58953 43.6173ZM2.53753 44.3113L2.6876 45.2999L5.08405 44.9362L3.12823 43.5044L2.53753 44.3113ZM0.475527 44.6243L0.325451 43.6356L0.322737 43.636L0.475527 44.6243ZM0.00652728 45.2673L-0.98211 45.4176L-0.981469 45.4217L0.00652728 45.2673ZM0.645527 45.7363L0.494587 44.7477L0.492737 44.748L0.645527 45.7363ZM3.76953 45.2593V44.2593H3.69362L3.61859 44.2707L3.76953 45.2593ZM3.81053 45.2413L4.40383 44.4363L4.00828 44.1447L3.53581 44.2797L3.81053 45.2413ZM6.86053 47.4893L7.79686 47.8404L8.06224 47.1327L7.45383 46.6843L6.86053 47.4893ZM6.86053 49.0473L7.45315 49.8527L8.05906 49.4069L7.79874 48.7012L6.86053 49.0473ZM3.81053 51.2913L3.51644 52.247L3.99763 52.3951L4.40315 52.0967L3.81053 51.2913ZM3.76953 51.2793L3.61766 52.2677L3.69315 52.2793H3.76953V51.2793ZM0.645527 50.7993L0.473776 51.7844L0.483702 51.7861L0.49366 51.7877L0.645527 50.7993ZM0.00652728 51.2723L-0.981323 51.1168L-0.981956 51.1209L0.00652728 51.2723ZM0.475527 51.9073L0.627009 50.9188L0.618325 50.9175L0.609619 50.9163L0.475527 51.9073ZM2.53753 52.2233L3.12878 53.0297L5.07779 51.6009L2.68901 51.2348L2.53753 52.2233ZM1.58953 52.9183L1.32469 53.8825L1.79088 54.0106L2.18078 53.7247L1.58953 52.9183ZM0.723527 53.0593L1.313 53.867L1.31354 53.8666L0.723527 53.0593ZM0.511527 54.4553L-0.292574 55.0497L-0.291739 55.0509L0.511527 54.4553ZM1.90553 54.6663L1.32103 53.8548L1.31282 53.8608L1.90553 54.6663ZM2.29653 53.8813L1.70524 53.0748L1.30485 53.3684L1.29666 53.8648L2.29653 53.8813ZM3.26353 53.1723L4.25196 53.3239L4.61786 50.9393L2.67224 52.3658L3.26353 53.1723ZM2.94253 55.2643L1.95409 55.1126L1.95357 55.1161L2.94253 55.2643ZM3.41253 55.9073L3.25441 56.8947L3.26747 56.8968L3.28057 56.8985L3.41253 55.9073ZM4.05453 55.4343L5.04223 55.5907L5.04313 55.5848L4.05453 55.4343ZM4.52953 52.3153L3.54625 52.1332L3.54333 52.1489L3.54093 52.1647L4.52953 52.3153ZM4.52853 52.2433L3.93645 51.4374L3.52853 51.7371V52.2433H4.52853ZM7.56653 50.0113L8.19374 49.2324L7.5945 48.7498L6.97445 49.2054L7.56653 50.0113ZM8.34353 50.4073H9.34353V49.6407L8.60326 49.4416L8.34353 50.4073ZM8.34353 54.2003L9.08068 54.876L9.34353 54.5892V54.2003H8.34353ZM8.30953 54.2213L7.67629 53.4473L7.63751 53.479L7.6021 53.5145L8.30953 54.2213ZM6.07553 56.4573L6.77942 57.1676L6.78295 57.164L6.07553 56.4573ZM6.07553 57.2463L6.79221 56.5489L6.77938 56.5357L6.76608 56.523L6.07553 57.2463ZM6.86953 57.2463L6.16361 56.5379L6.15924 56.5423L6.86953 57.2463ZM8.34353 55.7773H9.34353V53.3688L7.63762 55.0689L8.34353 55.7773ZM8.34353 56.9513L8.95098 57.7456L9.34353 57.4454V56.9513H8.34353ZM9.53353 56.9513H8.53353V57.4521L8.93459 57.752L9.53353 56.9513ZM9.53353 55.7543L10.2387 55.0453L8.53353 53.3491V55.7543H9.53353ZM11.0335 57.2463L11.755 56.5539L11.747 56.5455L11.7387 56.5373L11.0335 57.2463ZM11.8255 57.2463L11.135 56.523L11.1233 56.5341L11.112 56.5456L11.8255 57.2463ZM11.8255 56.4573L11.1176 57.1636L11.1216 57.1676L11.8255 56.4573ZM9.59453 54.2213L10.3024 53.5149L10.2679 53.4804L10.2302 53.4493L9.59453 54.2213ZM9.53453 54.1883H8.53453V54.7686L9.03839 55.0565L9.53453 54.1883ZM9.53453 50.4153L9.27395 49.4498L8.53453 49.6494V50.4153H9.53453ZM10.3185 50.0263L10.9111 49.2207L10.3059 48.7755L9.70981 49.2329L10.3185 50.0263ZM13.3745 52.2743H14.3745V51.7684L13.9671 51.4687L13.3745 52.2743ZM13.3695 52.3153H12.3695V52.3916L12.3811 52.467L13.3695 52.3153ZM13.8485 55.4343L12.8601 55.5861L12.8608 55.5907L13.8485 55.4343ZM14.4855 55.9073L14.6192 56.8983L14.6299 56.8968L14.6407 56.8951L14.4855 55.9073ZM14.9585 55.2643L13.97 55.4155L13.9705 55.4187L14.9585 55.2643ZM14.6435 53.2053L15.237 52.4004L13.289 50.9641L13.655 53.3565L14.6435 53.2053ZM15.5915 53.9043L16.5915 53.8975L16.5881 53.3966L16.185 53.0994L15.5915 53.9043ZM15.9785 54.6853L16.571 53.8796L16.565 53.8753L15.9785 54.6853ZM17.3755 54.4783L18.1771 55.0762L18.1818 55.0699L18.1863 55.0635L17.3755 54.4783ZM17.1635 53.0763L17.7655 52.2778L17.7635 52.2763L17.1635 53.0763ZM16.2975 52.9413L15.7048 53.7466L16.1103 54.0451L16.5916 53.897L16.2975 52.9413ZM15.3315 52.2303L15.1784 51.242L12.8022 51.6102L14.7388 53.0356L15.3315 52.2303ZM17.4225 51.9063L17.2897 50.9151L17.2796 50.9165L17.2694 50.918L17.4225 51.9063ZM17.8935 51.2713L16.9053 51.4245L16.9055 51.4257L17.8935 51.2713ZM72.8315 30.4213L71.8339 30.4901L71.9148 31.6624L73.059 31.395L72.8315 30.4213ZM66.1475 20.2583L66.6803 19.412L66.6795 19.4115L66.1475 20.2583ZM50.3275 18.1753L49.396 18.539L49.7372 19.4126L50.6309 19.1281L50.3275 18.1753ZM30.4715 6.92425L30.6006 7.9159L30.6008 7.91587L30.4715 6.92425ZM14.9155 23.7993L15.1837 24.7626L15.9155 24.5589V23.7993H14.9155ZM20.8505 45.2373L20.8478 44.2373L20.8472 44.2373L20.8505 45.2373ZM73.7005 45.2373L73.7087 46.2372L73.7088 46.2372L73.7005 45.2373ZM83.4485 35.8133L82.4998 36.1294L82.5 36.1299L83.4485 35.8133ZM89.7515 17.5313L88.8028 17.8473L88.803 17.848L89.7515 17.5313ZM83.3515 14.2813L82.354 14.3513L82.4361 15.522L83.579 15.255L83.3515 14.2813ZM79.3205 8.15325L79.8535 7.30713L79.8525 7.30651L79.3205 8.15325ZM69.7815 6.89825L68.8499 7.2617L69.191 8.13601L70.0852 7.85104L69.7815 6.89825ZM57.8065 0.113255L57.9354 1.10491L57.9357 1.10487L57.8065 0.113255ZM48.5605 8.94425L47.5728 8.78802L47.4909 9.30555L47.8699 9.66743L48.5605 8.94425ZM52.5565 14.1043L51.6816 14.5885L52.0378 15.232L52.7581 15.0837L52.5565 14.1043ZM68.3325 17.1553L68.8651 16.3088L68.8645 16.3085L68.3325 17.1553ZM74.2305 23.2353L73.3674 23.7402L73.657 24.2353H74.2305V23.2353ZM83.8755 23.2163L83.883 24.2162L83.8839 24.2162L83.8755 23.2163ZM37.5 45.2445L38.4051 45.6697L39.0737 44.2467L37.5014 44.2445L37.5 45.2445ZM32 56.9513L31.0949 56.526L30.2731 58.2753L32.1757 57.9357L32 56.9513ZM40.5 55.4343L41.3971 55.8761L42.2707 54.1024L40.3243 54.4498L40.5 55.4343ZM30.4715 75.7953L29.5744 75.3534L31.276 76.3893L30.4715 75.7953ZM48.5605 51.3003L49.365 51.8943L50.7057 50.0788L48.4601 50.3053L48.5605 51.3003ZM38.5 52.3153L37.8146 51.5871L35.6697 53.6059L38.6004 53.3102L38.5 52.3153ZM46 45.2563L46.0013 44.2563L45.604 44.2557L45.3146 44.5281L46 45.2563ZM18.5707 71.2748L16.6237 71.5738L16.9273 73.5507L18.8743 73.2517L18.5707 71.2748ZM16.5465 71.5888C16.4875 71.6027 16.4373 71.6198 16.397 71.6357C16.3776 71.6433 16.3616 71.6503 16.3501 71.6555C16.3392 71.6603 16.3303 71.6645 16.3284 71.6654C16.3242 71.6674 16.329 71.6651 16.3338 71.6629C16.3399 71.6601 16.3512 71.6551 16.3657 71.6491C16.3963 71.6366 16.4389 71.6211 16.491 71.6081L16.9761 73.5484C17.0056 73.541 17.033 73.5328 17.0582 73.5243C17.0832 73.5159 17.1051 73.5075 17.1232 73.5001C17.1411 73.4928 17.1556 73.4863 17.1649 73.4821C17.1696 73.4799 17.1734 73.4781 17.1758 73.477C17.177 73.4764 17.1781 73.476 17.1787 73.4757C17.179 73.4755 17.1794 73.4754 17.1795 73.4753C17.1798 73.4752 17.1798 73.4751 17.1799 73.4751C17.1812 73.4745 17.1755 73.4772 17.1679 73.4806C17.1597 73.4843 17.147 73.4898 17.1311 73.4961C17.115 73.5024 17.0959 73.5094 17.0743 73.5164C17.0525 73.5233 17.0292 73.5299 17.0046 73.5357L16.5465 71.5888ZM17.3255 71.7723L15.4315 70.3813L14.2476 71.9932L16.1416 73.3842L17.3255 71.7723ZM15.7744 71.5423C15.8676 71.2967 15.9375 71.0095 15.9375 70.6853H13.9375C13.9375 70.7171 13.9314 70.7618 13.9047 70.8322L15.7744 71.5423ZM15.9375 70.6853C15.9375 70.3611 15.8676 70.0738 15.7744 69.8282L13.9047 70.5383C13.9314 70.6087 13.9375 70.6535 13.9375 70.6853H15.9375ZM15.4334 70.9878L17.3274 69.5898L16.1397 67.9807L14.2457 69.3787L15.4334 70.9878ZM16.2629 69.6676C16.252 69.6618 16.2353 69.6523 16.2514 69.6614C16.2586 69.6655 16.2918 69.6844 16.3348 69.7042C16.4404 69.753 16.5906 69.8013 16.7755 69.8013V67.8013C16.8522 67.8013 16.9285 67.8106 17.0024 67.8287C17.0748 67.8465 17.1327 67.8698 17.1728 67.8883C17.2092 67.9051 17.2361 67.9205 17.2366 67.9209C17.2461 67.9262 17.2226 67.9128 17.2041 67.9029L16.2629 69.6676ZM16.6218 69.7894L18.5688 70.0924L18.8763 68.1161L16.9293 67.8131L16.6218 69.7894ZM18.5724 70.0929C19.3151 70.2057 19.9968 69.6905 20.1113 68.9652L18.1358 68.6533C18.1903 68.308 18.512 68.0608 18.8726 68.1156L18.5724 70.0929ZM20.1136 68.95C20.2181 68.2146 19.7171 67.534 18.984 67.4209L18.6791 69.3976C18.322 69.3425 18.085 69.0099 18.1335 68.6685L20.1136 68.95ZM18.9807 67.4204L17.6747 67.2234L17.3764 69.2011L18.6824 69.3981L18.9807 67.4204ZM18.1206 69.0159L18.7216 68.5709L17.5315 66.9636L16.9305 67.4086L18.1206 69.0159ZM17.8441 68.7265C18.2705 68.8521 18.8074 68.8242 19.2649 68.4824L18.0681 66.8801C18.2016 66.7803 18.3426 66.7884 18.409 66.808L17.8441 68.7265ZM19.26 68.4861C19.983 67.953 20.1353 66.9387 19.6044 66.2161L17.9927 67.4004C17.8718 67.2358 17.9061 66.9995 18.073 66.8764L19.26 68.4861ZM19.6059 66.2182C19.0768 65.4943 18.0586 65.3413 17.3378 65.8677L18.5173 67.4829C18.3525 67.6032 18.1183 67.5722 17.9912 67.3983L19.6059 66.2182ZM17.3291 65.8741C16.8895 66.2024 16.6855 66.6992 16.6855 67.1673H18.6855C18.6855 67.2654 18.6415 67.3901 18.5259 67.4764L17.3291 65.8741ZM17.0949 66.3603L16.5019 66.7943L17.6831 68.4082L18.2761 67.9742L17.0949 66.3603ZM18.0809 67.753L18.2779 66.47L16.3011 66.1665L16.1041 67.4495L18.0809 67.753ZM18.2784 66.4668C18.3866 65.7471 17.9033 65.0384 17.1416 64.9251L16.8474 66.9034C16.4758 66.8481 16.2505 66.5034 16.3006 66.1697L18.2784 66.4668ZM17.1338 64.924C16.3875 64.819 15.7322 65.3363 15.6103 66.0381L17.5808 66.3804C17.5249 66.7022 17.2176 66.9555 16.8553 66.9045L17.1338 64.924ZM15.6071 66.0578L15.3081 68.0088L17.285 68.3117L17.584 66.3607L15.6071 66.0578ZM15.2965 68.1603C15.2965 68.1924 15.298 68.221 15.3 68.2452C15.302 68.2693 15.3046 68.2902 15.3069 68.3066C15.3092 68.323 15.3115 68.3364 15.3131 68.3454C15.3147 68.3539 15.316 68.361 15.3163 68.3622C15.3165 68.3637 15.3164 68.3628 15.3163 68.3624C15.3161 68.3616 15.3157 68.3595 15.3152 68.3568C15.3143 68.3516 15.3124 68.341 15.3103 68.3274C15.3082 68.3137 15.3056 68.2944 15.3035 68.2709C15.3014 68.2475 15.2995 68.2178 15.2995 68.1833H17.2995C17.2995 68.147 17.2976 68.1155 17.2953 68.0902C17.293 68.065 17.2902 68.0438 17.2878 68.0282C17.2855 68.0128 17.2832 68.0003 17.2819 67.9932C17.2812 67.9895 17.2807 67.9865 17.2803 67.9848C17.2801 67.9834 17.2797 67.9815 17.2798 67.982C17.2798 67.982 17.2798 67.982 17.2798 67.9821C17.2798 67.9821 17.2798 67.9822 17.2798 67.9822C17.2798 67.9823 17.2799 67.9825 17.2799 67.9827C17.28 67.9832 17.2802 67.9839 17.2803 67.9848C17.2807 67.9866 17.2812 67.9894 17.2818 67.993C17.2831 68 17.2851 68.0115 17.2871 68.0259C17.2891 68.0403 17.2915 68.0592 17.2933 68.0813C17.2951 68.1035 17.2965 68.1301 17.2965 68.1603H15.2965ZM15.7073 67.3775L13.8023 68.7775L14.9867 70.3891L16.8917 68.989L15.7073 67.3775ZM14.9954 68.7839C14.7521 68.601 14.4735 68.4613 14.1658 68.378L13.6432 70.3085C13.6976 70.3232 13.747 70.3475 13.7936 70.3826L14.9954 68.7839ZM14.9045 69.3433V66.9893H12.9045V69.3433H14.9045ZM14.4007 67.8575C14.432 67.8396 14.459 67.8229 14.4794 67.8099L13.4057 66.1226C13.4041 66.1236 13.4051 66.1229 13.4084 66.121L14.4007 67.8575ZM14.6506 67.6723L16.0426 66.2763L14.6264 64.8642L13.2344 66.2602L14.6506 67.6723ZM16.0391 66.2799C16.5681 65.7547 16.5757 64.8915 16.0338 64.3614L14.6352 65.7911C14.3694 65.531 14.377 65.1118 14.63 64.8606L16.0391 66.2799ZM16.0442 64.3717C15.5157 63.8393 14.6595 63.8431 14.1334 64.3691L15.5476 65.7834C15.2955 66.0355 14.8814 66.0392 14.6248 65.7808L16.0442 64.3717ZM14.1334 64.3691L13.1974 65.3051L14.6116 66.7194L15.5476 65.7834L14.1334 64.3691ZM14.9045 66.0123V65.2643H12.9045V66.0123H14.9045ZM14.5247 66.0487C14.8565 65.7864 15.1575 65.3481 15.1575 64.7743H13.1575C13.1575 64.6064 13.2485 64.5081 13.2844 64.4798L14.5247 66.0487ZM15.1575 64.7743C15.1575 63.8841 14.4319 63.1513 13.5335 63.1513V65.1513C13.3232 65.1513 13.1575 64.9845 13.1575 64.7743H15.1575ZM13.5335 63.1513C12.6352 63.1513 11.9095 63.8841 11.9095 64.7743H13.9095C13.9095 64.9844 13.7439 65.1513 13.5335 65.1513V63.1513ZM11.9095 64.7743C11.9095 65.3423 12.2032 65.7832 12.5439 66.0508L13.7791 64.4778C13.8004 64.4945 13.8323 64.5258 13.8603 64.5778C13.89 64.633 13.9095 64.7016 13.9095 64.7743H11.9095ZM12.1615 65.2643V65.9933H14.1615V65.2643H12.1615ZM13.8679 65.2854L12.9459 64.3654L11.5332 65.7811L12.4552 66.7011L13.8679 65.2854ZM12.9492 64.3687C12.4207 63.8363 11.5635 63.8401 11.0374 64.3662L12.4516 65.7804C12.1995 66.0325 11.7864 66.0362 11.5298 65.7778L12.9492 64.3687ZM11.0452 64.3584C10.5034 64.8885 10.511 65.7517 11.04 66.2769L12.4491 64.8576C12.7021 65.1088 12.7097 65.528 12.4438 65.7881L11.0452 64.3584ZM11.0374 66.2744L12.4334 67.6704L13.8476 66.2562L12.4516 64.8601L11.0374 66.2744ZM12.5158 67.7441C12.535 67.7595 12.5514 67.7714 12.5624 67.7793C12.5733 67.7871 12.5823 67.7931 12.5863 67.7959C12.5889 67.7976 12.5947 67.8015 12.5917 67.7995C12.5911 67.799 12.5873 67.7965 12.5822 67.793C12.5602 67.7778 12.51 67.742 12.4544 67.6864L13.8686 66.2721C13.805 66.2086 13.7469 66.1667 13.7176 66.1465C13.7107 66.1418 13.7051 66.138 13.7028 66.1365C13.6981 66.1333 13.7023 66.1361 13.7032 66.1368C13.7052 66.1381 13.7325 66.1562 13.7652 66.1824L12.5158 67.7441ZM12.1615 66.9793V69.3463H14.1615V66.9793H12.1615ZM12.8917 68.3833C12.6011 68.4648 12.3035 68.6008 12.0346 68.8272L13.3225 70.3573C13.3315 70.3497 13.3579 70.3297 13.4314 70.3092L12.8917 68.3833ZM13.2689 68.7851L11.3699 67.3961L10.1892 69.0104L12.0882 70.3994L13.2689 68.7851ZM11.7795 68.2033C11.7795 68.2492 11.776 68.2854 11.7739 68.3035C11.7731 68.3105 11.7722 68.3171 11.7728 68.3121C11.7731 68.3105 11.7748 68.2971 11.7765 68.2812C11.7799 68.2477 11.7859 68.1776 11.779 68.0895C11.7717 67.9961 11.7515 67.9002 11.7159 67.8051L9.8432 68.5074C9.81056 68.4203 9.79186 68.3318 9.78511 68.2456C9.77877 68.1647 9.78438 68.1015 9.78709 68.0753C9.78836 68.063 9.78965 68.0533 9.78937 68.0555C9.78936 68.0556 9.78935 68.0557 9.78931 68.056C9.78928 68.0563 9.78922 68.0567 9.78917 68.0571C9.78905 68.058 9.78886 68.0595 9.78865 68.0612C9.78822 68.0645 9.78758 68.0697 9.78686 68.076C9.78385 68.1023 9.77953 68.1473 9.77953 68.2033H11.7795ZM11.7684 68.0072L11.4744 66.0562L9.49669 66.3543L9.79069 68.3053L11.7684 68.0072ZM11.4715 66.0383C11.3497 65.3192 10.6764 64.8178 9.94368 64.9198L10.2194 66.9007C9.8746 66.9487 9.55732 66.7133 9.49956 66.3722L11.4715 66.0383ZM9.92986 64.9218C9.18071 65.0368 8.69209 65.7405 8.80063 66.4628L10.7784 66.1657C10.829 66.502 10.6043 66.8417 10.2332 66.8987L9.92986 64.9218ZM8.80126 66.467L9.00326 67.774L10.9798 67.4685L10.7778 66.1615L8.80126 66.467ZM10.584 66.8157L9.97904 66.3707L8.79401 67.9818L9.39901 68.4268L10.584 66.8157ZM10.3864 67.1604C10.3792 66.7059 10.186 66.2089 9.72957 65.8762L8.55149 67.4924C8.49723 67.4528 8.45212 67.398 8.42286 67.3369C8.39498 67.2787 8.38721 67.2275 8.38665 67.1921L10.3864 67.1604ZM9.72677 65.8741C9.01182 65.3568 7.99979 65.501 7.46566 66.2305L9.07939 67.412C8.95526 67.5815 8.71924 67.6138 8.55428 67.4944L9.72677 65.8741ZM7.47357 66.2199C6.92507 66.9485 7.09493 67.971 7.81103 68.4991L8.99802 66.8894C9.15813 67.0075 9.20599 67.244 9.07148 67.4226L7.47357 66.2199ZM7.82804 68.5114C8.27075 68.8237 8.79475 68.8647 9.23038 68.7342L8.65668 66.8183C8.7383 66.7938 8.86431 66.7948 8.98101 66.8771L7.82804 68.5114ZM8.35293 68.5832L8.94593 69.0172L10.1271 67.4033L9.53412 66.9693L8.35293 68.5832ZM9.3851 67.2218L8.0991 67.4188L8.40195 69.3957L9.68795 69.1987L9.3851 67.2218ZM8.09964 67.4187C7.37133 67.5299 6.85723 68.206 6.96719 68.9529L8.94587 68.6616C8.99782 69.0145 8.74973 69.3426 8.40141 69.3958L8.09964 67.4187ZM6.9681 68.9589C7.07991 69.6876 7.76442 70.2032 8.50687 70.091L8.20818 68.1135C8.56663 68.0593 8.89115 68.3049 8.94496 68.6556L6.9681 68.9589ZM8.51115 70.0904L10.4601 69.7874L10.1529 67.8111L8.20391 68.1141L8.51115 70.0904ZM10.3065 69.7993C10.3904 69.7993 10.4623 69.7888 10.5179 69.777C10.546 69.771 10.5711 69.7644 10.5929 69.758C10.6146 69.7516 10.6338 69.7452 10.65 69.7394C10.6663 69.7336 10.6804 69.728 10.692 69.7233C10.7036 69.7186 10.7134 69.7143 10.7209 69.711C10.7283 69.7077 10.7344 69.7049 10.7382 69.7032C10.7418 69.7015 10.7449 69.7 10.745 69.7C10.7459 69.6995 10.7439 69.7005 10.7414 69.7017C10.7387 69.7029 10.7336 69.7053 10.7272 69.7081C10.7208 69.7109 10.712 69.7147 10.7015 69.719C10.691 69.7233 10.6779 69.7284 10.6627 69.7339C10.6475 69.7393 10.6294 69.7454 10.6087 69.7515C10.588 69.7576 10.5639 69.7639 10.5368 69.7697C10.4832 69.7811 10.4134 69.7913 10.3315 69.7913V67.7913C10.2476 67.7913 10.1758 67.8017 10.1201 67.8135C10.0921 67.8195 10.0669 67.8261 10.0452 67.8325C10.0235 67.8389 10.0043 67.8453 9.98802 67.8511C9.97177 67.8569 9.95763 67.8625 9.94606 67.8672C9.9345 67.8719 9.92468 67.8762 9.91718 67.8795C9.90972 67.8828 9.90364 67.8856 9.89983 67.8874C9.89628 67.889 9.89318 67.8905 9.89308 67.8905C9.89211 67.891 9.89416 67.89 9.89664 67.8888C9.89939 67.8876 9.90441 67.8853 9.91081 67.8824C9.91726 67.8796 9.92602 67.8758 9.93653 67.8715C9.94704 67.8672 9.96013 67.8621 9.97533 67.8566C9.99053 67.8512 10.0087 67.8451 10.0294 67.839C10.0501 67.8329 10.0742 67.8266 10.1012 67.8209C10.1548 67.8094 10.2246 67.7993 10.3065 67.7993V69.7993ZM9.73879 69.5966L11.6438 70.9986L12.8293 69.3879L10.9243 67.9859L9.73879 69.5966ZM11.2987 69.8461C11.2095 70.0871 11.1435 70.3675 11.1435 70.6833H13.1435C13.1435 70.651 13.1495 70.6074 13.1743 70.5404L11.2987 69.8461ZM11.1435 70.6833C11.1435 70.9955 11.2097 71.2783 11.3017 71.5205L13.1713 70.81C13.1493 70.7522 13.1435 70.711 13.1435 70.6833H11.1435ZM11.6438 70.3599L9.73879 71.7619L10.9243 73.3726L12.8293 71.9706L11.6438 70.3599ZM10.3315 71.5673C10.4847 71.5673 10.6002 71.6036 10.6516 71.6217C10.7073 71.6413 10.7475 71.6617 10.7537 71.6648L9.85931 73.4537C9.87357 73.4608 9.92229 73.4852 9.98642 73.5078C10.0463 73.529 10.1704 73.5673 10.3315 73.5673V71.5673ZM10.4582 71.5708L8.50917 71.2718L8.20589 73.2487L10.1549 73.5477L10.4582 71.5708ZM8.50764 71.2716C7.77681 71.1606 7.0798 71.6601 6.96763 72.4067L8.94543 72.7038C8.89125 73.0644 8.55624 73.3019 8.20741 73.2489L8.50764 71.2716ZM6.96689 72.4117C6.85888 73.1561 7.3743 73.8291 8.09964 73.9398L8.40141 71.9627C8.74675 72.0154 8.99817 72.3404 8.94617 72.6988L6.96689 72.4117ZM8.09611 73.9393L9.38211 74.1403L9.69095 72.1642L8.40495 71.9633L8.09611 73.9393ZM8.94949 72.3427L8.35649 72.7727L9.53056 74.3918L10.1236 73.9618L8.94949 72.3427ZM9.21033 72.6185C8.7953 72.5036 8.27209 72.5324 7.8214 72.8559L8.98765 74.4806C8.86296 74.5701 8.73776 74.5629 8.67673 74.546L9.21033 72.6185ZM7.80361 72.8689C7.09492 73.4017 6.93046 74.4043 7.4654 75.1356L9.07966 73.9549C9.20059 74.1202 9.15813 74.3528 9.00545 74.4676L7.80361 72.8689ZM7.47501 75.1485C8.00352 75.8472 9.00771 76.0133 9.73303 75.4798L8.54802 73.8687C8.72134 73.7412 8.95153 73.7853 9.07005 73.942L7.47501 75.1485ZM9.71663 75.4916C10.1901 75.1579 10.3794 74.6494 10.3864 74.1978L8.38665 74.1667C8.38712 74.1363 8.39372 74.0854 8.42286 74.0246C8.45367 73.9603 8.50276 73.9003 8.56442 73.8569L9.71663 75.4916ZM9.97557 74.9904L10.5806 74.5494L9.40249 72.9332L8.79749 73.3741L9.97557 74.9904ZM9.00326 73.5885L8.80126 74.8955L10.7778 75.201L10.9798 73.894L9.00326 73.5885ZM8.80109 74.8966C8.68935 75.6249 9.18839 76.3229 9.92986 76.4367L10.2332 74.4598C10.5967 74.5156 10.8317 74.8496 10.778 75.1999L8.80109 74.8966ZM9.94368 76.4387C10.6803 76.5412 11.3528 76.0359 11.4722 75.312L9.49886 74.9865C9.55426 74.6506 9.87071 74.4093 10.2194 74.4578L9.94368 76.4387ZM11.4743 75.2989L11.7683 73.3559L9.79078 73.0566L9.49678 74.9996L11.4743 75.2989ZM11.7159 73.5574C11.7964 73.3425 11.7845 73.1581 11.7765 73.0804C11.7736 73.0527 11.7675 73.0114 11.7707 73.034C11.771 73.036 11.7795 73.0916 11.7795 73.1633H9.77953C9.77953 73.2409 9.78883 73.3029 9.79005 73.3116C9.79415 73.3408 9.78919 73.3065 9.78709 73.2862C9.78054 73.2229 9.76863 73.054 9.8432 72.8551L11.7159 73.5574ZM11.3714 73.9693L13.2684 72.5763L12.0846 70.9642L10.1876 72.3572L11.3714 73.9693ZM12.0484 72.5484C12.3128 72.7617 12.6031 72.8929 12.8829 72.9744L13.4421 71.0541C13.3579 71.0296 13.3203 71.0048 13.3046 70.9921L12.0484 72.5484ZM12.1625 72.0143V74.3833H14.1625V72.0143H12.1625ZM12.4554 73.6761C12.5794 73.5522 12.7284 73.483 12.68 73.5089C12.6706 73.5139 12.5951 73.5528 12.513 73.6198C12.4182 73.6972 12.3201 73.8061 12.2471 73.952L14.036 74.8465C13.965 74.9884 13.8694 75.0943 13.7777 75.1692C13.6987 75.2337 13.6267 75.2706 13.6211 75.2736C13.5801 75.2955 13.7376 75.2224 13.8696 75.0904L12.4554 73.6761ZM12.4344 73.6921L11.0384 75.0882L12.4526 76.5024L13.8486 75.1064L12.4344 73.6921ZM11.041 75.0856C10.512 75.6108 10.5044 76.47 11.0462 77.0001L12.4448 75.5704C12.7107 75.8305 12.7031 76.2537 12.4501 76.5049L11.041 75.0856ZM11.0258 76.9795C11.555 77.5282 12.431 77.5282 12.9603 76.9795L11.5208 75.591C11.778 75.3243 12.208 75.3243 12.4653 75.591L11.0258 76.9795ZM12.9453 76.9947L13.8673 76.0787L12.4577 74.6598L11.5357 75.5758L12.9453 76.9947ZM12.1625 75.3693V76.1013H14.1625V75.3693H12.1625ZM12.5449 75.3148C12.2107 75.5772 11.9105 76.0123 11.9105 76.5873H13.9105C13.9105 76.6608 13.8905 76.7322 13.8589 76.7902C13.8294 76.8444 13.797 76.8745 13.7801 76.8878L12.5449 75.3148ZM11.9105 76.5873C11.9105 77.4856 12.6403 78.2103 13.5345 78.2103V76.2103C13.7407 76.2103 13.9105 76.3769 13.9105 76.5873H11.9105ZM13.5345 78.2103C14.4287 78.2103 15.1585 77.4856 15.1585 76.5873H13.1585C13.1585 76.3769 13.3283 76.2103 13.5345 76.2103V78.2103ZM15.1585 76.5873C15.1585 76.0066 14.851 75.5739 14.5257 75.3168L13.2854 76.8857C13.2707 76.8742 13.2398 76.8459 13.211 76.7933C13.1799 76.7367 13.1585 76.6644 13.1585 76.5873H15.1585ZM14.9055 76.1013V75.3533H12.9055V76.1013H14.9055ZM13.1999 76.0619L14.1359 76.9939L15.5471 75.5766L14.6111 74.6446L13.1999 76.0619ZM14.1192 76.9768C14.6508 77.5321 15.5259 77.5243 16.0527 76.9821L14.6183 75.5884C14.8711 75.3282 15.3022 75.3204 15.5638 75.5937L14.1192 76.9768ZM16.0348 77.0001C16.5752 76.4714 16.5714 75.6092 16.0375 75.083L14.6336 76.5075C14.3756 76.2533 14.3718 75.8291 14.6362 75.5704L16.0348 77.0001ZM16.0436 75.0892L14.6516 73.6932L13.2354 75.1053L14.6274 76.5013L16.0436 75.0892ZM14.5317 73.5905C14.4762 73.5501 14.416 73.5135 14.3527 73.4818L13.4583 75.2707C13.423 75.253 13.3889 75.2324 13.3554 75.208L14.5317 73.5905ZM14.9055 74.3763V72.0223H12.9055V74.3763H14.9055ZM14.1851 72.9824C14.4799 72.8965 14.7545 72.7607 14.9991 72.5756L13.792 70.9809C13.7486 71.0138 13.6952 71.042 13.6259 71.0621L14.1851 72.9824ZM13.8033 72.5841L15.7083 73.9841L16.8927 72.3725L14.9877 70.9725L13.8033 72.5841ZM15.3005 73.1783C15.3005 73.1587 15.3011 73.1388 15.3024 73.1184C15.3038 73.098 15.3057 73.0788 15.3079 73.0611C15.3101 73.0435 15.3125 73.0289 15.3143 73.0183C15.3152 73.0131 15.3159 73.009 15.3165 73.0063C15.3167 73.0049 15.3169 73.0038 15.317 73.0032C15.3171 73.0028 15.3172 73.0025 15.3172 73.0024C15.3172 73.0023 15.3172 73.0022 15.3172 73.0022C15.3172 73.0021 15.3172 73.0021 15.3172 73.0021C15.3172 73.0021 15.3172 73.0021 15.3172 73.0021C15.3174 73.0015 15.3169 73.004 15.3164 73.0063C15.3159 73.009 15.3151 73.0135 15.3141 73.0189C15.3121 73.03 15.3094 73.0462 15.3068 73.0659C15.3041 73.0859 15.3017 73.1081 15.3 73.1324C15.2984 73.1566 15.2975 73.1809 15.2975 73.2053H17.2975C17.2975 73.2269 17.2968 73.2486 17.2953 73.2705C17.2938 73.2923 17.2916 73.3124 17.2892 73.3303C17.2869 73.3478 17.2845 73.3621 17.2828 73.3712C17.282 73.3756 17.2814 73.3791 17.2811 73.3808C17.2808 73.3822 17.2805 73.3837 17.2808 73.3822C17.281 73.3811 17.2829 73.3716 17.2849 73.36C17.2871 73.3475 17.2897 73.3307 17.2922 73.3109C17.2947 73.2909 17.2969 73.2694 17.2983 73.2464C17.2998 73.2235 17.3005 73.2008 17.3005 73.1783H15.3005ZM15.3091 73.357L15.6081 75.304L17.5849 75.0005L17.2859 73.0535L15.3091 73.357ZM15.6114 75.3243C15.7334 76.0229 16.3883 76.543 17.1355 76.4374L16.8556 74.4571C17.2207 74.4055 17.5256 74.6596 17.5816 74.9803L15.6114 75.3243ZM17.1426 76.4364C17.8917 76.325 18.3947 75.6247 18.2782 74.8905L16.3029 75.204C16.2463 74.8478 16.4894 74.5115 16.8484 74.4581L17.1426 76.4364ZM18.2789 74.8955L18.0819 73.6125L16.1051 73.916L16.3021 75.199L18.2789 74.8955ZM16.4994 74.5686L17.0924 75.0066L18.2807 73.3979L17.6877 72.9599L16.4994 74.5686ZM16.6865 74.2023C16.6865 74.6685 16.8922 75.1713 17.343 75.4969L18.514 73.8756C18.6409 73.9672 18.6865 74.1 18.6865 74.2023H16.6865ZM17.3313 75.4883C18.0614 76.032 19.0773 75.8605 19.6024 75.1535L17.9967 73.961C18.1178 73.798 18.3517 73.7546 18.5258 73.8842L17.3313 75.4883ZM19.6094 75.1439C20.135 74.4183 19.9815 73.417 19.2684 72.8809L18.0666 74.4796C17.9096 74.3615 17.8741 74.1302 17.9897 73.9706L19.6094 75.1439ZM19.2659 72.8791C18.7968 72.5286 18.2549 72.5183 17.8451 72.639L18.41 74.5575C18.3839 74.5652 18.3377 74.5738 18.2753 74.5656C18.2086 74.557 18.1345 74.5302 18.0691 74.4814L19.2659 72.8791ZM18.7209 72.7933L18.1199 72.3503L16.9332 73.9602L17.5342 74.4032L18.7209 72.7933ZM17.6801 74.1434L18.9861 73.9404L18.6789 71.9641L17.3729 72.1671L17.6801 74.1434ZM18.985 73.9406C19.7054 73.8294 20.226 73.1571 20.1134 72.4077L18.1356 72.7048C18.081 72.3414 18.3357 72.0171 18.6801 71.9639L18.985 73.9406ZM20.1117 72.3969C19.993 71.6615 19.3053 71.1639 18.5732 71.2745L18.8719 73.252C18.5237 73.3046 18.194 73.067 18.1373 72.7156L20.1117 72.3969ZM71.6422 55.1766C71.5183 53.8454 70.7575 52.7596 70.1716 51.8444C69.5497 50.8727 68.9698 49.9008 68.7354 48.5672L66.7656 48.9133C67.0732 50.6637 67.8449 51.9193 68.4872 52.9226C69.1656 53.9824 69.5817 54.6191 69.6508 55.3619L71.6422 55.1766ZM67.7505 47.7403H67.7465V49.7403H67.7505V47.7403ZM66.7618 48.5662C66.5261 49.9001 65.9452 50.8722 65.3225 51.844C64.736 52.7594 63.9747 53.8452 63.8508 55.1766L65.8422 55.3619C65.9113 54.6193 66.3276 53.9826 67.0065 52.923C67.6493 51.9198 68.422 50.6644 68.7313 48.9143L66.7618 48.5662ZM63.8506 55.1789C63.6211 57.709 65.5478 59.5359 67.7437 59.5333L67.7413 57.5333C66.6692 57.5346 65.724 56.6655 65.8424 55.3596L63.8506 55.1789ZM67.7474 59.5332C69.9273 59.5226 71.8769 57.7193 71.6423 55.1774L69.6508 55.3611C69.7702 56.6552 68.8257 57.5279 67.7376 57.5333L67.7474 59.5332ZM76.0912 71.1298C75.9674 69.7961 75.2055 68.7103 74.6186 67.795C73.9957 66.8236 73.4152 65.8523 73.1804 64.518L71.2107 64.8645C71.5189 66.6162 72.2918 67.8714 72.935 68.8745C73.6141 69.9337 74.0307 70.5704 74.0998 71.3147L76.0912 71.1298ZM72.1955 63.6913H72.1915V65.6913H72.1955V63.6913ZM71.2068 64.5173C70.971 65.8523 70.3906 66.824 69.7686 67.7956C69.1823 68.7114 68.4223 69.797 68.2997 71.1307L70.2913 71.3138C70.3597 70.5695 70.7752 69.9326 71.453 68.8739C72.095 67.871 72.8671 66.6162 73.1763 64.8652L71.2068 64.5173ZM68.2998 71.1298C68.0647 73.6627 69.9983 75.4896 72.191 75.4842L72.1861 73.4843C71.1167 73.4869 70.1703 72.6178 70.2912 71.3147L68.2998 71.1298ZM72.191 75.4842C74.3766 75.4789 76.3258 73.6716 76.0913 71.1304L74.0998 71.3141C74.2192 72.6089 73.2745 73.4816 72.1861 73.4843L72.191 75.4842ZM65.1733 65.8681C65.0395 64.4227 64.2132 63.2432 63.5574 62.2196C62.8654 61.1397 62.2096 60.0435 61.9433 58.5345L59.9737 58.882C60.3134 60.807 61.1606 62.1863 61.8734 63.2986C62.6223 64.4673 63.1026 65.1968 63.1818 66.0524L65.1733 65.8681ZM60.9585 57.7083H60.9545V59.7083H60.9585V57.7083ZM59.9696 58.535C59.7042 60.0441 59.0493 61.1403 58.3583 62.2202C57.7034 63.2438 56.8783 64.4234 56.7457 65.8689L58.7373 66.0516C58.8158 65.1961 59.2952 64.4667 60.043 63.2981C60.7548 62.1857 61.6008 60.8064 61.9394 58.8815L59.9696 58.535ZM56.7459 65.8663C56.487 68.6113 58.5766 70.5957 60.9589 70.5852L60.9501 68.5853C59.6984 68.5908 58.594 67.5712 58.7371 66.0542L56.7459 65.8663ZM60.9589 70.5852C63.3199 70.5748 65.4253 68.6219 65.1734 65.8691L63.1817 66.0514C63.3198 67.5606 62.2152 68.5797 60.9501 68.5853L60.9589 70.5852ZM82.8194 58.8039C82.6766 57.2292 81.778 55.9438 81.0441 54.8004C80.274 53.6005 79.5353 52.372 79.2362 50.6811L77.2668 51.0294C77.6397 53.1376 78.5711 54.65 79.361 55.8807C80.187 57.1677 80.7385 58.0023 80.8276 58.9846L82.8194 58.8039ZM78.2515 49.8553H78.2475V51.8553H78.2515V49.8553ZM77.2626 50.6821C76.9654 52.3728 76.2282 53.6012 75.459 54.8007C74.7259 55.944 73.8277 57.2291 73.6837 58.8031L75.6754 58.9854C75.7653 58.0024 76.3172 57.1675 77.1426 55.8803C77.9319 54.6493 78.8617 53.1367 79.2324 51.0284L77.2626 50.6821ZM73.6838 58.8019C73.4078 61.7772 75.6728 63.9206 78.25 63.9143L78.245 61.9143C76.7922 61.9179 75.5132 60.7333 75.6753 58.9866L73.6838 58.8019ZM78.252 63.9142C80.8138 63.9028 83.0935 61.7859 82.8193 58.8027L80.8277 58.9858C80.9875 60.7246 79.7092 61.9077 78.2431 61.9143L78.252 63.9142ZM17.0984 49.8119L13.9804 50.2919L14.2847 52.2686L17.4027 51.7886L17.0984 49.8119ZM14.1325 50.2803C13.9507 50.2803 13.8112 50.326 13.7352 50.3557C13.711 50.3651 13.6775 50.3797 13.6914 50.3738C13.6941 50.3726 13.7178 50.3624 13.7503 50.3516L14.3828 52.2489C14.4273 52.2341 14.462 52.2194 14.4753 52.2137C14.4786 52.2123 14.4816 52.211 14.4827 52.2106C14.4843 52.2098 14.4839 52.21 14.4832 52.2103C14.4817 52.211 14.4736 52.2144 14.4623 52.2188C14.4391 52.2279 14.3942 52.2443 14.3351 52.2577C14.2736 52.2716 14.2055 52.2803 14.1325 52.2803V50.2803ZM14.6582 50.4941L11.6212 48.2651L10.4378 49.8774L13.4748 52.1064L14.6582 50.4941ZM11.9585 49.4413C12.0991 49.0884 12.1865 48.6911 12.1865 48.2663H10.1865C10.1865 48.4154 10.1559 48.5621 10.1005 48.7012L11.9585 49.4413ZM12.1865 48.2663C12.1865 47.8461 12.0978 47.452 11.9625 47.1013L10.0966 47.8212C10.1572 47.9785 10.1865 48.1284 10.1865 48.2663H12.1865ZM11.6213 48.2674L13.4523 46.9234L12.2688 45.3111L10.4378 46.6551L11.6213 48.2674ZM13.1886 45.1726C12.7501 45.0203 12.3279 44.8604 11.9301 44.6911L11.147 46.5314C11.5951 46.7221 12.0609 46.8982 12.5325 47.0619L13.1886 45.1726ZM10.948 44.8043L9.72497 45.6993L10.9061 47.3132L12.1291 46.4182L10.948 44.8043ZM10.9172 45.7075C10.5964 45.4659 10.2143 45.2638 9.77958 45.1525L9.28347 47.09C9.42675 47.1267 9.57263 47.1986 9.71387 47.305L10.9172 45.7075ZM10.5315 46.1213V44.5643H8.53153V46.1213H10.5315ZM10.0577 43.7139C9.65811 43.4666 9.28841 43.2203 8.94424 42.9603L7.73881 44.5562C8.14664 44.8643 8.57095 45.1459 9.00538 45.4147L10.0577 43.7139ZM7.34153 43.7583V46.1283H9.34153V43.7583H7.34153ZM8.08179 45.1626C7.64956 45.2788 7.26763 45.4825 6.94141 45.7437L8.19164 47.3048C8.31743 47.204 8.4535 47.1337 8.60126 47.0939L8.08179 45.1626ZM8.15801 45.7179L5.11801 43.4879L3.93505 45.1006L6.97505 47.3306L8.15801 45.7179ZM5.52653 44.2943C5.52653 44.3204 5.52518 44.3406 5.52448 44.3497C5.5242 44.3535 5.52395 44.3561 5.52423 44.353C5.52433 44.3518 5.52515 44.3428 5.52589 44.3333C5.52894 44.2941 5.53923 44.1626 5.50266 44.0016L3.55239 44.4449C3.52082 44.306 3.53061 44.1949 3.53191 44.1782C3.53222 44.1743 3.53252 44.171 3.53209 44.1758C3.53184 44.1786 3.53106 44.1873 3.53029 44.1975C3.52862 44.2193 3.52653 44.2531 3.52653 44.2943H5.52653ZM5.51616 44.0729L5.04116 40.9489L3.06389 41.2496L3.53889 44.3736L5.51616 44.0729ZM5.04075 40.9462C4.9075 40.0857 4.109 39.5146 3.26596 39.6378L3.5551 41.6167C3.32806 41.6499 3.10156 41.4929 3.0643 41.2523L5.04075 40.9462ZM3.2655 39.6378C2.39984 39.7647 1.82332 40.5716 1.95183 41.4192L3.92923 41.1194C3.96373 41.3469 3.80722 41.5798 3.55556 41.6167L3.2655 39.6378ZM1.95213 41.4211L2.27313 43.5101L4.24993 43.2064L3.92893 41.1174L1.95213 41.4211ZM3.85119 42.5506L2.88419 41.8446L1.70487 43.4599L2.67187 44.1659L3.85119 42.5506ZM3.29439 42.6358C3.28496 42.0645 3.04209 41.4645 2.49809 41.0622L1.30896 42.6703C1.30818 42.6697 1.30503 42.6672 1.3012 42.6625C1.29746 42.6579 1.29486 42.6536 1.29335 42.6504C1.29034 42.6441 1.29433 42.6488 1.29466 42.6688L3.29439 42.6358ZM2.49441 41.0595C1.60307 40.4067 0.357313 40.6103 -0.292384 41.4885L1.31544 42.678C1.31588 42.6774 1.31618 42.6771 1.31633 42.6769C1.31641 42.6768 1.31647 42.6768 1.3165 42.6767C1.31651 42.6767 1.31652 42.6767 1.31653 42.6767C1.31654 42.6767 1.31654 42.6767 1.31654 42.6767C1.31654 42.6767 1.31654 42.6767 1.31654 42.6767C1.31653 42.6767 1.31652 42.6767 1.31652 42.6767C1.3165 42.6767 1.31649 42.6767 1.31647 42.6767C1.31644 42.6768 1.31643 42.6768 1.31646 42.6767C1.3167 42.6766 1.3177 42.6761 1.31916 42.6759C1.32061 42.6757 1.32051 42.676 1.31862 42.6756C1.3176 42.6753 1.31631 42.6749 1.31496 42.6743C1.31431 42.674 1.31375 42.6737 1.3133 42.6734C1.31286 42.6732 1.31263 42.673 1.31264 42.673L2.49441 41.0595ZM-0.292574 41.4888C-0.953361 42.3825 -0.753701 43.6318 0.130825 44.2827L1.31623 42.6718C1.31512 42.671 1.31494 42.6707 1.31522 42.671C1.31547 42.6713 1.31577 42.6717 1.31602 42.6721C1.31626 42.6725 1.31636 42.6728 1.3164 42.6729C1.31642 42.6729 1.31642 42.673 1.31642 42.673C1.31642 42.673 1.31642 42.673 1.31642 42.673C1.31642 42.673 1.31642 42.673 1.31642 42.673C1.31642 42.673 1.31643 42.673 1.31643 42.6731C1.31644 42.6732 1.31644 42.6733 1.31643 42.6735C1.31642 42.6739 1.31635 42.6747 1.31612 42.6756C1.31589 42.6766 1.31556 42.6775 1.31523 42.6782C1.31487 42.679 1.31482 42.6788 1.31563 42.6777L-0.292574 41.4888ZM0.129484 44.2817C0.671562 44.682 1.32925 44.7429 1.88243 44.5734L1.29662 42.6611C1.29402 42.6619 1.292 42.6622 1.29098 42.6623C1.29001 42.6624 1.29077 42.6622 1.29326 42.6626C1.29588 42.6629 1.29999 42.6639 1.30499 42.6659C1.31016 42.668 1.31454 42.6706 1.31757 42.6728L0.129484 44.2817ZM0.998828 44.4241L1.94683 45.1181L3.12823 43.5044L2.18023 42.8104L0.998828 44.4241ZM2.38745 43.3226L0.325452 43.6356L0.625602 45.6129L2.6876 45.2999L2.38745 43.3226ZM0.322737 43.636C-0.528319 43.7676 -1.11167 44.5658 -0.982102 45.4176L0.995156 45.1169C1.03073 45.3507 0.871373 45.5749 0.628317 45.6125L0.322737 43.636ZM-0.981469 45.4217C-0.848505 46.2721 -0.0524016 46.856 0.798317 46.7245L0.492737 44.748C0.735456 44.7105 0.957559 44.8764 0.994524 45.1128L-0.981469 45.4217ZM0.796467 46.7248L3.92047 46.2478L3.61859 44.2707L0.494587 44.7477L0.796467 46.7248ZM3.76953 46.2593C3.93203 46.2593 4.06307 46.2208 4.15026 46.186C4.23181 46.1536 4.29156 46.1173 4.3073 46.1078C4.31345 46.1041 4.32657 46.096 4.31948 46.1003C4.31808 46.1012 4.30664 46.1083 4.29119 46.117C4.26302 46.1329 4.18902 46.1731 4.08525 46.2028L3.53581 44.2797C3.42503 44.3114 3.34428 44.3549 3.30946 44.3745C3.29068 44.3851 3.27593 44.3942 3.27123 44.3971C3.26084 44.4035 3.27067 44.3974 3.2735 44.3957C3.28262 44.3902 3.33568 44.3577 3.41032 44.328C3.49061 44.296 3.61453 44.2593 3.76953 44.2593V46.2593ZM3.21722 46.0462L6.26722 48.2942L7.45383 46.6843L4.40383 44.4363L3.21722 46.0462ZM5.9242 47.1381C5.79832 47.4738 5.71453 47.8548 5.71453 48.2663H7.71453C7.71453 48.1277 7.74274 47.9847 7.79686 47.8404L5.9242 47.1381ZM5.71453 48.2663C5.71453 48.6783 5.79858 49.0579 5.92232 49.3933L7.79874 48.7012C7.74248 48.5487 7.71453 48.4042 7.71453 48.2663H5.71453ZM6.2679 48.2418L3.2179 50.4858L4.40315 52.0967L7.45315 49.8527L6.2679 48.2418ZM4.10461 50.3355C4.14632 50.3483 4.17733 50.3612 4.18007 50.3624C4.19498 50.3685 4.16504 50.356 4.14424 50.3482C4.08551 50.326 3.94941 50.2793 3.76953 50.2793V52.2793C3.60564 52.2793 3.48355 52.2365 3.43807 52.2193C3.42389 52.214 3.40039 52.2043 3.42171 52.213C3.43085 52.2168 3.46824 52.2322 3.51644 52.247L4.10461 50.3355ZM3.92139 50.2909L0.797394 49.8109L0.49366 51.7877L3.61766 52.2677L3.92139 50.2909ZM0.817279 49.8141C-0.0781209 49.658 -0.853056 50.3018 -0.981314 51.1168L0.994369 51.4277C0.96211 51.6327 0.761175 51.8345 0.473776 51.7844L0.817279 49.8141ZM-0.981956 51.1209C-1.11203 51.9706 -0.525611 52.7809 0.341436 52.8982L0.609619 50.9163C0.870665 50.9516 1.03109 51.1879 0.99501 51.4236L-0.981956 51.1209ZM0.324045 52.8957L2.38605 53.2117L2.68901 51.2348L0.627009 50.9188L0.324045 52.8957ZM1.94627 51.4168L0.998274 52.1118L2.18078 53.7247L3.12878 53.0297L1.94627 51.4168ZM1.85437 51.954C1.33491 51.8113 0.684798 51.849 0.133511 52.2519L1.31354 53.8666C1.30846 53.8704 1.30261 53.8735 1.29709 53.8757C1.29183 53.8778 1.28888 53.8782 1.28918 53.8782C1.28966 53.8781 1.29326 53.8777 1.29995 53.8781C1.30671 53.8786 1.3152 53.8799 1.32469 53.8825L1.85437 51.954ZM0.134058 52.2515C-0.758511 52.9028 -0.951004 54.1592 -0.292574 55.0497L1.31563 53.8608C1.31496 53.8599 1.31501 53.8598 1.31532 53.8604C1.3156 53.861 1.31584 53.8617 1.31599 53.8624C1.31626 53.8635 1.31608 53.8636 1.31619 53.8629C1.3163 53.8621 1.31643 53.8625 1.31563 53.8638C1.31519 53.8645 1.31459 53.8654 1.31386 53.8662C1.31309 53.867 1.31266 53.8673 1.313 53.867L0.134058 52.2515ZM-0.291739 55.0509C0.361348 55.9316 1.60882 56.1262 2.49823 55.4717L1.31282 53.8608C1.31216 53.8613 1.31228 53.8612 1.3131 53.8608C1.31386 53.8604 1.31467 53.8601 1.31537 53.86C1.31662 53.8597 1.31657 53.8599 1.31543 53.8598C1.31428 53.8596 1.31384 53.8593 1.31425 53.8595C1.31453 53.8597 1.31489 53.8599 1.31521 53.8602C1.31558 53.8605 1.31543 53.8605 1.31479 53.8596L-0.291739 55.0509ZM2.49 55.4777C3.04859 55.0753 3.28709 54.4617 3.29639 53.8978L1.29666 53.8648C1.29632 53.8855 1.292 53.8915 1.29488 53.8855C1.29646 53.8821 1.29963 53.8766 1.30494 53.8702C1.31038 53.8636 1.31621 53.8583 1.32106 53.8548L2.49 55.4777ZM2.88782 54.6877L3.85482 53.9787L2.67224 52.3658L1.70524 53.0748L2.88782 54.6877ZM2.2751 53.0206L1.9541 55.1126L3.93096 55.4159L4.25196 53.3239L2.2751 53.0206ZM1.95357 55.1161C1.82639 55.9648 2.40641 56.7589 3.25441 56.8947L3.57064 54.9198C3.80665 54.9576 3.96666 55.1777 3.93149 55.4124L1.95357 55.1161ZM3.28057 56.8985C4.11628 57.0098 4.90771 56.4398 5.04221 55.5907L3.06684 55.2778C3.10535 55.0347 3.32477 54.8868 3.54448 54.916L3.28057 56.8985ZM5.04313 55.5848L5.51813 52.4658L3.54093 52.1647L3.06593 55.2837L5.04313 55.5848ZM5.51281 52.4973C5.53778 52.3625 5.53184 52.2531 5.52814 52.2035C5.52727 52.1919 5.52639 52.1821 5.52602 52.1781C5.52543 52.1716 5.52569 52.1745 5.52582 52.176C5.52621 52.1806 5.52853 52.2074 5.52853 52.2433H3.52853C3.52853 52.2907 3.5316 52.3288 3.53295 52.3448C3.53333 52.3492 3.53366 52.3529 3.53388 52.3553C3.53399 52.3566 3.5341 52.3577 3.53416 52.3584C3.53424 52.3592 3.53427 52.3596 3.53431 52.36C3.53447 52.3617 3.53409 52.3578 3.53366 52.352C3.53172 52.3259 3.52628 52.241 3.54625 52.1332L5.51281 52.4973ZM5.1206 53.0491L8.1586 50.8171L6.97445 49.2054L3.93645 51.4374L5.1206 53.0491ZM6.93931 50.7901C7.27002 51.0564 7.6554 51.2577 8.08379 51.3729L8.60326 49.4416C8.45165 49.4008 8.31504 49.3301 8.19374 49.2324L6.93931 50.7901ZM7.34353 50.4073V54.2003H9.34353V50.4073H7.34353ZM7.60637 53.5245C7.66742 53.4579 7.73239 53.406 7.79437 53.3661C7.85182 53.3292 7.90001 53.3073 7.91124 53.3022C7.91423 53.3008 7.91654 53.2998 7.9158 53.3001C7.91574 53.3002 7.91569 53.3002 7.91557 53.3002C7.91548 53.3003 7.91533 53.3003 7.91518 53.3004C7.91486 53.3005 7.91439 53.3008 7.91385 53.301C7.91277 53.3015 7.91109 53.3022 7.90908 53.3031C7.90167 53.3065 7.88429 53.3145 7.86291 53.3254C7.81752 53.3486 7.74969 53.3872 7.67629 53.4473L8.94276 54.9952C8.87486 55.0508 8.81266 55.0861 8.77295 55.1063C8.75442 55.1158 8.7399 55.1224 8.73536 55.1245C8.73326 55.1254 8.73128 55.1263 8.73295 55.1256C8.73364 55.1253 8.73738 55.1236 8.74181 55.1216C8.75879 55.1138 8.81273 55.0891 8.87587 55.0485C8.94354 55.005 9.01413 54.9486 9.08068 54.876L7.60637 53.5245ZM7.6021 53.5145L5.3681 55.7505L6.78295 57.164L9.01695 54.928L7.6021 53.5145ZM5.37164 55.7469C4.76333 56.3497 4.74387 57.3574 5.38497 57.9695L6.76608 56.523C6.96519 56.7131 6.94572 57.0028 6.77941 57.1676L5.37164 55.7469ZM5.35885 57.9437C5.972 58.5738 6.97118 58.5643 7.57981 57.9502L6.15924 56.5423C6.32587 56.3742 6.61305 56.3647 6.79221 56.5489L5.35885 57.9437ZM7.57543 57.9546L9.04943 56.4856L7.63762 55.0689L6.16362 56.5379L7.57543 57.9546ZM7.34353 55.7773V56.9513H9.34353V55.7773H7.34353ZM7.73608 56.1569C7.29199 56.4965 6.94153 57.0482 6.94153 57.7303H8.94153C8.94153 57.7352 8.94082 57.7417 8.93908 57.7484C8.9374 57.7549 8.93537 57.7593 8.93428 57.7614C8.93329 57.7632 8.93354 57.7622 8.93627 57.7591C8.93905 57.7559 8.94382 57.7511 8.95098 57.7456L7.73608 56.1569ZM6.94153 57.7303C6.94153 58.8441 7.84279 59.7263 8.94153 59.7263V57.7263C8.93901 57.7263 8.93778 57.726 8.93754 57.726C8.93725 57.7259 8.93733 57.7259 8.9376 57.726C8.93807 57.7262 8.93845 57.7265 8.9388 57.7268C8.93918 57.7272 8.94007 57.7282 8.94088 57.7302C8.94129 57.7311 8.94152 57.7319 8.94161 57.7324C8.94172 57.7329 8.94153 57.7323 8.94153 57.7303H6.94153ZM8.94153 59.7263C10.0418 59.7263 10.9365 58.8395 10.9365 57.7303H8.93653C8.93653 57.7326 8.9363 57.7335 8.93636 57.7333C8.9364 57.7331 8.93655 57.7325 8.93688 57.7317C8.93755 57.7301 8.93834 57.7291 8.93891 57.7285C8.93945 57.728 8.94033 57.7273 8.94173 57.7267C8.94246 57.7264 8.94309 57.7262 8.94343 57.7262C8.94383 57.7261 8.9433 57.7263 8.94153 57.7263V59.7263ZM10.9365 57.7303C10.9365 57.0544 10.5942 56.4958 10.1325 56.1505L8.93459 57.752C8.94623 57.7608 8.94697 57.7651 8.94389 57.7593C8.94227 57.7563 8.9402 57.7515 8.93863 57.7454C8.93701 57.739 8.93653 57.7336 8.93653 57.7303H10.9365ZM10.5335 56.9513V55.7543H8.53353V56.9513H10.5335ZM8.82831 56.4632L10.3283 57.9552L11.7387 56.5373L10.2387 55.0453L8.82831 56.4632ZM10.312 57.9387C10.9241 58.5765 11.9327 58.5644 12.539 57.9469L11.112 56.5456C11.2804 56.3742 11.571 56.362 11.755 56.5539L10.312 57.9387ZM12.5161 57.9695C13.1572 57.3574 13.1377 56.3497 12.5294 55.7469L11.1216 57.1676C10.9553 57.0028 10.9359 56.7131 11.135 56.523L12.5161 57.9695ZM12.5334 55.7509L10.3024 53.5149L8.88663 54.9276L11.1176 57.1636L12.5334 55.7509ZM10.2302 53.4493C10.127 53.3643 10.0293 53.3173 10.0044 53.3052C9.99666 53.3014 9.98974 53.2982 9.98751 53.2971C9.9839 53.2954 9.98517 53.296 9.98687 53.2968C9.99062 53.2986 10.008 53.307 10.0307 53.32L9.03839 55.0565C9.07159 55.0755 9.09956 55.0893 9.11388 55.0962C9.12085 55.0996 9.12738 55.1027 9.129 55.1035C9.132 55.1049 9.13027 55.1041 9.12766 55.1028C9.12277 55.1004 9.10146 55.09 9.07395 55.0738C9.04543 55.0571 9.00447 55.0308 8.95882 54.9932L10.2302 53.4493ZM10.5345 54.1883V50.4153H8.53453V54.1883H10.5345ZM9.7951 51.3807C10.2148 51.2674 10.5953 51.0743 10.9272 50.8196L9.70981 49.2329C9.57772 49.3342 9.43226 49.4071 9.27395 49.4498L9.7951 51.3807ZM9.72598 50.8318L12.782 53.0798L13.9671 51.4687L10.9111 49.2207L9.72598 50.8318ZM12.3745 52.2743C12.3745 52.2458 12.3758 52.2185 12.3781 52.1925C12.3803 52.1666 12.3834 52.1442 12.3862 52.1262C12.389 52.1088 12.3917 52.0954 12.3929 52.0895C12.3932 52.0879 12.3934 52.0867 12.3936 52.0859C12.3938 52.0851 12.3939 52.0846 12.3939 52.0845C12.3941 52.0836 12.3934 52.0866 12.393 52.0886C12.3907 52.0999 12.3837 52.1334 12.3783 52.1763C12.3756 52.1978 12.3733 52.2205 12.3718 52.2444C12.3703 52.2681 12.3695 52.2918 12.3695 52.3153H14.3695C14.3695 52.3337 14.3689 52.3528 14.3677 52.3723C14.3664 52.3919 14.3646 52.4106 14.3623 52.4285C14.3578 52.464 14.3521 52.4911 14.351 52.4964C14.3509 52.4969 14.3506 52.4985 14.3511 52.496C14.3514 52.4947 14.3521 52.4911 14.353 52.4867C14.3548 52.4779 14.358 52.4617 14.3613 52.4413C14.3646 52.4204 14.368 52.3949 14.3705 52.3659C14.3731 52.3368 14.3745 52.3062 14.3745 52.2743H12.3745ZM12.3811 52.467L12.8601 55.586L14.8369 55.2825L14.3579 52.1635L12.3811 52.467ZM12.8608 55.5907C12.9943 56.4332 13.7796 57.0115 14.6192 56.8983L14.3519 54.9162C14.5835 54.885 14.7988 55.0413 14.8362 55.2778L12.8608 55.5907ZM14.6407 56.8951C15.4928 56.7613 16.0806 55.9674 15.9465 55.1098L13.9705 55.4187C13.9324 55.1751 14.1023 54.9552 14.3304 54.9194L14.6407 56.8951ZM15.947 55.113L15.632 53.054L13.655 53.3565L13.97 55.4155L15.947 55.113ZM14.0501 54.0101L14.9981 54.7091L16.185 53.0994L15.237 52.4004L14.0501 54.0101ZM14.5915 53.911C14.5954 54.4738 14.8349 55.0917 15.392 55.4952L16.565 53.8753C16.5706 53.8793 16.5765 53.8848 16.5818 53.8913C16.5869 53.8975 16.59 53.9029 16.5915 53.9062C16.5942 53.9118 16.5916 53.9089 16.5915 53.8975L14.5915 53.911ZM15.3861 55.4909C16.2776 56.1465 17.5245 55.951 18.1771 55.0762L16.574 53.8803C16.5739 53.8804 16.5748 53.8795 16.5755 53.8791C16.5757 53.879 16.5747 53.8795 16.5729 53.8798C16.5711 53.8801 16.5703 53.8798 16.5708 53.88C16.5712 53.88 16.5716 53.8802 16.572 53.8804C16.5724 53.8806 16.5721 53.8805 16.571 53.8797L15.3861 55.4909ZM18.1863 55.0635C18.8338 54.1666 18.6404 52.9374 17.7655 52.2778L16.5615 53.8747C16.5648 53.8772 16.5667 53.8791 16.5676 53.8801C16.5685 53.8812 16.569 53.8819 16.5692 53.8823C16.5696 53.883 16.5697 53.8834 16.5697 53.8836C16.5698 53.8838 16.5698 53.8838 16.5697 53.884C16.5697 53.8841 16.5695 53.8847 16.569 53.8859C16.5685 53.887 16.5673 53.8894 16.5647 53.893L18.1863 55.0635ZM17.7635 52.2763C17.2061 51.8582 16.5421 51.8197 16.0034 51.9855L16.5916 53.897C16.6075 53.8921 16.6121 53.8944 16.6041 53.8933C16.5997 53.8927 16.5928 53.8912 16.5844 53.8878C16.5759 53.8844 16.5686 53.8801 16.5635 53.8763L17.7635 52.2763ZM16.8903 52.1359L15.9243 51.4249L14.7388 53.0356L15.7048 53.7466L16.8903 52.1359ZM15.4846 53.2185L17.5757 52.8945L17.2694 50.918L15.1784 51.242L15.4846 53.2185ZM17.5553 52.8974C18.4228 52.7812 19.0153 51.9723 18.8815 51.1168L16.9055 51.4257C16.8678 51.1842 17.0342 50.9493 17.2897 50.9151L17.5553 52.8974ZM18.8817 51.118C18.7519 50.2812 17.9629 49.6748 17.0939 49.8126L17.4071 51.7879C17.1562 51.8277 16.9411 51.6553 16.9053 51.4245L18.8817 51.118ZM73.8292 30.3524C73.6613 27.9191 72.009 22.7664 66.6803 19.412L65.6148 21.1045C70.31 24.0601 71.7018 28.5754 71.8339 30.4901L73.8292 30.3524ZM66.6795 19.4115C60.7896 15.7108 55.2565 15.5567 50.0242 17.2224L50.6309 19.1281C55.3626 17.6218 60.2754 17.7497 65.6155 21.105L66.6795 19.4115ZM51.259 17.8115C48.5859 10.9666 41.1982 4.51774 30.3423 5.93264L30.6008 7.91587C40.4148 6.63676 47.0071 12.4219 49.396 18.539L51.259 17.8115ZM30.3425 5.93261C19.7471 7.31123 13.9155 16.4063 13.9155 23.7993H15.9155C15.9155 17.3022 21.1059 9.15128 30.6006 7.9159L30.3425 5.93261ZM14.6474 22.8359C11.5218 23.7058 9.00107 25.1945 7.25739 27.2319C5.50585 29.2786 4.58653 31.8243 4.58653 34.7033H6.58653C6.58653 32.2732 7.35321 30.1959 8.77691 28.5323C10.2085 26.8596 12.3523 25.5507 15.1837 24.7626L14.6474 22.8359ZM4.58653 34.7033C4.58653 40.8807 10.5885 46.2712 20.8538 46.2372L20.8472 44.2373C11.1626 44.2693 6.58653 39.3118 6.58653 34.7033H4.58653ZM73.7088 46.2372C78.2394 46.1999 81.3858 44.9312 83.1773 42.852C84.9878 40.7509 85.2409 38.0249 84.3971 35.4967L82.5 36.1299C83.1701 38.1376 82.9193 40.0876 81.6622 41.5465C80.3863 43.0273 77.9017 44.2026 73.6923 44.2373L73.7088 46.2372ZM84.3972 35.4971C82.8102 30.7349 77.5609 28.2894 72.604 29.4475L73.059 31.395C77.1761 30.4331 81.2908 32.5016 82.4998 36.1294L84.3972 35.4971ZM90.7003 17.2153C89.6693 14.1199 86.2799 12.5704 83.1241 13.3075L83.579 15.255C85.8952 14.7141 88.1497 15.8866 88.8028 17.8473L90.7003 17.2153ZM84.3491 14.2113C84.2389 12.642 83.1911 9.40957 79.8535 7.30713L78.7875 8.99937C81.4919 10.7029 82.2801 13.2985 82.354 14.3513L84.3491 14.2113ZM79.8525 7.30651C76.1907 5.00581 72.7344 4.90763 69.4779 5.94547L70.0852 7.85104C72.8406 6.97288 75.6764 7.04469 78.7885 9L79.8525 7.30651ZM70.7131 6.53481C69.0459 2.26119 64.4288 -1.75819 57.6773 -0.878361L57.9357 1.10487C63.6462 0.360703 67.4672 3.71732 68.8499 7.2617L70.7131 6.53481ZM57.6776 -0.878404C51.7527 -0.108294 48.247 4.52586 47.5728 8.78802L49.5482 9.10049C50.1041 5.58665 53.0124 1.7448 57.9354 1.10491L57.6776 -0.878404ZM47.8699 9.66743C49.4631 11.1891 50.7415 12.8901 51.6816 14.5885L53.4314 13.62C52.3955 11.7484 50.9939 9.88544 49.2512 8.22108L47.8699 9.66743ZM52.7581 15.0837C54.1491 14.7975 55.5215 14.6533 56.8535 14.6533V12.6533C55.3775 12.6533 53.87 12.813 52.355 13.1248L52.7581 15.0837ZM56.8535 14.6533C60.5623 14.6533 64.2391 15.7643 67.8005 18.002L68.8645 16.3085C65.0219 13.8942 60.9807 12.6533 56.8535 12.6533V14.6533ZM67.8 18.0017C70.4111 19.6444 72.1848 21.7186 73.3674 23.7402L75.0937 22.7303C73.7702 20.4679 71.782 18.1441 68.8651 16.3088L67.8 18.0017ZM74.2305 24.2353C78.2907 24.2353 81.8585 24.2313 83.883 24.2162L83.8681 22.2163C81.8525 22.2312 78.2924 22.2353 74.2305 22.2353V24.2353ZM83.8839 24.2162C86.6803 24.1929 88.709 23.4092 89.8911 22.036C91.0922 20.6409 91.2437 18.8426 90.7 17.2145L88.803 17.848C89.1733 18.9569 89.0229 19.9791 88.3754 20.7312C87.7091 21.5053 86.3427 22.1956 83.8672 22.2163L83.8839 24.2162ZM20.8532 46.2373C24.2977 46.2279 30.4734 46.2348 37.4986 46.2445L37.5014 44.2445C30.478 44.2348 24.2974 44.2279 20.8478 44.2373L20.8532 46.2373ZM36.5949 44.8193L31.0949 56.526L32.9051 57.3765L38.4051 45.6697L36.5949 44.8193ZM32.1757 57.9357L40.6757 56.4187L40.3243 54.4498L31.8243 55.9668L32.1757 57.9357ZM39.6029 54.9924L29.5744 75.3534L31.3686 76.2371L41.3971 55.8761L39.6029 54.9924ZM31.276 76.3893L49.365 51.8943L47.7561 50.7062L29.6671 75.2012L31.276 76.3893ZM48.4601 50.3053L38.3996 51.3203L38.6004 53.3102L48.6609 52.2952L48.4601 50.3053ZM45.9987 46.2563C57.1121 46.2709 68.4832 46.2799 73.7087 46.2372L73.6924 44.2373C68.4788 44.2798 57.1196 44.2709 46.0013 44.2563L45.9987 46.2563ZM39.1854 53.0434L46.6854 45.9845L45.3146 44.5281L37.8146 51.5871L39.1854 53.0434Z" fill="#20BFE2" mask="url(#path-1-inside-1_3_10)"/>
</g>
<defs>
<clipPath id="clip0_3_10">
<rect width="90" height="77.21" fill="white"/>
</clipPath>
</defs>
</svg>
