<svg width="615" height="100" viewBox="0 0 615 100" fill="none" xmlns="http://www.w3.org/2000/svg">
<g clip-path="url(#clip0_4_14)">
<path d="M173.164 55.2874L167.888 96.7037H150.537L155.083 61.3949C153.313 66.2936 151.543 71.1284 149.912 76.0274H137.661L136.169 61.2678L131.623 96.7043H115L120.136 55.288H117.013L123.711 1.97467H142.138L145.921 35.8841C149.981 24.6867 154.042 13.3629 158.206 1.97467H176.634L169.936 55.288L173.164 55.2874ZM213.04 53.5063L211.339 57.5143L206.412 97.0224H188.921L193.744 58.5325C193.467 56.942 193.155 55.2243 192.842 53.5066H189.719C186.491 36.3294 182.674 18.5796 179.932 1.52939H199.575L203.669 25.6414C206.862 17.6252 210.159 9.54568 213.352 1.52939H232.543L209.916 53.5066L213.04 53.5063ZM274.117 55.5421L268.842 97.0222H251.455L256.383 58.0867H246.319L241.356 97.0222H223.866L229.106 55.5421H225.601L232.299 1.84698H249.79L245.799 34.1024H255.828L259.889 1.84698H277.31L270.543 55.5421H274.117ZM299.591 55.5421L294.385 97.0222H276.825L282.031 55.5421H278.491L285.293 1.84698H302.818L296.086 55.5421H299.591ZM341.097 55.5421L351.161 97.0222H330.582L324.058 68.3297L320.449 97.0222H303.028L308.233 55.5421H304.728L311.426 1.84698H328.882L325.516 28.5675C330.062 19.6607 334.504 10.6268 339.015 1.84698H359.074L335.406 46.3805L337.523 55.5421H341.097ZM377.396 55.5421L372.191 97.0222H354.631L359.836 55.5421H356.296L363.099 1.84698H380.624L373.891 55.5421H377.396ZM431.743 55.2874L426.572 96.7037H410.435L403.563 55.2874H402.765L397.525 96.7037H381.179L386.42 55.2874H383.262L389.96 1.97402H409.012L414.634 35.4379L418.902 1.97402H435.317L428.585 55.2874H431.743ZM436.878 56.3056H433.199C435.282 34.2932 444.652 10.9447 455.757 3.88281C467.175 -3.43315 476.614 0.129263 486.608 10.054L483.277 36.3289H477.794C476.995 32.7661 477.516 25.768 469.465 24.4956C458.012 22.6507 450.482 41.037 449.128 56.3054H452.807C452.113 64.2579 453.05 71.4468 455.999 74.3732C457.943 76.2818 460.754 77.1725 464.918 76.2818H464.988L466.272 65.9756H458.013L459.227 56.3052H455.479L457.284 42.0544H482.756L480.986 56.3052H484.7L480.292 91.36C478.522 92.696 476.683 93.7775 474.844 94.9227C466.585 99.5669 456 102.684 447.775 96.6404C438.023 89.6424 435.282 73.3558 436.878 56.3056ZM487.996 55.2874C490.252 37.5375 492.508 19.7239 494.764 1.97402H515.586C528.045 1.97402 536.755 13.8072 531.029 39.7004C529.572 46.126 527.628 51.2789 525.407 55.2874H528.565C523.117 64.8939 515.586 68.1388 506.91 68.1388L503.301 96.7043H486.018L491.224 55.288L487.996 55.2874ZM509.063 25.5753C508.334 31.81 507.501 38.1721 506.737 44.6613C515.379 43.8343 518.606 25.5753 509.063 25.5753ZM535.541 55.2874H531.55L547.861 1.91018H565.178L567.989 55.2874H571.876L574.062 96.7037H556.19L555.461 78.8268H545.57C543.835 84.7434 542.204 90.7239 540.469 96.7037H522.909L535.541 55.2874ZM555.011 56.6235V55.2875H551.229L551.298 34.1657L546.648 55.2875H550.5L550.222 56.6235H555.011ZM580.69 55.2874H577.497L584.161 1.97402H601.582L594.849 55.2874H598.077L595.786 72.6554H615.047L612.062 96.7037H575.449L580.69 55.2874Z" fill="#4ED1F0"/>
</g>
<g clip-path="url(#clip1_4_14)">
<mask id="path-2-inside-1_4_14" fill="white">
<path d="M18.7225 82.2633L16.7755 82.5623C16.7585 82.5663 16.7495 82.5743 16.7335 82.5783L14.8395 81.1873C14.8995 81.0293 14.9375 80.8633 14.9375 80.6853C14.9375 80.5073 14.8995 80.3412 14.8395 80.1833L16.7335 78.7853C16.7485 78.7933 16.7585 78.8013 16.7755 78.8013L18.7225 79.1043C18.9135 79.1333 19.0935 78.9993 19.1235 78.8093C19.1515 78.6123 19.0195 78.4383 18.8315 78.4093L17.5255 78.2123L18.1265 77.7673C18.3065 77.8203 18.5045 77.8023 18.6665 77.6813C18.9445 77.4762 19.0035 77.0872 18.7985 76.8083C18.5975 76.5332 18.2055 76.4723 17.9275 76.6753C17.7655 76.7963 17.6855 76.9823 17.6855 77.1673L17.0925 77.6013L17.2895 76.3183C17.3185 76.1253 17.1895 75.9433 16.9945 75.9143C16.8025 75.8873 16.6285 76.0192 16.5955 76.2093L16.2965 78.1603C16.2965 78.1683 16.2995 78.1762 16.2995 78.1833L14.3945 79.5833C14.2495 79.4743 14.0855 79.3923 13.9045 79.3433V76.9893C13.9185 76.9813 13.9315 76.9733 13.9425 76.9663L15.3345 75.5703C15.4725 75.4333 15.4725 75.2113 15.3345 75.0763C15.1985 74.9393 14.9775 74.9393 14.8405 75.0763L13.9045 76.0123V75.2643C14.0525 75.1473 14.1575 74.9773 14.1575 74.7743C14.1575 74.4343 13.8775 74.1513 13.5335 74.1513C13.1895 74.1513 12.9095 74.4343 12.9095 74.7743C12.9095 74.9773 13.0125 75.1473 13.1615 75.2643V75.9933L12.2395 75.0733C12.1035 74.9363 11.8815 74.9363 11.7445 75.0733C11.6065 75.2083 11.6065 75.4303 11.7445 75.5673L13.1405 76.9633C13.1455 76.9673 13.1535 76.9713 13.1615 76.9793V79.3463C12.9795 79.3973 12.8175 79.4753 12.6785 79.5923L10.7795 78.2033C10.7795 78.1833 10.7855 78.1723 10.7795 78.1563L10.4855 76.2053C10.4535 76.0163 10.2755 75.8833 10.0815 75.9103C9.89253 75.9393 9.76053 76.1213 9.78953 76.3143L9.99153 77.6213L9.38653 77.1763C9.38353 76.9873 9.30653 76.8053 9.14053 76.6843C8.86553 76.4853 8.47753 76.5413 8.27253 76.8213C8.06553 77.0963 8.12653 77.4893 8.40453 77.6943C8.56753 77.8092 8.76653 77.8293 8.94353 77.7763L9.53653 78.2103L8.25053 78.4073C8.06053 78.4363 7.92753 78.6103 7.95653 78.8073C7.98553 78.9963 8.16553 79.1313 8.35753 79.1023L10.3065 78.7993C10.3145 78.7993 10.3235 78.7913 10.3315 78.7913L12.2365 80.1933C12.1795 80.3473 12.1435 80.5092 12.1435 80.6833C12.1435 80.8532 12.1795 81.0153 12.2365 81.1653L10.3315 82.5673C10.3235 82.5673 10.3145 82.5633 10.3065 82.5593L8.35753 82.2603C8.16653 82.2313 7.98553 82.3623 7.95653 82.5553C7.92853 82.7483 8.06053 82.9223 8.25053 82.9513L9.53653 83.1523L8.94353 83.5823C8.76653 83.5332 8.56753 83.5513 8.40453 83.6683C8.12653 83.8773 8.06553 84.2623 8.27253 84.5453C8.47753 84.8163 8.86453 84.8773 9.14053 84.6743C9.30653 84.5573 9.38353 84.3753 9.38653 84.1823L9.99153 83.7413L9.78953 85.0483C9.76053 85.2373 9.89253 85.4193 10.0815 85.4483C10.2755 85.4753 10.4535 85.3433 10.4855 85.1493L10.7795 83.2063C10.7855 83.1903 10.7795 83.1753 10.7795 83.1633L12.6765 81.7703C12.8165 81.8833 12.9805 81.9613 13.1625 82.0143V84.3833C13.1545 84.3913 13.1455 84.3913 13.1415 84.3993L11.7455 85.7953C11.6075 85.9323 11.6075 86.1503 11.7455 86.2853C11.8815 86.4263 12.1045 86.4263 12.2405 86.2853L13.1625 85.3693V86.1013C13.0135 86.2183 12.9105 86.3843 12.9105 86.5873C12.9105 86.9313 13.1905 87.2103 13.5345 87.2103C13.8785 87.2103 14.1585 86.9313 14.1585 86.5873C14.1585 86.3843 14.0535 86.2183 13.9055 86.1013V85.3533L14.8415 86.2853C14.9765 86.4263 15.1985 86.4263 15.3355 86.2853C15.4735 86.1503 15.4735 85.9313 15.3355 85.7953L13.9435 84.3993C13.9325 84.3913 13.9195 84.3833 13.9055 84.3763V82.0223C14.0875 81.9693 14.2515 81.8873 14.3955 81.7783L16.3005 83.1783C16.3005 83.1903 16.2975 83.1943 16.2975 83.2053L16.5965 85.1523C16.6295 85.3413 16.8045 85.4743 16.9955 85.4473C17.1905 85.4183 17.3205 85.2363 17.2905 85.0473L17.0935 83.7643L17.6865 84.2023C17.6865 84.3843 17.7665 84.5693 17.9285 84.6863C18.2065 84.8933 18.5975 84.8293 18.7995 84.5573C19.0045 84.2743 18.9455 83.8893 18.6675 83.6803C18.5055 83.5592 18.3075 83.5452 18.1275 83.5983L17.5265 83.1553L18.8325 82.9523C19.0205 82.9233 19.1535 82.7493 19.1245 82.5563C19.0935 82.3643 18.9145 82.2343 18.7225 82.2633ZM70.6465 65.2693C70.4535 63.1953 68.2925 61.8243 67.7505 58.7403H67.7465C67.2015 61.8243 65.0395 63.1953 64.8465 65.2693C64.6725 67.1873 66.1085 68.5353 67.7425 68.5333C69.3765 68.5253 70.8235 67.1873 70.6465 65.2693ZM75.0955 81.2223C74.9025 79.1442 72.7385 77.7773 72.1955 74.6913H72.1915C71.6465 77.7773 69.4865 79.1442 69.2955 81.2223C69.1175 83.1403 70.5575 84.4883 72.1885 84.4843C73.8255 84.4803 75.2725 83.1403 75.0955 81.2223ZM64.1775 75.9603C63.9645 73.6593 61.5645 72.1423 60.9585 68.7083H60.9545C60.3505 72.1423 57.9525 73.6593 57.7415 75.9603C57.5405 78.0912 59.1375 79.5933 60.9545 79.5853C62.7675 79.5772 64.3725 78.0912 64.1775 75.9603ZM81.8235 68.8943C81.5915 66.3373 78.9235 64.6543 78.2515 60.8553H78.2475C77.5795 64.6543 74.9135 66.3373 74.6795 68.8943C74.4605 71.2553 76.2325 72.9193 78.2475 72.9143C80.2615 72.9053 82.0405 71.2553 81.8235 68.8943ZM17.2505 60.8003L14.1325 61.2803C14.1065 61.2803 14.0905 61.2923 14.0665 61.3003L11.0295 59.0713C11.1275 58.8253 11.1865 58.5533 11.1865 58.2663C11.1865 57.9873 11.1275 57.7153 11.0295 57.4613L12.8605 56.1173C12.4055 55.9593 11.9615 55.7913 11.5385 55.6113L10.3155 56.5063C10.0845 56.3323 9.82053 56.1953 9.53153 56.1213V54.5643C9.11453 54.3063 8.71753 54.0423 8.34153 53.7583V56.1283C8.05153 56.2063 7.79253 56.3433 7.56653 56.5243L4.52653 54.2943C4.52653 54.2643 4.53253 54.2453 4.52753 54.2233L4.05253 51.0993C4.00453 50.7893 3.71853 50.5823 3.41053 50.6273C3.10353 50.6723 2.89353 50.9593 2.94053 51.2693L3.26153 53.3583L2.29453 52.6523C2.28953 52.3493 2.16453 52.0593 1.90353 51.8663C1.46253 51.5433 0.838527 51.6413 0.511527 52.0833C0.182527 52.5283 0.280527 53.1513 0.723527 53.4773C0.983527 53.6693 1.30553 53.7043 1.58953 53.6173L2.53753 54.3113L0.475527 54.6243C0.171527 54.6713 -0.0404727 54.9583 0.00652728 55.2673C0.0545273 55.5743 0.341527 55.7833 0.645527 55.7363L3.76953 55.2593C3.78453 55.2593 3.79653 55.2453 3.81053 55.2413L6.86053 57.4893C6.77053 57.7293 6.71453 57.9913 6.71453 58.2663C6.71453 58.5413 6.77053 58.8033 6.86053 59.0473L3.81053 61.2913C3.79753 61.2873 3.78553 61.2793 3.76953 61.2793L0.645527 60.7993C0.341527 60.7463 0.0545273 60.9673 0.00652728 61.2723C-0.0404727 61.5793 0.172527 61.8663 0.475527 61.9073L2.53753 62.2233L1.58953 62.9183C1.30553 62.8403 0.983527 62.8693 0.723527 63.0593C0.279527 63.3833 0.182527 64.0103 0.511527 64.4553C0.838527 64.8963 1.46253 64.9923 1.90553 64.6663C2.16653 64.4783 2.29153 64.1843 2.29653 63.8813L3.26353 63.1723L2.94253 65.2643C2.89653 65.5713 3.10653 65.8583 3.41253 65.9073C3.72053 65.9483 4.00653 65.7373 4.05453 65.4343L4.52953 62.3153C4.53453 62.2883 4.52853 62.2663 4.52853 62.2433L7.56653 60.0113C7.79253 60.1933 8.05353 60.3293 8.34353 60.4073V64.2003C8.33253 64.2123 8.32053 64.2123 8.30953 64.2213L6.07553 66.4573C5.85453 66.6763 5.85453 67.0353 6.07553 67.2463C6.29253 67.4693 6.64853 67.4693 6.86953 67.2463L8.34353 65.7773V66.9513C8.10553 67.1333 7.94153 67.4083 7.94153 67.7303C7.94153 68.2853 8.38853 68.7263 8.94153 68.7263C9.49153 68.7263 9.93653 68.2853 9.93653 67.7303C9.93653 67.4083 9.77553 67.1323 9.53353 66.9513V65.7543L11.0335 67.2463C11.2475 67.4693 11.6065 67.4693 11.8255 67.2463C12.0465 67.0353 12.0465 66.6763 11.8255 66.4573L9.59453 64.2213C9.57753 64.2073 9.55553 64.2003 9.53453 64.1883V60.4153C9.82353 60.3373 10.0865 60.2043 10.3185 60.0263L13.3745 62.2743C13.3745 62.2883 13.3695 62.2953 13.3695 62.3153L13.8485 65.4343C13.8965 65.7373 14.1815 65.9483 14.4855 65.9073C14.7975 65.8583 15.0065 65.5713 14.9585 65.2643L14.6435 63.2053L15.5915 63.9043C15.5935 64.1993 15.7175 64.4963 15.9785 64.6853C16.4245 65.0133 17.0495 64.9153 17.3755 64.4783C17.7025 64.0253 17.6065 63.4103 17.1635 63.0763C16.9035 62.8813 16.5835 62.8533 16.2975 62.9413L15.3315 62.2303L17.4225 61.9063C17.7285 61.8653 17.9415 61.5783 17.8935 61.2713C17.8465 60.9683 17.5595 60.7513 17.2505 60.8003ZM72.8315 40.4213C72.6815 38.2473 71.1595 33.4133 66.1475 30.2583C60.5325 26.7303 55.3095 26.5893 50.3275 28.1753C47.7965 21.6943 40.8065 15.5773 30.4715 16.9243C20.4265 18.2313 14.9155 26.8543 14.9155 33.7993C8.95853 35.4573 5.58653 39.3943 5.58653 44.7033C5.58653 50.0963 10.8755 55.2703 20.8505 55.2373C24.2975 55.2279 30.4757 55.2348 37.5 55.2445C40.2418 55.2483 43.1125 55.2525 46 55.2563C57.1158 55.2709 68.481 55.2798 73.7005 55.2373C82.4405 55.1653 84.9625 50.3493 83.4485 45.8133C82.0505 41.6183 77.3685 39.3613 72.8315 40.4213ZM89.7515 27.5313C88.9095 25.0033 86.0875 23.6423 83.3515 24.2813C83.2595 22.9703 82.3415 20.0563 79.3205 18.1533C75.9335 16.0253 72.7875 15.9403 69.7815 16.8983C68.2565 12.9893 64.0375 9.30125 57.8065 10.1133C52.3825 10.8183 49.1755 15.0563 48.5605 18.9443C50.2285 20.5373 51.5685 22.3193 52.5565 24.1043C54.0095 23.8053 55.4495 23.6533 56.8535 23.6533C60.7715 23.6533 64.6305 24.8293 68.3325 27.1553C71.0965 28.8943 72.9775 31.0933 74.2305 33.2353C78.2915 33.2353 81.8555 33.2313 83.8755 33.2163C89.1475 33.1723 90.6655 30.2683 89.7515 27.5313Z"/>
<path d="M37.5 55.2445L32 66.9513L40.5 65.4343L30.4715 85.7953L48.5605 61.3003L38.5 62.3153L46 55.2563C43.1125 55.2525 40.2418 55.2483 37.5 55.2445Z"/>
</mask>
<path d="M18.7225 82.2633L16.7755 82.5623C16.7585 82.5663 16.7495 82.5743 16.7335 82.5783L14.8395 81.1873C14.8995 81.0293 14.9375 80.8633 14.9375 80.6853C14.9375 80.5073 14.8995 80.3412 14.8395 80.1833L16.7335 78.7853C16.7485 78.7933 16.7585 78.8013 16.7755 78.8013L18.7225 79.1043C18.9135 79.1333 19.0935 78.9993 19.1235 78.8093C19.1515 78.6123 19.0195 78.4383 18.8315 78.4093L17.5255 78.2123L18.1265 77.7673C18.3065 77.8203 18.5045 77.8023 18.6665 77.6813C18.9445 77.4762 19.0035 77.0872 18.7985 76.8083C18.5975 76.5332 18.2055 76.4723 17.9275 76.6753C17.7655 76.7963 17.6855 76.9823 17.6855 77.1673L17.0925 77.6013L17.2895 76.3183C17.3185 76.1253 17.1895 75.9433 16.9945 75.9143C16.8025 75.8873 16.6285 76.0192 16.5955 76.2093L16.2965 78.1603C16.2965 78.1683 16.2995 78.1762 16.2995 78.1833L14.3945 79.5833C14.2495 79.4743 14.0855 79.3923 13.9045 79.3433V76.9893C13.9185 76.9813 13.9315 76.9733 13.9425 76.9663L15.3345 75.5703C15.4725 75.4333 15.4725 75.2113 15.3345 75.0763C15.1985 74.9393 14.9775 74.9393 14.8405 75.0763L13.9045 76.0123V75.2643C14.0525 75.1473 14.1575 74.9773 14.1575 74.7743C14.1575 74.4343 13.8775 74.1513 13.5335 74.1513C13.1895 74.1513 12.9095 74.4343 12.9095 74.7743C12.9095 74.9773 13.0125 75.1473 13.1615 75.2643V75.9933L12.2395 75.0733C12.1035 74.9363 11.8815 74.9363 11.7445 75.0733C11.6065 75.2083 11.6065 75.4303 11.7445 75.5673L13.1405 76.9633C13.1455 76.9673 13.1535 76.9713 13.1615 76.9793V79.3463C12.9795 79.3973 12.8175 79.4753 12.6785 79.5923L10.7795 78.2033C10.7795 78.1833 10.7855 78.1723 10.7795 78.1563L10.4855 76.2053C10.4535 76.0163 10.2755 75.8833 10.0815 75.9103C9.89253 75.9393 9.76053 76.1213 9.78953 76.3143L9.99153 77.6213L9.38653 77.1763C9.38353 76.9873 9.30653 76.8053 9.14053 76.6843C8.86553 76.4853 8.47753 76.5413 8.27253 76.8213C8.06553 77.0963 8.12653 77.4893 8.40453 77.6943C8.56753 77.8092 8.76653 77.8293 8.94353 77.7763L9.53653 78.2103L8.25053 78.4073C8.06053 78.4363 7.92753 78.6103 7.95653 78.8073C7.98553 78.9963 8.16553 79.1313 8.35753 79.1023L10.3065 78.7993C10.3145 78.7993 10.3235 78.7913 10.3315 78.7913L12.2365 80.1933C12.1795 80.3473 12.1435 80.5092 12.1435 80.6833C12.1435 80.8532 12.1795 81.0153 12.2365 81.1653L10.3315 82.5673C10.3235 82.5673 10.3145 82.5633 10.3065 82.5593L8.35753 82.2603C8.16653 82.2313 7.98553 82.3623 7.95653 82.5553C7.92853 82.7483 8.06053 82.9223 8.25053 82.9513L9.53653 83.1523L8.94353 83.5823C8.76653 83.5332 8.56753 83.5513 8.40453 83.6683C8.12653 83.8773 8.06553 84.2623 8.27253 84.5453C8.47753 84.8163 8.86453 84.8773 9.14053 84.6743C9.30653 84.5573 9.38353 84.3753 9.38653 84.1823L9.99153 83.7413L9.78953 85.0483C9.76053 85.2373 9.89253 85.4193 10.0815 85.4483C10.2755 85.4753 10.4535 85.3433 10.4855 85.1493L10.7795 83.2063C10.7855 83.1903 10.7795 83.1753 10.7795 83.1633L12.6765 81.7703C12.8165 81.8833 12.9805 81.9613 13.1625 82.0143V84.3833C13.1545 84.3913 13.1455 84.3913 13.1415 84.3993L11.7455 85.7953C11.6075 85.9323 11.6075 86.1503 11.7455 86.2853C11.8815 86.4263 12.1045 86.4263 12.2405 86.2853L13.1625 85.3693V86.1013C13.0135 86.2183 12.9105 86.3843 12.9105 86.5873C12.9105 86.9313 13.1905 87.2103 13.5345 87.2103C13.8785 87.2103 14.1585 86.9313 14.1585 86.5873C14.1585 86.3843 14.0535 86.2183 13.9055 86.1013V85.3533L14.8415 86.2853C14.9765 86.4263 15.1985 86.4263 15.3355 86.2853C15.4735 86.1503 15.4735 85.9313 15.3355 85.7953L13.9435 84.3993C13.9325 84.3913 13.9195 84.3833 13.9055 84.3763V82.0223C14.0875 81.9693 14.2515 81.8873 14.3955 81.7783L16.3005 83.1783C16.3005 83.1903 16.2975 83.1943 16.2975 83.2053L16.5965 85.1523C16.6295 85.3413 16.8045 85.4743 16.9955 85.4473C17.1905 85.4183 17.3205 85.2363 17.2905 85.0473L17.0935 83.7643L17.6865 84.2023C17.6865 84.3843 17.7665 84.5693 17.9285 84.6863C18.2065 84.8933 18.5975 84.8293 18.7995 84.5573C19.0045 84.2743 18.9455 83.8893 18.6675 83.6803C18.5055 83.5592 18.3075 83.5452 18.1275 83.5983L17.5265 83.1553L18.8325 82.9523C19.0205 82.9233 19.1535 82.7493 19.1245 82.5563C19.0935 82.3643 18.9145 82.2343 18.7225 82.2633ZM70.6465 65.2693C70.4535 63.1953 68.2925 61.8243 67.7505 58.7403H67.7465C67.2015 61.8243 65.0395 63.1953 64.8465 65.2693C64.6725 67.1873 66.1085 68.5353 67.7425 68.5333C69.3765 68.5253 70.8235 67.1873 70.6465 65.2693ZM75.0955 81.2223C74.9025 79.1442 72.7385 77.7773 72.1955 74.6913H72.1915C71.6465 77.7773 69.4865 79.1442 69.2955 81.2223C69.1175 83.1403 70.5575 84.4883 72.1885 84.4843C73.8255 84.4803 75.2725 83.1403 75.0955 81.2223ZM64.1775 75.9603C63.9645 73.6593 61.5645 72.1423 60.9585 68.7083H60.9545C60.3505 72.1423 57.9525 73.6593 57.7415 75.9603C57.5405 78.0912 59.1375 79.5933 60.9545 79.5853C62.7675 79.5772 64.3725 78.0912 64.1775 75.9603ZM81.8235 68.8943C81.5915 66.3373 78.9235 64.6543 78.2515 60.8553H78.2475C77.5795 64.6543 74.9135 66.3373 74.6795 68.8943C74.4605 71.2553 76.2325 72.9193 78.2475 72.9143C80.2615 72.9053 82.0405 71.2553 81.8235 68.8943ZM17.2505 60.8003L14.1325 61.2803C14.1065 61.2803 14.0905 61.2923 14.0665 61.3003L11.0295 59.0713C11.1275 58.8253 11.1865 58.5533 11.1865 58.2663C11.1865 57.9873 11.1275 57.7153 11.0295 57.4613L12.8605 56.1173C12.4055 55.9593 11.9615 55.7913 11.5385 55.6113L10.3155 56.5063C10.0845 56.3323 9.82053 56.1953 9.53153 56.1213V54.5643C9.11453 54.3063 8.71753 54.0423 8.34153 53.7583V56.1283C8.05153 56.2063 7.79253 56.3433 7.56653 56.5243L4.52653 54.2943C4.52653 54.2643 4.53253 54.2453 4.52753 54.2233L4.05253 51.0993C4.00453 50.7893 3.71853 50.5823 3.41053 50.6273C3.10353 50.6723 2.89353 50.9593 2.94053 51.2693L3.26153 53.3583L2.29453 52.6523C2.28953 52.3493 2.16453 52.0593 1.90353 51.8663C1.46253 51.5433 0.838527 51.6413 0.511527 52.0833C0.182527 52.5283 0.280527 53.1513 0.723527 53.4773C0.983527 53.6693 1.30553 53.7043 1.58953 53.6173L2.53753 54.3113L0.475527 54.6243C0.171527 54.6713 -0.0404727 54.9583 0.00652728 55.2673C0.0545273 55.5743 0.341527 55.7833 0.645527 55.7363L3.76953 55.2593C3.78453 55.2593 3.79653 55.2453 3.81053 55.2413L6.86053 57.4893C6.77053 57.7293 6.71453 57.9913 6.71453 58.2663C6.71453 58.5413 6.77053 58.8033 6.86053 59.0473L3.81053 61.2913C3.79753 61.2873 3.78553 61.2793 3.76953 61.2793L0.645527 60.7993C0.341527 60.7463 0.0545273 60.9673 0.00652728 61.2723C-0.0404727 61.5793 0.172527 61.8663 0.475527 61.9073L2.53753 62.2233L1.58953 62.9183C1.30553 62.8403 0.983527 62.8693 0.723527 63.0593C0.279527 63.3833 0.182527 64.0103 0.511527 64.4553C0.838527 64.8963 1.46253 64.9923 1.90553 64.6663C2.16653 64.4783 2.29153 64.1843 2.29653 63.8813L3.26353 63.1723L2.94253 65.2643C2.89653 65.5713 3.10653 65.8583 3.41253 65.9073C3.72053 65.9483 4.00653 65.7373 4.05453 65.4343L4.52953 62.3153C4.53453 62.2883 4.52853 62.2663 4.52853 62.2433L7.56653 60.0113C7.79253 60.1933 8.05353 60.3293 8.34353 60.4073V64.2003C8.33253 64.2123 8.32053 64.2123 8.30953 64.2213L6.07553 66.4573C5.85453 66.6763 5.85453 67.0353 6.07553 67.2463C6.29253 67.4693 6.64853 67.4693 6.86953 67.2463L8.34353 65.7773V66.9513C8.10553 67.1333 7.94153 67.4083 7.94153 67.7303C7.94153 68.2853 8.38853 68.7263 8.94153 68.7263C9.49153 68.7263 9.93653 68.2853 9.93653 67.7303C9.93653 67.4083 9.77553 67.1323 9.53353 66.9513V65.7543L11.0335 67.2463C11.2475 67.4693 11.6065 67.4693 11.8255 67.2463C12.0465 67.0353 12.0465 66.6763 11.8255 66.4573L9.59453 64.2213C9.57753 64.2073 9.55553 64.2003 9.53453 64.1883V60.4153C9.82353 60.3373 10.0865 60.2043 10.3185 60.0263L13.3745 62.2743C13.3745 62.2883 13.3695 62.2953 13.3695 62.3153L13.8485 65.4343C13.8965 65.7373 14.1815 65.9483 14.4855 65.9073C14.7975 65.8583 15.0065 65.5713 14.9585 65.2643L14.6435 63.2053L15.5915 63.9043C15.5935 64.1993 15.7175 64.4963 15.9785 64.6853C16.4245 65.0133 17.0495 64.9153 17.3755 64.4783C17.7025 64.0253 17.6065 63.4103 17.1635 63.0763C16.9035 62.8813 16.5835 62.8533 16.2975 62.9413L15.3315 62.2303L17.4225 61.9063C17.7285 61.8653 17.9415 61.5783 17.8935 61.2713C17.8465 60.9683 17.5595 60.7513 17.2505 60.8003ZM72.8315 40.4213C72.6815 38.2473 71.1595 33.4133 66.1475 30.2583C60.5325 26.7303 55.3095 26.5893 50.3275 28.1753C47.7965 21.6943 40.8065 15.5773 30.4715 16.9243C20.4265 18.2313 14.9155 26.8543 14.9155 33.7993C8.95853 35.4573 5.58653 39.3943 5.58653 44.7033C5.58653 50.0963 10.8755 55.2703 20.8505 55.2373C24.2975 55.2279 30.4757 55.2348 37.5 55.2445C40.2418 55.2483 43.1125 55.2525 46 55.2563C57.1158 55.2709 68.481 55.2798 73.7005 55.2373C82.4405 55.1653 84.9625 50.3493 83.4485 45.8133C82.0505 41.6183 77.3685 39.3613 72.8315 40.4213ZM89.7515 27.5313C88.9095 25.0033 86.0875 23.6423 83.3515 24.2813C83.2595 22.9703 82.3415 20.0563 79.3205 18.1533C75.9335 16.0253 72.7875 15.9403 69.7815 16.8983C68.2565 12.9893 64.0375 9.30125 57.8065 10.1133C52.3825 10.8183 49.1755 15.0563 48.5605 18.9443C50.2285 20.5373 51.5685 22.3193 52.5565 24.1043C54.0095 23.8053 55.4495 23.6533 56.8535 23.6533C60.7715 23.6533 64.6305 24.8293 68.3325 27.1553C71.0965 28.8943 72.9775 31.0933 74.2305 33.2353C78.2915 33.2353 81.8555 33.2313 83.8755 33.2163C89.1475 33.1723 90.6655 30.2683 89.7515 27.5313Z" fill="#4ED1F0"/>
<path d="M37.5 55.2445L32 66.9513L40.5 65.4343L30.4715 85.7953L48.5605 61.3003L38.5 62.3153L46 55.2563C43.1125 55.2525 40.2418 55.2483 37.5 55.2445Z" fill="#4ED1F0"/>
<path d="M37.4993 55.7445C40.241 55.7483 43.1118 55.7525 45.9993 55.7563L46.0007 54.7563C43.1131 54.7525 40.2425 54.7483 37.5007 54.7445L37.4993 55.7445ZM18.7225 82.2633L18.5732 81.2745L18.5707 81.2748L18.7225 82.2633ZM16.7755 82.5623L16.6237 81.5738L16.5848 81.5798L16.5465 81.5888L16.7755 82.5623ZM16.7335 82.5783L16.1416 83.3842L16.5203 83.6623L16.9761 83.5484L16.7335 82.5783ZM14.8395 81.1873L13.9047 80.8322L13.6347 81.5431L14.2476 81.9932L14.8395 81.1873ZM14.8395 80.1833L14.2457 79.3787L13.6354 79.8291L13.9047 80.5383L14.8395 80.1833ZM16.7335 78.7853L17.2041 77.9029L16.6473 77.606L16.1397 77.9807L16.7335 78.7853ZM16.7755 78.8013L16.9293 77.8131L16.8529 77.8013H16.7755V78.8013ZM18.7225 79.1043L18.5688 80.0924L18.5724 80.0929L18.7225 79.1043ZM19.1235 78.8093L20.1113 78.9652L20.1125 78.9576L20.1136 78.95L19.1235 78.8093ZM18.8315 78.4093L18.984 77.4209L18.9807 77.4204L18.8315 78.4093ZM17.5255 78.2123L16.9305 77.4086L14.9948 78.8418L17.3764 79.2011L17.5255 78.2123ZM18.1265 77.7673L18.409 76.808L17.9315 76.6674L17.5315 76.9636L18.1265 77.7673ZM18.6665 77.6813L18.073 76.8764L18.0681 76.8801L18.6665 77.6813ZM18.7985 76.8083L17.9912 77.3983L17.9927 77.4004L18.7985 76.8083ZM17.9275 76.6753L17.3378 75.8676L17.3291 75.8741L17.9275 76.6753ZM17.6855 77.1673L18.2761 77.9742L18.6855 77.6746V77.1673H17.6855ZM17.0925 77.6013L16.1041 77.4495L15.7384 79.8316L17.6831 78.4082L17.0925 77.6013ZM17.2895 76.3183L18.2779 76.47L18.2784 76.4668L17.2895 76.3183ZM16.9945 75.9143L17.1416 74.9251L17.1338 74.924L16.9945 75.9143ZM16.5955 76.2093L15.6103 76.0381L15.6086 76.0479L15.6071 76.0578L16.5955 76.2093ZM16.2965 78.1603L15.3081 78.0088L15.2965 78.0841V78.1603H16.2965ZM16.2995 78.1833L16.8917 78.9891L17.2995 78.6893V78.1833H16.2995ZM14.3945 79.5833L13.7936 80.3826L14.3878 80.8292L14.9867 80.3891L14.3945 79.5833ZM13.9045 79.3433H12.9045V80.1085L13.6432 80.3085L13.9045 79.3433ZM13.9045 76.9893L13.4084 76.121L12.9045 76.4089V76.9893H13.9045ZM13.9425 76.9663L14.4794 77.8099L14.5726 77.7506L14.6506 77.6723L13.9425 76.9663ZM15.3345 75.5703L14.63 74.8606L14.6264 74.8642L15.3345 75.5703ZM15.3345 75.0763L14.6248 75.7808L14.63 75.786L14.6352 75.7911L15.3345 75.0763ZM14.8405 75.0763L15.5476 75.7834H15.5476L14.8405 75.0763ZM13.9045 76.0123H12.9045V78.4265L14.6116 76.7194L13.9045 76.0123ZM13.9045 75.2643L13.2844 74.4798L12.9045 74.7801V75.2643H13.9045ZM13.1615 75.2643H14.1615V74.778L13.7791 74.4778L13.1615 75.2643ZM13.1615 75.9933L12.4552 76.7011L14.1615 78.4038V75.9933H13.1615ZM12.2395 75.0733L11.5298 75.7778L11.5332 75.7811L12.2395 75.0733ZM11.7445 75.0733L12.4439 75.7881L12.4516 75.7804L11.7445 75.0733ZM11.7445 75.5673L12.4516 74.8601L12.4491 74.8576L11.7445 75.5673ZM13.1405 76.9633L12.4334 77.6704L12.4726 77.7095L12.5158 77.7441L13.1405 76.9633ZM13.1615 76.9793H14.1615V76.565L13.8686 76.2721L13.1615 76.9793ZM13.1615 79.3463L13.4314 80.3092L14.1615 80.1046V79.3463H13.1615ZM12.6785 79.5923L12.0882 80.3994L12.7218 80.8629L13.3225 80.3573L12.6785 79.5923ZM10.7795 78.2033H9.77953V78.7108L10.1892 79.0104L10.7795 78.2033ZM10.7795 78.1563L9.79069 78.3053L9.80633 78.4091L9.8432 78.5074L10.7795 78.1563ZM10.4855 76.2053L11.4744 76.0562L11.473 76.0473L11.4715 76.0383L10.4855 76.2053ZM10.0815 75.9103L9.94367 74.9197L9.92986 74.9218L10.0815 75.9103ZM9.78953 76.3143L8.80062 76.4628L8.80126 76.467L9.78953 76.3143ZM9.99153 77.6213L9.39901 78.4268L11.3496 79.8616L10.9798 77.4685L9.99153 77.6213ZM9.38653 77.1763L8.38665 77.1921L8.39452 77.688L8.79401 77.9818L9.38653 77.1763ZM9.14053 76.6843L9.72957 75.8762L9.72677 75.8741L9.14053 76.6843ZM8.27253 76.8213L9.07155 77.4227L9.07939 77.412L8.27253 76.8213ZM8.40453 77.6943L7.81103 78.4991L7.81947 78.5053L7.82804 78.5114L8.40453 77.6943ZM8.94353 77.7763L9.53412 76.9693L9.13294 76.6757L8.65668 76.8183L8.94353 77.7763ZM9.53653 78.2103L9.68795 79.1987L12.0797 78.8323L10.1271 77.4033L9.53653 78.2103ZM8.25053 78.4073L8.40141 79.3958L8.40195 79.3957L8.25053 78.4073ZM7.95653 78.8073L6.96717 78.9529L6.9681 78.9589L7.95653 78.8073ZM8.35753 79.1023L8.50688 80.091L8.51115 80.0904L8.35753 79.1023ZM10.3065 78.7993V77.7993H10.2293L10.1529 77.8111L10.3065 78.7993ZM10.3315 78.7913L10.9243 77.9859L10.6598 77.7913H10.3315V78.7913ZM12.2365 80.1933L13.1743 80.5404L13.4357 79.8342L12.8293 79.3879L12.2365 80.1933ZM12.2365 81.1653L12.8293 81.9706L13.4412 81.5203L13.1713 80.81L12.2365 81.1653ZM10.3315 82.5673V83.5673H10.6598L10.9243 83.3727L10.3315 82.5673ZM10.3065 82.5593L10.7537 81.6648L10.6133 81.5946L10.4582 81.5708L10.3065 82.5593ZM8.35753 82.2603L8.50917 81.2718L8.50764 81.2716L8.35753 82.2603ZM7.95653 82.5553L6.96762 82.4067L6.96689 82.4117L7.95653 82.5553ZM8.25053 82.9513L8.40495 81.9632L8.40141 81.9627L8.25053 82.9513ZM9.53653 83.1523L10.1236 83.9618L12.0862 82.5386L9.69095 82.1642L9.53653 83.1523ZM8.94353 83.5823L8.67673 84.546L9.14077 84.6745L9.53056 84.3918L8.94353 83.5823ZM8.40453 83.6683L7.8214 82.8559L7.81243 82.8623L7.80361 82.8689L8.40453 83.6683ZM8.27253 84.5453L7.4654 85.1356L7.47015 85.1421L7.47501 85.1486L8.27253 84.5453ZM9.14053 84.6743L8.56442 83.8569L8.55616 83.8627L8.54803 83.8687L9.14053 84.6743ZM9.38653 84.1823L8.79749 83.3741L8.3944 83.668L8.38665 84.1667L9.38653 84.1823ZM9.99153 83.7413L10.9798 83.894L11.3474 81.5155L9.40249 82.9332L9.99153 83.7413ZM9.78953 85.0483L8.80126 84.8955L8.8011 84.8966L9.78953 85.0483ZM10.0815 85.4483L9.92985 86.4368L9.94368 86.4387L10.0815 85.4483ZM10.4855 85.1493L11.4723 85.312L11.4743 85.2989L10.4855 85.1493ZM10.7795 83.2063L9.8432 82.8551L9.80644 82.9531L9.79078 83.0566L10.7795 83.2063ZM10.7795 83.1633L10.1876 82.3572L9.77953 82.6569V83.1633H10.7795ZM12.6765 81.7703L13.3046 80.9921L12.7054 80.5084L12.0846 80.9642L12.6765 81.7703ZM13.1625 82.0143H14.1625V81.2639L13.4421 81.0541L13.1625 82.0143ZM13.1625 84.3833L13.8696 85.0904L14.1625 84.7975V84.3833H13.1625ZM13.1415 84.3993L13.8486 85.1064L13.9634 84.9916L14.036 84.8465L13.1415 84.3993ZM11.7455 85.7953L12.4501 86.5049L12.4526 86.5024L11.7455 85.7953ZM11.7455 86.2853L12.4653 85.591L12.4552 85.5806L12.4448 85.5704L11.7455 86.2853ZM12.2405 86.2853L11.5357 85.5758L11.5282 85.5834L11.5208 85.591L12.2405 86.2853ZM13.1625 85.3693H14.1625V82.9661L12.4577 84.6598L13.1625 85.3693ZM13.1625 86.1013L13.7801 86.8878L14.1625 86.5875V86.1013H13.1625ZM13.9055 86.1013H12.9055V86.5855L13.2854 86.8857L13.9055 86.1013ZM13.9055 85.3533L14.6111 84.6446L12.9055 82.9463V85.3533H13.9055ZM14.8415 86.2853L15.5638 85.5937L15.5556 85.5851L15.5471 85.5766L14.8415 86.2853ZM15.3355 86.2853L14.6362 85.5704L14.6272 85.5793L14.6183 85.5884L15.3355 86.2853ZM15.3355 85.7953L14.6274 86.5014L14.6336 86.5075L15.3355 85.7953ZM13.9435 84.3993L14.6516 83.6932L14.5957 83.6371L14.5317 83.5905L13.9435 84.3993ZM13.9055 84.3763H12.9055V84.9943L13.4583 85.2707L13.9055 84.3763ZM13.9055 82.0223L13.6259 81.0621L12.9055 81.2719V82.0223H13.9055ZM14.3955 81.7783L14.9877 80.9725L14.3867 80.5308L13.792 80.9809L14.3955 81.7783ZM16.3005 83.1783H17.3005V82.6722L16.8927 82.3725L16.3005 83.1783ZM16.2975 83.2053H15.2975V83.2816L15.3091 83.357L16.2975 83.2053ZM16.5965 85.1523L15.6081 85.304L15.6097 85.3142L15.6114 85.3243L16.5965 85.1523ZM16.9955 85.4473L17.1355 86.4374L17.1426 86.4364L16.9955 85.4473ZM17.2905 85.0473L16.3021 85.199L16.3029 85.204L17.2905 85.0473ZM17.0935 83.7643L17.6877 82.9599L15.7371 81.5191L16.1051 83.916L17.0935 83.7643ZM17.6865 84.2023H18.6865V83.6977L18.2807 83.3979L17.6865 84.2023ZM17.9285 84.6863L18.5258 83.8842L18.5199 83.8798L18.514 83.8756L17.9285 84.6863ZM18.7995 84.5573L19.6024 85.1535L19.6094 85.1439L18.7995 84.5573ZM18.6675 83.6803L19.2685 82.8809L19.2659 82.8791L18.6675 83.6803ZM18.1275 83.5983L17.5342 84.4032L17.9338 84.6977L18.41 84.5575L18.1275 83.5983ZM17.5265 83.1553L17.3729 82.1671L15.0008 82.5358L16.9332 83.9602L17.5265 83.1553ZM18.8325 82.9523L18.6801 81.9639L18.6789 81.9641L18.8325 82.9523ZM19.1245 82.5563L20.1135 82.4077L20.1117 82.3969L19.1245 82.5563ZM70.6465 65.2693L71.6423 65.1774L71.6422 65.1766L70.6465 65.2693ZM67.7505 58.7403L68.7354 58.5672L68.5901 57.7403H67.7505V58.7403ZM67.7465 58.7403V57.7403H66.9078L66.7618 58.5662L67.7465 58.7403ZM64.8465 65.2693L63.8508 65.1766L63.8506 65.1789L64.8465 65.2693ZM67.7425 68.5333L67.7437 69.5333L67.7474 69.5332L67.7425 68.5333ZM75.0955 81.2223L76.0913 81.1304L76.0912 81.1298L75.0955 81.2223ZM72.1955 74.6913L73.1804 74.518L73.0349 73.6913H72.1955V74.6913ZM72.1915 74.6913V73.6913H71.3527L71.2068 74.5173L72.1915 74.6913ZM69.2955 81.2223L70.2912 81.3147L70.2913 81.3138L69.2955 81.2223ZM72.1885 84.4843L72.1861 83.4843H72.1861L72.1885 84.4843ZM64.1775 75.9603L65.1734 75.8691L65.1733 75.8681L64.1775 75.9603ZM60.9585 68.7083L61.9433 68.5345L61.7975 67.7083H60.9585V68.7083ZM60.9545 68.7083V67.7083H60.1151L59.9696 68.535L60.9545 68.7083ZM57.7415 75.9603L58.7371 76.0542L58.7374 76.0516L57.7415 75.9603ZM60.9545 79.5853L60.9589 80.5852H60.9589L60.9545 79.5853ZM81.8235 68.8943L80.8276 68.9846L80.8277 68.9858L81.8235 68.8943ZM78.2515 60.8553L79.2362 60.6811L79.0902 59.8553H78.2515V60.8553ZM78.2475 60.8553V59.8553H77.408L77.2626 60.6821L78.2475 60.8553ZM74.6795 68.8943L75.6753 68.9866L75.6754 68.9854L74.6795 68.8943ZM78.2475 72.9143L78.25 73.9143L78.252 73.9142L78.2475 72.9143ZM17.2505 60.8003L17.4027 61.7886L17.4071 61.7879L17.2505 60.8003ZM14.1325 61.2803V62.2803H14.209L14.2847 62.2686L14.1325 61.2803ZM14.0665 61.3003L13.4748 62.1064L13.8919 62.4125L14.3828 62.2489L14.0665 61.3003ZM11.0295 59.0713L10.1005 58.7012L9.81426 59.4198L10.4378 59.8774L11.0295 59.0713ZM11.0295 57.4613L10.4378 56.6551L9.82126 57.1077L10.0966 57.8212L11.0295 57.4613ZM12.8605 56.1173L13.4523 56.9234L14.9868 55.797L13.1886 55.1726L12.8605 56.1173ZM11.5385 55.6113L11.9301 54.6911L11.4069 54.4684L10.948 54.8043L11.5385 55.6113ZM10.3155 56.5063L9.71387 57.305L10.3069 57.7517L10.9061 57.3132L10.3155 56.5063ZM9.53153 56.1213H8.53153V56.8975L9.28347 57.09L9.53153 56.1213ZM9.53153 54.5643H10.5315V54.007L10.0577 53.7139L9.53153 54.5643ZM8.34153 53.7583L8.94424 52.9603L7.34153 51.7497V53.7583H8.34153ZM8.34153 56.1283L8.60126 57.0939L9.34153 56.8948V56.1283H8.34153ZM7.56653 56.5243L6.97505 57.3306L7.59323 57.784L8.19164 57.3048L7.56653 56.5243ZM4.52653 54.2943H3.52653V54.8009L3.93505 55.1006L4.52653 54.2943ZM4.52753 54.2233L3.53889 54.3736L3.54435 54.4095L3.55239 54.4449L4.52753 54.2233ZM4.05253 51.0993L5.04117 50.9489L5.04075 50.9462L4.05253 51.0993ZM3.41053 50.6273L3.26596 49.6378L3.2655 49.6378L3.41053 50.6273ZM2.94053 51.2693L1.95182 51.4192L1.95213 51.4211L2.94053 51.2693ZM3.26153 53.3583L2.67187 54.1659L4.61541 55.5849L4.24993 53.2064L3.26153 53.3583ZM2.29453 52.6523L1.29466 52.6688L1.30288 53.1664L1.70487 53.4599L2.29453 52.6523ZM1.90353 51.8663L2.4981 51.0622L2.49441 51.0595L1.90353 51.8663ZM0.511527 52.0833L-0.292384 51.4885L-0.292574 51.4888L0.511527 52.0833ZM0.723527 53.4773L1.31757 52.6728L1.31623 52.6718L0.723527 53.4773ZM1.58953 53.6173L2.18023 52.8104L1.77583 52.5143L1.29662 52.6611L1.58953 53.6173ZM2.53753 54.3113L2.6876 55.2999L5.08405 54.9362L3.12823 53.5044L2.53753 54.3113ZM0.475527 54.6243L0.325451 53.6356L0.322737 53.636L0.475527 54.6243ZM0.00652728 55.2673L-0.98211 55.4176L-0.981469 55.4217L0.00652728 55.2673ZM0.645527 55.7363L0.494587 54.7477L0.492737 54.748L0.645527 55.7363ZM3.76953 55.2593V54.2593H3.69362L3.61859 54.2707L3.76953 55.2593ZM3.81053 55.2413L4.40383 54.4363L4.00828 54.1447L3.53581 54.2797L3.81053 55.2413ZM6.86053 57.4893L7.79686 57.8404L8.06224 57.1327L7.45383 56.6843L6.86053 57.4893ZM6.86053 59.0473L7.45315 59.8527L8.05906 59.4069L7.79874 58.7012L6.86053 59.0473ZM3.81053 61.2913L3.51644 62.247L3.99763 62.3951L4.40315 62.0967L3.81053 61.2913ZM3.76953 61.2793L3.61766 62.2677L3.69315 62.2793H3.76953V61.2793ZM0.645527 60.7993L0.473776 61.7844L0.483702 61.7861L0.49366 61.7877L0.645527 60.7993ZM0.00652728 61.2723L-0.981323 61.1168L-0.981956 61.1209L0.00652728 61.2723ZM0.475527 61.9073L0.627009 60.9188L0.618325 60.9175L0.609619 60.9163L0.475527 61.9073ZM2.53753 62.2233L3.12878 63.0297L5.07779 61.6009L2.68901 61.2348L2.53753 62.2233ZM1.58953 62.9183L1.32469 63.8825L1.79088 64.0106L2.18078 63.7247L1.58953 62.9183ZM0.723527 63.0593L1.313 63.867L1.31354 63.8666L0.723527 63.0593ZM0.511527 64.4553L-0.292574 65.0497L-0.291739 65.0509L0.511527 64.4553ZM1.90553 64.6663L1.32103 63.8548L1.31282 63.8608L1.90553 64.6663ZM2.29653 63.8813L1.70524 63.0748L1.30485 63.3684L1.29666 63.8648L2.29653 63.8813ZM3.26353 63.1723L4.25196 63.3239L4.61786 60.9393L2.67224 62.3658L3.26353 63.1723ZM2.94253 65.2643L1.95409 65.1126L1.95357 65.1161L2.94253 65.2643ZM3.41253 65.9073L3.25441 66.8947L3.26747 66.8968L3.28057 66.8985L3.41253 65.9073ZM4.05453 65.4343L5.04223 65.5907L5.04313 65.5848L4.05453 65.4343ZM4.52953 62.3153L3.54625 62.1332L3.54333 62.1489L3.54093 62.1647L4.52953 62.3153ZM4.52853 62.2433L3.93645 61.4374L3.52853 61.7371V62.2433H4.52853ZM7.56653 60.0113L8.19374 59.2324L7.5945 58.7498L6.97445 59.2054L7.56653 60.0113ZM8.34353 60.4073H9.34353V59.6407L8.60326 59.4416L8.34353 60.4073ZM8.34353 64.2003L9.08068 64.876L9.34353 64.5892V64.2003H8.34353ZM8.30953 64.2213L7.67629 63.4473L7.63751 63.479L7.6021 63.5145L8.30953 64.2213ZM6.07553 66.4573L6.77942 67.1676L6.78295 67.164L6.07553 66.4573ZM6.07553 67.2463L6.79221 66.5489L6.77938 66.5357L6.76608 66.523L6.07553 67.2463ZM6.86953 67.2463L6.16361 66.5379L6.15924 66.5423L6.86953 67.2463ZM8.34353 65.7773H9.34353V63.3688L7.63762 65.0689L8.34353 65.7773ZM8.34353 66.9513L8.95098 67.7456L9.34353 67.4454V66.9513H8.34353ZM9.53353 66.9513H8.53353V67.4521L8.93459 67.752L9.53353 66.9513ZM9.53353 65.7543L10.2387 65.0453L8.53353 63.3491V65.7543H9.53353ZM11.0335 67.2463L11.755 66.5539L11.747 66.5455L11.7387 66.5373L11.0335 67.2463ZM11.8255 67.2463L11.135 66.523L11.1233 66.5341L11.112 66.5456L11.8255 67.2463ZM11.8255 66.4573L11.1176 67.1636L11.1216 67.1676L11.8255 66.4573ZM9.59453 64.2213L10.3024 63.5149L10.2679 63.4804L10.2302 63.4493L9.59453 64.2213ZM9.53453 64.1883H8.53453V64.7686L9.03839 65.0565L9.53453 64.1883ZM9.53453 60.4153L9.27395 59.4498L8.53453 59.6494V60.4153H9.53453ZM10.3185 60.0263L10.9111 59.2207L10.3059 58.7755L9.70981 59.2329L10.3185 60.0263ZM13.3745 62.2743H14.3745V61.7684L13.9671 61.4687L13.3745 62.2743ZM13.3695 62.3153H12.3695V62.3916L12.3811 62.467L13.3695 62.3153ZM13.8485 65.4343L12.8601 65.5861L12.8608 65.5907L13.8485 65.4343ZM14.4855 65.9073L14.6192 66.8983L14.6299 66.8968L14.6407 66.8951L14.4855 65.9073ZM14.9585 65.2643L13.97 65.4155L13.9705 65.4187L14.9585 65.2643ZM14.6435 63.2053L15.237 62.4004L13.289 60.9641L13.655 63.3565L14.6435 63.2053ZM15.5915 63.9043L16.5915 63.8975L16.5881 63.3966L16.185 63.0994L15.5915 63.9043ZM15.9785 64.6853L16.571 63.8796L16.565 63.8753L15.9785 64.6853ZM17.3755 64.4783L18.1771 65.0762L18.1818 65.0699L18.1863 65.0635L17.3755 64.4783ZM17.1635 63.0763L17.7655 62.2778L17.7635 62.2763L17.1635 63.0763ZM16.2975 62.9413L15.7048 63.7466L16.1103 64.0451L16.5916 63.897L16.2975 62.9413ZM15.3315 62.2303L15.1784 61.242L12.8022 61.6102L14.7388 63.0356L15.3315 62.2303ZM17.4225 61.9063L17.2897 60.9151L17.2796 60.9165L17.2694 60.918L17.4225 61.9063ZM17.8935 61.2713L16.9053 61.4245L16.9055 61.4257L17.8935 61.2713ZM72.8315 40.4213L71.8339 40.4901L71.9148 41.6624L73.059 41.395L72.8315 40.4213ZM66.1475 30.2583L66.6803 29.412L66.6796 29.4115L66.1475 30.2583ZM50.3275 28.1753L49.396 28.539L49.7372 29.4126L50.6309 29.1281L50.3275 28.1753ZM30.4715 16.9243L30.6006 17.9159L30.6008 17.9159L30.4715 16.9243ZM14.9155 33.7993L15.1837 34.7626L15.9155 34.5589V33.7993H14.9155ZM20.8505 55.2373L20.8478 54.2373H20.8472L20.8505 55.2373ZM73.7005 55.2373L73.7087 56.2372H73.7088L73.7005 55.2373ZM83.4485 45.8133L82.4998 46.1294L82.5 46.1299L83.4485 45.8133ZM89.7515 27.5313L88.8028 27.8473L88.803 27.848L89.7515 27.5313ZM83.3515 24.2813L82.354 24.3513L82.4361 25.522L83.579 25.255L83.3515 24.2813ZM79.3205 18.1533L79.8535 17.3071L79.8525 17.3065L79.3205 18.1533ZM69.7815 16.8983L68.8499 17.2617L69.191 18.136L70.0852 17.851L69.7815 16.8983ZM57.8065 10.1133L57.9354 11.1049L57.9357 11.1049L57.8065 10.1133ZM48.5605 18.9443L47.5728 18.788L47.4909 19.3055L47.8699 19.6674L48.5605 18.9443ZM52.5565 24.1043L51.6816 24.5885L52.0378 25.232L52.7581 25.0837L52.5565 24.1043ZM68.3325 27.1553L68.8651 26.3088L68.8645 26.3085L68.3325 27.1553ZM74.2305 33.2353L73.3674 33.7402L73.657 34.2353H74.2305V33.2353ZM83.8755 33.2163L83.8829 34.2162L83.8839 34.2162L83.8755 33.2163ZM37.5 55.2445L38.4051 55.6697L39.0737 54.2467L37.5014 54.2445L37.5 55.2445ZM32 66.9513L31.0949 66.526L30.2731 68.2753L32.1757 67.9357L32 66.9513ZM40.5 65.4343L41.3971 65.8761L42.2707 64.1024L40.3243 64.4498L40.5 65.4343ZM30.4715 85.7953L29.5744 85.3534L31.276 86.3893L30.4715 85.7953ZM48.5605 61.3003L49.365 61.8943L50.7057 60.0788L48.4601 60.3053L48.5605 61.3003ZM38.5 62.3153L37.8146 61.5871L35.6697 63.6059L38.6004 63.3102L38.5 62.3153ZM46 55.2563L46.0013 54.2563L45.604 54.2557L45.3146 54.5281L46 55.2563ZM18.5707 81.2748L16.6237 81.5738L16.9273 83.5507L18.8743 83.2517L18.5707 81.2748ZM16.5465 81.5888C16.4875 81.6027 16.4373 81.6198 16.397 81.6357C16.3776 81.6433 16.3616 81.6503 16.3501 81.6555C16.3392 81.6603 16.3303 81.6645 16.3284 81.6654C16.3242 81.6674 16.329 81.6651 16.3338 81.6629C16.3399 81.6601 16.3512 81.6551 16.3657 81.6491C16.3963 81.6366 16.4389 81.6211 16.491 81.6081L16.9761 83.5484C17.0056 83.541 17.033 83.5328 17.0582 83.5243C17.0833 83.5159 17.1051 83.5075 17.1232 83.5001C17.1411 83.4928 17.1556 83.4863 17.1649 83.4821C17.1696 83.4799 17.1734 83.4781 17.1758 83.477C17.177 83.4764 17.1781 83.476 17.1787 83.4757C17.179 83.4755 17.1794 83.4754 17.1795 83.4753C17.1798 83.4752 17.1798 83.4751 17.1799 83.4751C17.1812 83.4745 17.1755 83.4772 17.1679 83.4806C17.1597 83.4843 17.147 83.4898 17.1311 83.4961C17.115 83.5024 17.0959 83.5094 17.0743 83.5164C17.0525 83.5233 17.0292 83.5299 17.0046 83.5357L16.5465 81.5888ZM17.3255 81.7723L15.4315 80.3813L14.2476 81.9932L16.1416 83.3842L17.3255 81.7723ZM15.7744 81.5423C15.8676 81.2967 15.9375 81.0095 15.9375 80.6853H13.9375C13.9375 80.7171 13.9314 80.7618 13.9047 80.8322L15.7744 81.5423ZM15.9375 80.6853C15.9375 80.3611 15.8676 80.0738 15.7744 79.8282L13.9047 80.5383C13.9314 80.6087 13.9375 80.6535 13.9375 80.6853H15.9375ZM15.4334 80.9878L17.3274 79.5898L16.1397 77.9807L14.2457 79.3787L15.4334 80.9878ZM16.2629 79.6676C16.252 79.6618 16.2353 79.6523 16.2514 79.6614C16.2586 79.6655 16.2918 79.6844 16.3348 79.7042C16.4404 79.753 16.5906 79.8013 16.7755 79.8013V77.8013C16.8522 77.8013 16.9285 77.8106 17.0024 77.8287C17.0748 77.8465 17.1327 77.8698 17.1728 77.8883C17.2092 77.9051 17.2361 77.9205 17.2366 77.9209C17.2461 77.9262 17.2226 77.9128 17.2041 77.9029L16.2629 79.6676ZM16.6218 79.7894L18.5688 80.0924L18.8763 78.1161L16.9293 77.8131L16.6218 79.7894ZM18.5724 80.0929C19.3151 80.2057 19.9968 79.6905 20.1113 78.9652L18.1358 78.6533C18.1903 78.308 18.512 78.0608 18.8726 78.1156L18.5724 80.0929ZM20.1136 78.95C20.2181 78.2146 19.7171 77.534 18.984 77.4209L18.6791 79.3976C18.322 79.3425 18.085 79.0099 18.1335 78.6685L20.1136 78.95ZM18.9807 77.4204L17.6747 77.2234L17.3764 79.2011L18.6824 79.3981L18.9807 77.4204ZM18.1206 79.0159L18.7216 78.5709L17.5315 76.9636L16.9305 77.4086L18.1206 79.0159ZM17.8441 78.7265C18.2705 78.8521 18.8074 78.8242 19.2649 78.4824L18.0681 76.8801C18.2016 76.7803 18.3426 76.7884 18.409 76.808L17.8441 78.7265ZM19.26 78.4861C19.983 77.953 20.1353 76.9387 19.6044 76.2161L17.9927 77.4004C17.8718 77.2358 17.9061 76.9995 18.073 76.8764L19.26 78.4861ZM19.6059 76.2182C19.0768 75.4943 18.0586 75.3413 17.3378 75.8677L18.5173 77.4829C18.3525 77.6032 18.1183 77.5722 17.9912 77.3983L19.6059 76.2182ZM17.3291 75.8741C16.8895 76.2024 16.6855 76.6992 16.6855 77.1673H18.6855C18.6855 77.2654 18.6415 77.3901 18.5259 77.4764L17.3291 75.8741ZM17.0949 76.3603L16.5019 76.7943L17.6831 78.4082L18.2761 77.9742L17.0949 76.3603ZM18.0809 77.753L18.2779 76.47L16.3011 76.1665L16.1041 77.4495L18.0809 77.753ZM18.2784 76.4668C18.3866 75.7471 17.9033 75.0384 17.1416 74.9251L16.8474 76.9034C16.4758 76.8481 16.2505 76.5034 16.3006 76.1697L18.2784 76.4668ZM17.1338 74.924C16.3875 74.819 15.7322 75.3363 15.6103 76.0381L17.5808 76.3804C17.5249 76.7022 17.2176 76.9555 16.8553 76.9045L17.1338 74.924ZM15.6071 76.0578L15.3081 78.0088L17.285 78.3117L17.584 76.3607L15.6071 76.0578ZM15.2965 78.1603C15.2965 78.1924 15.298 78.221 15.3 78.2452C15.302 78.2693 15.3046 78.2902 15.3069 78.3066C15.3092 78.323 15.3115 78.3364 15.3131 78.3454C15.3147 78.3539 15.316 78.361 15.3163 78.3622C15.3165 78.3637 15.3164 78.3628 15.3163 78.3624C15.3161 78.3616 15.3157 78.3595 15.3152 78.3568C15.3143 78.3516 15.3124 78.341 15.3103 78.3274C15.3082 78.3137 15.3056 78.2943 15.3035 78.2709C15.3014 78.2475 15.2995 78.2178 15.2995 78.1833H17.2995C17.2995 78.147 17.2976 78.1155 17.2953 78.0902C17.293 78.065 17.2902 78.0438 17.2878 78.0282C17.2855 78.0128 17.2832 78.0003 17.2819 77.9932C17.2812 77.9895 17.2807 77.9865 17.2803 77.9848C17.2801 77.9834 17.2797 77.9815 17.2798 77.982C17.2798 77.982 17.2798 77.982 17.2798 77.9821C17.2798 77.9821 17.2798 77.9822 17.2798 77.9822C17.2799 77.9823 17.2799 77.9825 17.2799 77.9827C17.28 77.9832 17.2802 77.9839 17.2803 77.9848C17.2807 77.9866 17.2812 77.9894 17.2818 77.993C17.2831 78 17.2851 78.0115 17.2871 78.0259C17.2891 78.0403 17.2915 78.0592 17.2933 78.0813C17.2951 78.1035 17.2965 78.1301 17.2965 78.1603H15.2965ZM15.7073 77.3774L13.8023 78.7775L14.9867 80.3891L16.8917 78.9891L15.7073 77.3774ZM14.9954 78.7839C14.7521 78.601 14.4735 78.4613 14.1658 78.378L13.6432 80.3085C13.6976 80.3232 13.747 80.3475 13.7936 80.3826L14.9954 78.7839ZM14.9045 79.3433V76.9893H12.9045V79.3433H14.9045ZM14.4007 77.8575C14.432 77.8396 14.459 77.8229 14.4794 77.8099L13.4057 76.1226C13.4041 76.1236 13.4051 76.1229 13.4084 76.121L14.4007 77.8575ZM14.6506 77.6723L16.0426 76.2763L14.6264 74.8642L13.2344 76.2602L14.6506 77.6723ZM16.0391 76.2799C16.5681 75.7547 16.5757 74.8915 16.0338 74.3614L14.6352 75.7911C14.3694 75.531 14.377 75.1118 14.63 74.8606L16.0391 76.2799ZM16.0442 74.3717C15.5157 73.8393 14.6595 73.8431 14.1334 74.3691L15.5476 75.7834C15.2955 76.0355 14.8814 76.0392 14.6248 75.7808L16.0442 74.3717ZM14.1334 74.3691L13.1974 75.3051L14.6116 76.7194L15.5476 75.7834L14.1334 74.3691ZM14.9045 76.0123V75.2643H12.9045V76.0123H14.9045ZM14.5247 76.0487C14.8565 75.7864 15.1575 75.3481 15.1575 74.7743H13.1575C13.1575 74.6064 13.2485 74.5081 13.2844 74.4798L14.5247 76.0487ZM15.1575 74.7743C15.1575 73.8841 14.4319 73.1513 13.5335 73.1513V75.1513C13.3232 75.1513 13.1575 74.9845 13.1575 74.7743H15.1575ZM13.5335 73.1513C12.6352 73.1513 11.9095 73.8841 11.9095 74.7743H13.9095C13.9095 74.9845 13.7439 75.1513 13.5335 75.1513V73.1513ZM11.9095 74.7743C11.9095 75.3423 12.2032 75.7832 12.5439 76.0508L13.7791 74.4778C13.8004 74.4945 13.8323 74.5258 13.8603 74.5778C13.89 74.633 13.9095 74.7016 13.9095 74.7743H11.9095ZM12.1615 75.2643V75.9933H14.1615V75.2643H12.1615ZM13.8679 75.2854L12.9459 74.3654L11.5332 75.7811L12.4552 76.7011L13.8679 75.2854ZM12.9492 74.3687C12.4207 73.8363 11.5635 73.8401 11.0374 74.3661L12.4516 75.7804C12.1995 76.0325 11.7864 76.0362 11.5298 75.7778L12.9492 74.3687ZM11.0452 74.3584C10.5034 74.8885 10.511 75.7517 11.04 76.2769L12.4491 74.8576C12.7021 75.1088 12.7097 75.528 12.4438 75.7881L11.0452 74.3584ZM11.0374 76.2744L12.4334 77.6704L13.8476 76.2561L12.4516 74.8601L11.0374 76.2744ZM12.5158 77.7441C12.535 77.7595 12.5514 77.7714 12.5624 77.7793C12.5733 77.7871 12.5823 77.7931 12.5863 77.7959C12.5889 77.7976 12.5947 77.8015 12.5917 77.7995C12.5911 77.799 12.5873 77.7965 12.5822 77.793C12.5602 77.7778 12.51 77.742 12.4544 77.6864L13.8686 76.2721C13.805 76.2086 13.7469 76.1667 13.7176 76.1465C13.7107 76.1418 13.7051 76.138 13.7028 76.1365C13.6981 76.1333 13.7023 76.1361 13.7032 76.1368C13.7052 76.1381 13.7325 76.1562 13.7652 76.1824L12.5158 77.7441ZM12.1615 76.9793V79.3463H14.1615V76.9793H12.1615ZM12.8917 78.3833C12.6011 78.4648 12.3035 78.6008 12.0346 78.8272L13.3225 80.3573C13.3315 80.3497 13.3579 80.3297 13.4314 80.3092L12.8917 78.3833ZM13.2689 78.7851L11.3699 77.3961L10.1892 79.0104L12.0882 80.3994L13.2689 78.7851ZM11.7795 78.2033C11.7795 78.2492 11.776 78.2854 11.7739 78.3035C11.7731 78.3105 11.7722 78.3171 11.7728 78.3121C11.7731 78.3105 11.7748 78.2971 11.7765 78.2812C11.7799 78.2477 11.7859 78.1776 11.779 78.0895C11.7717 77.9961 11.7515 77.9002 11.7159 77.8051L9.8432 78.5074C9.81056 78.4203 9.79186 78.3318 9.78511 78.2456C9.77878 78.1647 9.78438 78.1015 9.78709 78.0753C9.78836 78.063 9.78965 78.0533 9.78937 78.0555C9.78936 78.0556 9.78935 78.0557 9.78931 78.056C9.78928 78.0563 9.78922 78.0567 9.78917 78.0571C9.78905 78.058 9.78886 78.0595 9.78865 78.0612C9.78822 78.0645 9.78758 78.0697 9.78686 78.076C9.78385 78.1023 9.77953 78.1473 9.77953 78.2033H11.7795ZM11.7684 78.0072L11.4744 76.0562L9.49669 76.3543L9.79069 78.3053L11.7684 78.0072ZM11.4715 76.0383C11.3497 75.3192 10.6764 74.8178 9.94368 74.9198L10.2194 76.9007C9.8746 76.9487 9.55732 76.7133 9.49956 76.3722L11.4715 76.0383ZM9.92986 74.9218C9.18071 75.0368 8.69209 75.7405 8.80063 76.4628L10.7784 76.1657C10.829 76.502 10.6043 76.8417 10.2332 76.8987L9.92986 74.9218ZM8.80126 76.467L9.00326 77.774L10.9798 77.4685L10.7778 76.1615L8.80126 76.467ZM10.584 76.8157L9.97904 76.3707L8.79401 77.9818L9.39901 78.4268L10.584 76.8157ZM10.3864 77.1604C10.3792 76.7059 10.186 76.2089 9.72957 75.8762L8.55149 77.4924C8.49723 77.4528 8.45212 77.398 8.42286 77.3369C8.39498 77.2787 8.38721 77.2275 8.38665 77.1921L10.3864 77.1604ZM9.72677 75.8741C9.01182 75.3568 7.99979 75.501 7.46566 76.2305L9.07939 77.412C8.95526 77.5815 8.71924 77.6138 8.55428 77.4944L9.72677 75.8741ZM7.47357 76.2199C6.92507 76.9485 7.09493 77.971 7.81103 78.4991L8.99802 76.8894C9.15813 77.0075 9.20599 77.2439 9.07148 77.4226L7.47357 76.2199ZM7.82804 78.5114C8.27075 78.8237 8.79475 78.8647 9.23038 78.7342L8.65668 76.8183C8.7383 76.7938 8.86431 76.7948 8.98101 76.8771L7.82804 78.5114ZM8.35293 78.5832L8.94593 79.0172L10.1271 77.4033L9.53412 76.9693L8.35293 78.5832ZM9.3851 77.2218L8.0991 77.4188L8.40195 79.3957L9.68795 79.1987L9.3851 77.2218ZM8.09964 77.4187C7.37133 77.5299 6.85723 78.206 6.96719 78.9529L8.94586 78.6616C8.99782 79.0145 8.74973 79.3426 8.40141 79.3958L8.09964 77.4187ZM6.9681 78.9589C7.07991 79.6876 7.76442 80.2032 8.50687 80.091L8.20818 78.1135C8.56663 78.0593 8.89115 78.3049 8.94496 78.6556L6.9681 78.9589ZM8.51115 80.0904L10.4601 79.7874L10.1529 77.8111L8.20391 78.1141L8.51115 80.0904ZM10.3065 79.7993C10.3904 79.7993 10.4623 79.7888 10.5179 79.777C10.546 79.771 10.5711 79.7644 10.5929 79.758C10.6146 79.7516 10.6338 79.7452 10.65 79.7394C10.6663 79.7336 10.6804 79.728 10.692 79.7233C10.7036 79.7186 10.7134 79.7143 10.7209 79.711C10.7283 79.7077 10.7344 79.7049 10.7382 79.7032C10.7418 79.7015 10.7449 79.7001 10.745 79.7C10.7459 79.6995 10.7439 79.7005 10.7414 79.7017C10.7387 79.7029 10.7336 79.7053 10.7272 79.7081C10.7208 79.7109 10.712 79.7147 10.7015 79.719C10.691 79.7233 10.6779 79.7284 10.6627 79.7339C10.6475 79.7393 10.6294 79.7454 10.6087 79.7515C10.588 79.7576 10.5639 79.7639 10.5368 79.7697C10.4832 79.7811 10.4134 79.7913 10.3315 79.7913V77.7913C10.2476 77.7913 10.1758 77.8017 10.1201 77.8135C10.0921 77.8195 10.0669 77.8261 10.0452 77.8325C10.0235 77.8389 10.0043 77.8453 9.98802 77.8511C9.97177 77.8569 9.95763 77.8625 9.94606 77.8672C9.9345 77.8719 9.92468 77.8762 9.91718 77.8795C9.90972 77.8828 9.90364 77.8856 9.89983 77.8874C9.89628 77.889 9.89318 77.8905 9.89308 77.8905C9.89211 77.891 9.89416 77.89 9.89664 77.8888C9.89939 77.8876 9.90441 77.8853 9.91081 77.8824C9.91726 77.8796 9.92602 77.8758 9.93653 77.8715C9.94704 77.8672 9.96013 77.8621 9.97533 77.8566C9.99053 77.8512 10.0087 77.8451 10.0294 77.839C10.0501 77.8329 10.0742 77.8266 10.1012 77.8209C10.1548 77.8094 10.2246 77.7993 10.3065 77.7993V79.7993ZM9.73879 79.5966L11.6438 80.9986L12.8293 79.3879L10.9243 77.9859L9.73879 79.5966ZM11.2987 79.8461C11.2095 80.0871 11.1435 80.3675 11.1435 80.6833H13.1435C13.1435 80.651 13.1495 80.6074 13.1743 80.5404L11.2987 79.8461ZM11.1435 80.6833C11.1435 80.9955 11.2097 81.2783 11.3017 81.5205L13.1713 80.81C13.1493 80.7522 13.1435 80.711 13.1435 80.6833H11.1435ZM11.6438 80.3599L9.73879 81.7619L10.9243 83.3727L12.8293 81.9706L11.6438 80.3599ZM10.3315 81.5673C10.4847 81.5673 10.6002 81.6036 10.6516 81.6217C10.7073 81.6413 10.7475 81.6617 10.7537 81.6648L9.85931 83.4537C9.87357 83.4608 9.92229 83.4852 9.98642 83.5078C10.0463 83.529 10.1704 83.5673 10.3315 83.5673V81.5673ZM10.4582 81.5708L8.50917 81.2718L8.20589 83.2487L10.1549 83.5477L10.4582 81.5708ZM8.50764 81.2716C7.77681 81.1606 7.0798 81.6601 6.96763 82.4067L8.94543 82.7038C8.89125 83.0644 8.55624 83.3019 8.20741 83.2489L8.50764 81.2716ZM6.96689 82.4117C6.85888 83.1561 7.3743 83.8291 8.09964 83.9398L8.40141 81.9627C8.74675 82.0154 8.99817 82.3404 8.94617 82.6988L6.96689 82.4117ZM8.09611 83.9393L9.38211 84.1403L9.69095 82.1642L8.40495 81.9632L8.09611 83.9393ZM8.94949 82.3427L8.35649 82.7727L9.53056 84.3918L10.1236 83.9618L8.94949 82.3427ZM9.21033 82.6185C8.7953 82.5036 8.27209 82.5324 7.8214 82.8559L8.98765 84.4806C8.86296 84.5701 8.73776 84.5629 8.67673 84.546L9.21033 82.6185ZM7.80361 82.8689C7.09492 83.4017 6.93046 84.4043 7.4654 85.1356L9.07966 83.9549C9.20059 84.1202 9.15813 84.3528 9.00545 84.4676L7.80361 82.8689ZM7.47501 85.1486C8.00352 85.8472 9.00771 86.0133 9.73303 85.4798L8.54803 83.8687C8.72134 83.7412 8.95153 83.7853 9.07005 83.942L7.47501 85.1486ZM9.71663 85.4916C10.1901 85.1579 10.3794 84.6494 10.3864 84.1978L8.38665 84.1667C8.38712 84.1363 8.39372 84.0854 8.42286 84.0246C8.45367 83.9603 8.50276 83.9003 8.56442 83.8569L9.71663 85.4916ZM9.97557 84.9904L10.5806 84.5494L9.40249 82.9332L8.79749 83.3741L9.97557 84.9904ZM9.00326 83.5885L8.80126 84.8955L10.7778 85.201L10.9798 83.894L9.00326 83.5885ZM8.8011 84.8966C8.68935 85.6249 9.18839 86.3229 9.92986 86.4367L10.2332 84.4598C10.5967 84.5156 10.8317 84.8496 10.778 85.1999L8.8011 84.8966ZM9.94368 86.4387C10.6803 86.5412 11.3528 86.0359 11.4722 85.312L9.49886 84.9865C9.55426 84.6506 9.87071 84.4093 10.2194 84.4578L9.94368 86.4387ZM11.4743 85.2989L11.7683 83.3559L9.79078 83.0566L9.49678 84.9996L11.4743 85.2989ZM11.7159 83.5574C11.7964 83.3425 11.7845 83.1581 11.7765 83.0804C11.7736 83.0527 11.7675 83.0114 11.7707 83.034C11.771 83.036 11.7795 83.0916 11.7795 83.1633H9.77953C9.77953 83.2409 9.78883 83.3029 9.79005 83.3116C9.79415 83.3408 9.78919 83.3065 9.78709 83.2862C9.78054 83.2229 9.76863 83.054 9.8432 82.8551L11.7159 83.5574ZM11.3714 83.9693L13.2684 82.5763L12.0846 80.9642L10.1876 82.3572L11.3714 83.9693ZM12.0484 82.5484C12.3128 82.7617 12.6031 82.8929 12.8829 82.9744L13.4421 81.0541C13.3579 81.0296 13.3203 81.0048 13.3046 80.9921L12.0484 82.5484ZM12.1625 82.0143V84.3833H14.1625V82.0143H12.1625ZM12.4554 83.6761C12.5794 83.5522 12.7284 83.483 12.68 83.5089C12.6706 83.5139 12.5951 83.5528 12.513 83.6198C12.4182 83.6972 12.3201 83.8061 12.2471 83.952L14.036 84.8465C13.965 84.9884 13.8694 85.0943 13.7777 85.1692C13.6987 85.2337 13.6267 85.2706 13.6211 85.2736C13.5801 85.2955 13.7376 85.2224 13.8696 85.0904L12.4554 83.6761ZM12.4344 83.6921L11.0384 85.0882L12.4526 86.5024L13.8486 85.1064L12.4344 83.6921ZM11.041 85.0856C10.512 85.6108 10.5044 86.47 11.0462 87.0001L12.4448 85.5704C12.7107 85.8305 12.7031 86.2537 12.4501 86.5049L11.041 85.0856ZM11.0258 86.9795C11.555 87.5282 12.431 87.5282 12.9603 86.9795L11.5208 85.591C11.778 85.3243 12.208 85.3243 12.4653 85.591L11.0258 86.9795ZM12.9453 86.9947L13.8673 86.0787L12.4577 84.6598L11.5357 85.5758L12.9453 86.9947ZM12.1625 85.3693V86.1013H14.1625V85.3693H12.1625ZM12.5449 85.3148C12.2107 85.5772 11.9105 86.0123 11.9105 86.5873H13.9105C13.9105 86.6608 13.8905 86.7322 13.8589 86.7902C13.8294 86.8444 13.797 86.8745 13.7801 86.8878L12.5449 85.3148ZM11.9105 86.5873C11.9105 87.4856 12.6403 88.2103 13.5345 88.2103V86.2103C13.7407 86.2103 13.9105 86.3769 13.9105 86.5873H11.9105ZM13.5345 88.2103C14.4287 88.2103 15.1585 87.4856 15.1585 86.5873H13.1585C13.1585 86.3769 13.3283 86.2103 13.5345 86.2103V88.2103ZM15.1585 86.5873C15.1585 86.0066 14.851 85.5739 14.5257 85.3168L13.2854 86.8857C13.2707 86.8742 13.2398 86.8459 13.211 86.7933C13.1799 86.7367 13.1585 86.6644 13.1585 86.5873H15.1585ZM14.9055 86.1013V85.3533H12.9055V86.1013H14.9055ZM13.1999 86.0619L14.1359 86.9939L15.5471 85.5766L14.6111 84.6446L13.1999 86.0619ZM14.1192 86.9768C14.6508 87.5321 15.5259 87.5243 16.0527 86.9821L14.6183 85.5884C14.8711 85.3282 15.3022 85.3204 15.5638 85.5937L14.1192 86.9768ZM16.0348 87.0001C16.5752 86.4714 16.5714 85.6092 16.0375 85.083L14.6336 86.5075C14.3756 86.2533 14.3718 85.8291 14.6362 85.5704L16.0348 87.0001ZM16.0436 85.0892L14.6516 83.6932L13.2354 85.1053L14.6274 86.5014L16.0436 85.0892ZM14.5317 83.5905C14.4762 83.5501 14.416 83.5135 14.3527 83.4818L13.4583 85.2707C13.423 85.253 13.3889 85.2324 13.3554 85.208L14.5317 83.5905ZM14.9055 84.3763V82.0223H12.9055V84.3763H14.9055ZM14.1851 82.9824C14.4799 82.8965 14.7545 82.7607 14.9991 82.5756L13.792 80.9809C13.7486 81.0138 13.6952 81.042 13.6259 81.0621L14.1851 82.9824ZM13.8033 82.5841L15.7083 83.9841L16.8927 82.3725L14.9877 80.9725L13.8033 82.5841ZM15.3005 83.1783C15.3005 83.1587 15.3011 83.1387 15.3024 83.1184C15.3038 83.098 15.3057 83.0788 15.3079 83.0611C15.3101 83.0435 15.3125 83.0289 15.3143 83.0183C15.3152 83.0131 15.3159 83.009 15.3165 83.0063C15.3167 83.0049 15.3169 83.0038 15.317 83.0032C15.3171 83.0028 15.3172 83.0025 15.3172 83.0024C15.3172 83.0023 15.3172 83.0022 15.3172 83.0022C15.3172 83.0021 15.3172 83.0021 15.3172 83.0021C15.3172 83.0021 15.3172 83.0021 15.3172 83.0021C15.3174 83.0015 15.3169 83.004 15.3164 83.0063C15.3159 83.009 15.3151 83.0135 15.3141 83.0189C15.3121 83.03 15.3094 83.0462 15.3068 83.0659C15.3041 83.0859 15.3017 83.1081 15.3 83.1324C15.2984 83.1566 15.2975 83.1809 15.2975 83.2053H17.2975C17.2975 83.2269 17.2968 83.2486 17.2953 83.2705C17.2938 83.2923 17.2916 83.3124 17.2892 83.3303C17.2869 83.3478 17.2845 83.3621 17.2828 83.3712C17.282 83.3756 17.2814 83.3791 17.2811 83.3808C17.2808 83.3822 17.2805 83.3837 17.2808 83.3822C17.281 83.3811 17.2829 83.3716 17.2849 83.36C17.2871 83.3475 17.2897 83.3307 17.2922 83.3109C17.2947 83.2909 17.2969 83.2694 17.2983 83.2464C17.2998 83.2235 17.3005 83.2008 17.3005 83.1783H15.3005ZM15.3091 83.357L15.6081 85.304L17.5849 85.0005L17.2859 83.0535L15.3091 83.357ZM15.6114 85.3243C15.7334 86.0229 16.3883 86.543 17.1355 86.4374L16.8556 84.4571C17.2207 84.4055 17.5256 84.6596 17.5816 84.9802L15.6114 85.3243ZM17.1426 86.4364C17.8917 86.325 18.3947 85.6247 18.2782 84.8905L16.3029 85.204C16.2463 84.8478 16.4894 84.5115 16.8484 84.4581L17.1426 86.4364ZM18.2789 84.8955L18.0819 83.6125L16.1051 83.916L16.3021 85.199L18.2789 84.8955ZM16.4994 84.5686L17.0924 85.0066L18.2807 83.3979L17.6877 82.9599L16.4994 84.5686ZM16.6865 84.2023C16.6865 84.6685 16.8922 85.1713 17.343 85.4969L18.514 83.8756C18.6409 83.9672 18.6865 84.1 18.6865 84.2023H16.6865ZM17.3313 85.4883C18.0614 86.032 19.0773 85.8605 19.6024 85.1535L17.9967 83.961C18.1178 83.798 18.3517 83.7546 18.5258 83.8842L17.3313 85.4883ZM19.6094 85.1439C20.135 84.4183 19.9815 83.417 19.2684 82.8809L18.0666 84.4796C17.9096 84.3615 17.8741 84.1302 17.9897 83.9706L19.6094 85.1439ZM19.2659 82.8791C18.7968 82.5286 18.2549 82.5183 17.8451 82.639L18.41 84.5575C18.3839 84.5652 18.3377 84.5738 18.2753 84.5656C18.2086 84.557 18.1345 84.5303 18.0691 84.4814L19.2659 82.8791ZM18.7209 82.7933L18.1199 82.3503L16.9332 83.9602L17.5342 84.4032L18.7209 82.7933ZM17.6801 84.1434L18.9861 83.9404L18.6789 81.9641L17.3729 82.1671L17.6801 84.1434ZM18.985 83.9406C19.7054 83.8294 20.226 83.1571 20.1134 82.4077L18.1356 82.7048C18.081 82.3414 18.3357 82.0171 18.6801 81.9639L18.985 83.9406ZM20.1117 82.3969C19.993 81.6615 19.3053 81.1639 18.5732 81.2745L18.8719 83.252C18.5237 83.3046 18.194 83.067 18.1373 82.7156L20.1117 82.3969ZM71.6422 65.1766C71.5183 63.8454 70.7575 62.7596 70.1716 61.8444C69.5497 60.8727 68.9698 59.9008 68.7354 58.5672L66.7656 58.9133C67.0732 60.6637 67.8449 61.9193 68.4872 62.9226C69.1656 63.9824 69.5817 64.6191 69.6508 65.3619L71.6422 65.1766ZM67.7505 57.7403H67.7465V59.7403H67.7505V57.7403ZM66.7618 58.5662C66.5261 59.9001 65.9452 60.8722 65.3225 61.844C64.736 62.7594 63.9747 63.8452 63.8508 65.1766L65.8422 65.3619C65.9113 64.6193 66.3276 63.9826 67.0065 62.923C67.6493 61.9198 68.422 60.6644 68.7313 58.9143L66.7618 58.5662ZM63.8506 65.1789C63.6211 67.709 65.5478 69.5359 67.7437 69.5333L67.7413 67.5333C66.6692 67.5346 65.724 66.6655 65.8424 65.3596L63.8506 65.1789ZM67.7474 69.5332C69.9273 69.5226 71.8769 67.7193 71.6423 65.1774L69.6508 65.3611C69.7702 66.6552 68.8257 67.5279 67.7376 67.5333L67.7474 69.5332ZM76.0912 81.1298C75.9674 79.7961 75.2055 78.7103 74.6186 77.795C73.9958 76.8236 73.4152 75.8523 73.1804 74.518L71.2107 74.8645C71.5189 76.6162 72.2918 77.8714 72.935 78.8745C73.6141 79.9337 74.0307 80.5704 74.0998 81.3147L76.0912 81.1298ZM72.1955 73.6913H72.1915V75.6913H72.1955V73.6913ZM71.2068 74.5173C70.971 75.8523 70.3906 76.824 69.7686 77.7956C69.1823 78.7114 68.4223 79.797 68.2997 81.1307L70.2913 81.3138C70.3597 80.5695 70.7752 79.9326 71.453 78.8739C72.095 77.871 72.8671 76.6162 73.1763 74.8652L71.2068 74.5173ZM68.2998 81.1298C68.0647 83.6627 69.9983 85.4896 72.191 85.4843L72.1861 83.4843C71.1167 83.4869 70.1703 82.6178 70.2912 81.3147L68.2998 81.1298ZM72.191 85.4843C74.3766 85.4789 76.3258 83.6716 76.0913 81.1304L74.0998 81.3141C74.2192 82.6089 73.2745 83.4816 72.1861 83.4843L72.191 85.4843ZM65.1733 75.8681C65.0395 74.4227 64.2132 73.2432 63.5574 72.2196C62.8654 71.1397 62.2096 70.0435 61.9433 68.5345L59.9737 68.882C60.3134 70.807 61.1606 72.1863 61.8734 73.2986C62.6223 74.4673 63.1026 75.1968 63.1818 76.0524L65.1733 75.8681ZM60.9585 67.7083H60.9545V69.7083H60.9585V67.7083ZM59.9696 68.535C59.7042 70.0441 59.0493 71.1403 58.3583 72.2201C57.7034 73.2438 56.8783 74.4234 56.7457 75.8689L58.7374 76.0516C58.8158 75.1961 59.2952 74.4667 60.043 73.2981C60.7548 72.1857 61.6008 70.8064 61.9394 68.8815L59.9696 68.535ZM56.7459 75.8663C56.487 78.6113 58.5766 80.5957 60.9589 80.5852L60.9501 78.5853C59.6984 78.5908 58.594 77.5712 58.7371 76.0542L56.7459 75.8663ZM60.9589 80.5852C63.3199 80.5748 65.4253 78.6219 65.1734 75.8691L63.1817 76.0514C63.3198 77.5606 62.2152 78.5797 60.9501 78.5853L60.9589 80.5852ZM82.8194 68.8039C82.6766 67.2292 81.778 65.9438 81.0441 64.8004C80.274 63.6005 79.5353 62.372 79.2362 60.6811L77.2668 61.0294C77.6397 63.1376 78.5711 64.65 79.361 65.8807C80.187 67.1677 80.7385 68.0023 80.8276 68.9846L82.8194 68.8039ZM78.2515 59.8553H78.2475V61.8553H78.2515V59.8553ZM77.2626 60.6821C76.9654 62.3728 76.2282 63.6012 75.459 64.8007C74.7259 65.944 73.8277 67.2291 73.6837 68.8031L75.6754 68.9854C75.7653 68.0024 76.3172 67.1675 77.1426 65.8803C77.9319 64.6493 78.8617 63.1367 79.2324 61.0284L77.2626 60.6821ZM73.6838 68.8019C73.4078 71.7772 75.6728 73.9206 78.25 73.9142L78.245 71.9143C76.7923 71.9179 75.5132 70.7333 75.6753 68.9866L73.6838 68.8019ZM78.252 73.9142C80.8138 73.9028 83.0935 71.7859 82.8193 68.8027L80.8277 68.9858C80.9875 70.7246 79.7092 71.9077 78.2431 71.9143L78.252 73.9142ZM17.0984 59.8119L13.9804 60.2919L14.2847 62.2686L17.4027 61.7886L17.0984 59.8119ZM14.1325 60.2803C13.9507 60.2803 13.8112 60.326 13.7352 60.3557C13.711 60.3651 13.6775 60.3797 13.6914 60.3738C13.6941 60.3726 13.7178 60.3624 13.7503 60.3516L14.3828 62.2489C14.4273 62.2341 14.462 62.2194 14.4753 62.2137C14.4786 62.2123 14.4816 62.211 14.4827 62.2105C14.4843 62.2098 14.4839 62.21 14.4832 62.2103C14.4817 62.211 14.4736 62.2144 14.4623 62.2188C14.4391 62.2279 14.3942 62.2443 14.3351 62.2577C14.2736 62.2715 14.2055 62.2803 14.1325 62.2803V60.2803ZM14.6582 60.4941L11.6212 58.2651L10.4378 59.8774L13.4748 62.1064L14.6582 60.4941ZM11.9585 59.4413C12.0991 59.0884 12.1865 58.6911 12.1865 58.2663H10.1865C10.1865 58.4154 10.1559 58.5621 10.1005 58.7012L11.9585 59.4413ZM12.1865 58.2663C12.1865 57.8461 12.0978 57.452 11.9625 57.1013L10.0966 57.8212C10.1572 57.9785 10.1865 58.1284 10.1865 58.2663H12.1865ZM11.6213 58.2674L13.4523 56.9234L12.2688 55.3111L10.4378 56.6551L11.6213 58.2674ZM13.1886 55.1726C12.7501 55.0203 12.3279 54.8604 11.9301 54.6911L11.147 56.5314C11.5951 56.7221 12.0609 56.8982 12.5325 57.0619L13.1886 55.1726ZM10.948 54.8043L9.72497 55.6993L10.9061 57.3132L12.1291 56.4182L10.948 54.8043ZM10.9172 55.7075C10.5964 55.4659 10.2143 55.2638 9.77958 55.1525L9.28347 57.09C9.42675 57.1267 9.57263 57.1986 9.71387 57.305L10.9172 55.7075ZM10.5315 56.1213V54.5643H8.53153V56.1213H10.5315ZM10.0577 53.7139C9.65811 53.4666 9.28841 53.2203 8.94424 52.9603L7.73881 54.5562C8.14664 54.8643 8.57094 55.1459 9.00538 55.4146L10.0577 53.7139ZM7.34153 53.7583V56.1283H9.34153V53.7583H7.34153ZM8.08179 55.1626C7.64956 55.2788 7.26763 55.4825 6.94141 55.7437L8.19164 57.3048C8.31743 57.204 8.4535 57.1337 8.60126 57.0939L8.08179 55.1626ZM8.15801 55.7179L5.11801 53.4879L3.93505 55.1006L6.97505 57.3306L8.15801 55.7179ZM5.52653 54.2943C5.52653 54.3204 5.52518 54.3406 5.52448 54.3497C5.5242 54.3535 5.52395 54.3561 5.52423 54.353C5.52433 54.3518 5.52515 54.3428 5.52589 54.3333C5.52894 54.2941 5.53923 54.1626 5.50266 54.0016L3.55239 54.4449C3.52082 54.306 3.53061 54.1949 3.53191 54.1782C3.53222 54.1743 3.53252 54.171 3.53209 54.1758C3.53184 54.1786 3.53106 54.1873 3.53029 54.1975C3.52862 54.2193 3.52653 54.2531 3.52653 54.2943H5.52653ZM5.51616 54.0729L5.04116 50.9489L3.06389 51.2496L3.53889 54.3736L5.51616 54.0729ZM5.04075 50.9462C4.9075 50.0857 4.109 49.5146 3.26596 49.6378L3.5551 51.6167C3.32806 51.6499 3.10156 51.4929 3.0643 51.2523L5.04075 50.9462ZM3.2655 49.6378C2.39984 49.7647 1.82332 50.5716 1.95183 51.4192L3.92923 51.1194C3.96373 51.3469 3.80722 51.5798 3.55556 51.6167L3.2655 49.6378ZM1.95213 51.4211L2.27313 53.5101L4.24993 53.2064L3.92893 51.1174L1.95213 51.4211ZM3.85119 52.5506L2.88419 51.8446L1.70487 53.4599L2.67187 54.1659L3.85119 52.5506ZM3.29439 52.6358C3.28496 52.0645 3.04209 51.4645 2.49809 51.0622L1.30896 52.6703C1.30818 52.6697 1.30503 52.6672 1.3012 52.6625C1.29746 52.6579 1.29486 52.6536 1.29335 52.6504C1.29034 52.6441 1.29433 52.6488 1.29466 52.6688L3.29439 52.6358ZM2.49441 51.0595C1.60307 50.4067 0.357313 50.6103 -0.292384 51.4885L1.31544 52.678C1.31588 52.6774 1.31618 52.6771 1.31633 52.6769C1.31641 52.6768 1.31647 52.6768 1.3165 52.6767C1.31651 52.6767 1.31652 52.6767 1.31653 52.6767C1.31654 52.6767 1.31654 52.6767 1.31654 52.6767C1.31654 52.6767 1.31654 52.6767 1.31654 52.6767C1.31653 52.6767 1.31652 52.6767 1.31652 52.6767C1.3165 52.6767 1.31649 52.6767 1.31647 52.6767C1.31644 52.6768 1.31643 52.6768 1.31646 52.6767C1.3167 52.6766 1.3177 52.6761 1.31916 52.6759C1.32061 52.6757 1.32051 52.676 1.31862 52.6756C1.3176 52.6753 1.31631 52.6749 1.31496 52.6743C1.31431 52.674 1.31375 52.6737 1.3133 52.6734C1.31286 52.6732 1.31263 52.673 1.31264 52.673L2.49441 51.0595ZM-0.292574 51.4888C-0.953361 52.3825 -0.753701 53.6318 0.130825 54.2827L1.31623 52.6718C1.31512 52.671 1.31494 52.6707 1.31522 52.671C1.31547 52.6713 1.31577 52.6717 1.31602 52.6721C1.31626 52.6725 1.31636 52.6728 1.3164 52.6729C1.31642 52.6729 1.31642 52.673 1.31642 52.673C1.31642 52.673 1.31642 52.673 1.31642 52.673C1.31642 52.673 1.31642 52.673 1.31642 52.673C1.31642 52.673 1.31643 52.673 1.31643 52.6731C1.31644 52.6732 1.31644 52.6733 1.31643 52.6735C1.31642 52.674 1.31635 52.6747 1.31612 52.6756C1.31589 52.6766 1.31556 52.6775 1.31523 52.6782C1.31487 52.679 1.31482 52.6788 1.31563 52.6777L-0.292574 51.4888ZM0.129484 54.2817C0.671562 54.682 1.32925 54.7429 1.88243 54.5734L1.29662 52.6611C1.29402 52.6619 1.292 52.6622 1.29098 52.6623C1.29001 52.6624 1.29077 52.6622 1.29326 52.6626C1.29588 52.6629 1.29999 52.6639 1.30499 52.6659C1.31016 52.668 1.31454 52.6706 1.31757 52.6728L0.129484 54.2817ZM0.998828 54.4241L1.94683 55.1181L3.12823 53.5044L2.18023 52.8104L0.998828 54.4241ZM2.38745 53.3226L0.325452 53.6356L0.625602 55.6129L2.6876 55.2999L2.38745 53.3226ZM0.322737 53.636C-0.528319 53.7676 -1.11167 54.5658 -0.982102 55.4176L0.995156 55.1169C1.03073 55.3507 0.871373 55.5749 0.628317 55.6125L0.322737 53.636ZM-0.981469 55.4217C-0.848505 56.2721 -0.0524016 56.856 0.798317 56.7245L0.492737 54.748C0.735456 54.7105 0.957559 54.8764 0.994524 55.1128L-0.981469 55.4217ZM0.796467 56.7248L3.92047 56.2478L3.61859 54.2707L0.494587 54.7477L0.796467 56.7248ZM3.76953 56.2593C3.93203 56.2593 4.06307 56.2208 4.15026 56.186C4.23181 56.1536 4.29156 56.1173 4.3073 56.1078C4.31345 56.1041 4.32657 56.096 4.31948 56.1003C4.31808 56.1012 4.30664 56.1083 4.29119 56.117C4.26302 56.1329 4.18902 56.1731 4.08525 56.2028L3.53581 54.2797C3.42503 54.3114 3.34428 54.3549 3.30945 54.3745C3.29068 54.3851 3.27593 54.3942 3.27123 54.3971C3.26084 54.4035 3.27067 54.3974 3.2735 54.3957C3.28262 54.3902 3.33568 54.3577 3.41032 54.328C3.49061 54.296 3.61453 54.2593 3.76953 54.2593V56.2593ZM3.21722 56.0462L6.26722 58.2942L7.45383 56.6843L4.40383 54.4363L3.21722 56.0462ZM5.9242 57.1381C5.79832 57.4738 5.71453 57.8548 5.71453 58.2663H7.71453C7.71453 58.1277 7.74274 57.9847 7.79686 57.8404L5.9242 57.1381ZM5.71453 58.2663C5.71453 58.6783 5.79858 59.0578 5.92232 59.3933L7.79874 58.7012C7.74248 58.5487 7.71453 58.4042 7.71453 58.2663H5.71453ZM6.2679 58.2418L3.2179 60.4858L4.40315 62.0967L7.45315 59.8527L6.2679 58.2418ZM4.10461 60.3355C4.14632 60.3483 4.17733 60.3612 4.18007 60.3624C4.19498 60.3685 4.16504 60.356 4.14424 60.3482C4.08551 60.326 3.94941 60.2793 3.76953 60.2793V62.2793C3.60564 62.2793 3.48355 62.2365 3.43807 62.2193C3.42389 62.214 3.40039 62.2043 3.42171 62.213C3.43085 62.2168 3.46824 62.2322 3.51644 62.247L4.10461 60.3355ZM3.92139 60.2909L0.797394 59.8109L0.49366 61.7877L3.61766 62.2677L3.92139 60.2909ZM0.817279 59.8141C-0.0781209 59.658 -0.853056 60.3018 -0.981314 61.1168L0.994369 61.4277C0.96211 61.6327 0.761175 61.8345 0.473776 61.7844L0.817279 59.8141ZM-0.981956 61.1209C-1.11203 61.9706 -0.525611 62.7809 0.341436 62.8982L0.609619 60.9163C0.870665 60.9516 1.03109 61.188 0.99501 61.4236L-0.981956 61.1209ZM0.324045 62.8957L2.38605 63.2117L2.68901 61.2348L0.627009 60.9188L0.324045 62.8957ZM1.94627 61.4168L0.998274 62.1118L2.18078 63.7247L3.12878 63.0297L1.94627 61.4168ZM1.85437 61.954C1.33491 61.8113 0.684798 61.849 0.133511 62.2519L1.31354 63.8666C1.30846 63.8704 1.30261 63.8735 1.29709 63.8757C1.29183 63.8778 1.28888 63.8782 1.28918 63.8782C1.28966 63.8781 1.29326 63.8777 1.29995 63.8781C1.30671 63.8786 1.3152 63.8799 1.32469 63.8825L1.85437 61.954ZM0.134058 62.2515C-0.758511 62.9028 -0.951004 64.1592 -0.292574 65.0497L1.31563 63.8608C1.31496 63.8599 1.31501 63.8598 1.31532 63.8604C1.3156 63.861 1.31584 63.8617 1.31599 63.8624C1.31626 63.8635 1.31608 63.8636 1.31619 63.8629C1.3163 63.8621 1.31643 63.8625 1.31563 63.8638C1.31519 63.8645 1.31459 63.8654 1.31386 63.8662C1.31309 63.867 1.31266 63.8673 1.313 63.867L0.134058 62.2515ZM-0.291739 65.0509C0.361348 65.9316 1.60882 66.1262 2.49823 65.4717L1.31282 63.8608C1.31216 63.8613 1.31228 63.8612 1.3131 63.8608C1.31386 63.8604 1.31467 63.8601 1.31537 63.86C1.31662 63.8597 1.31657 63.8599 1.31543 63.8598C1.31428 63.8596 1.31384 63.8593 1.31425 63.8595C1.31453 63.8597 1.31489 63.8599 1.31521 63.8602C1.31558 63.8605 1.31543 63.8605 1.31479 63.8596L-0.291739 65.0509ZM2.49 65.4777C3.04859 65.0753 3.28709 64.4617 3.29639 63.8978L1.29666 63.8648C1.29632 63.8855 1.292 63.8915 1.29488 63.8855C1.29646 63.8821 1.29963 63.8766 1.30494 63.8702C1.31038 63.8636 1.31621 63.8583 1.32106 63.8548L2.49 65.4777ZM2.88782 64.6877L3.85482 63.9787L2.67224 62.3658L1.70524 63.0748L2.88782 64.6877ZM2.2751 63.0206L1.9541 65.1126L3.93096 65.4159L4.25196 63.3239L2.2751 63.0206ZM1.95357 65.1161C1.82639 65.9648 2.40641 66.7589 3.25441 66.8947L3.57064 64.9198C3.80665 64.9576 3.96666 65.1777 3.93149 65.4124L1.95357 65.1161ZM3.28057 66.8985C4.11628 67.0098 4.90771 66.4398 5.04221 65.5907L3.06684 65.2778C3.10535 65.0347 3.32477 64.8867 3.54448 64.916L3.28057 66.8985ZM5.04313 65.5848L5.51813 62.4658L3.54093 62.1647L3.06593 65.2837L5.04313 65.5848ZM5.51281 62.4973C5.53778 62.3625 5.53184 62.2531 5.52814 62.2035C5.52727 62.1918 5.52638 62.1821 5.52602 62.1781C5.52543 62.1716 5.52569 62.1745 5.52582 62.176C5.52621 62.1806 5.52853 62.2074 5.52853 62.2433H3.52853C3.52853 62.2907 3.5316 62.3288 3.53295 62.3448C3.53333 62.3492 3.53366 62.3529 3.53388 62.3553C3.53399 62.3566 3.5341 62.3577 3.53416 62.3584C3.53424 62.3592 3.53427 62.3596 3.53431 62.36C3.53447 62.3617 3.53409 62.3578 3.53366 62.352C3.53172 62.3259 3.52628 62.241 3.54625 62.1332L5.51281 62.4973ZM5.1206 63.0491L8.1586 60.8171L6.97445 59.2054L3.93645 61.4374L5.1206 63.0491ZM6.93931 60.7901C7.27002 61.0564 7.6554 61.2577 8.08379 61.3729L8.60326 59.4416C8.45165 59.4008 8.31504 59.3301 8.19374 59.2324L6.93931 60.7901ZM7.34353 60.4073V64.2003H9.34353V60.4073H7.34353ZM7.60637 63.5245C7.66742 63.4579 7.73239 63.406 7.79437 63.3661C7.85182 63.3292 7.90001 63.3073 7.91124 63.3022C7.91423 63.3008 7.91654 63.2998 7.9158 63.3001C7.91574 63.3002 7.91569 63.3002 7.91557 63.3002C7.91548 63.3003 7.91533 63.3003 7.91518 63.3004C7.91486 63.3005 7.91439 63.3008 7.91385 63.301C7.91277 63.3015 7.91109 63.3022 7.90908 63.3032C7.90167 63.3065 7.88429 63.3145 7.86291 63.3254C7.81752 63.3486 7.74969 63.3872 7.67629 63.4473L8.94276 64.9952C8.87486 65.0508 8.81266 65.0861 8.77295 65.1063C8.75442 65.1158 8.7399 65.1224 8.73536 65.1245C8.73326 65.1254 8.73128 65.1263 8.73295 65.1256C8.73364 65.1253 8.73738 65.1236 8.74181 65.1216C8.75879 65.1138 8.81273 65.0891 8.87587 65.0485C8.94354 65.005 9.01413 64.9486 9.08068 64.876L7.60637 63.5245ZM7.6021 63.5145L5.3681 65.7505L6.78295 67.164L9.01695 64.928L7.6021 63.5145ZM5.37164 65.7469C4.76333 66.3497 4.74387 67.3574 5.38497 67.9695L6.76608 66.523C6.96519 66.7131 6.94572 67.0028 6.77941 67.1676L5.37164 65.7469ZM5.35885 67.9437C5.972 68.5738 6.97118 68.5643 7.57981 67.9502L6.15924 66.5423C6.32587 66.3742 6.61305 66.3647 6.79221 66.5489L5.35885 67.9437ZM7.57543 67.9546L9.04943 66.4856L7.63762 65.0689L6.16362 66.5379L7.57543 67.9546ZM7.34353 65.7773V66.9513H9.34353V65.7773H7.34353ZM7.73608 66.1569C7.29199 66.4965 6.94153 67.0482 6.94153 67.7303H8.94153C8.94153 67.7352 8.94082 67.7417 8.93908 67.7484C8.9374 67.7549 8.93536 67.7593 8.93428 67.7614C8.93329 67.7632 8.93354 67.7622 8.93627 67.7591C8.93905 67.7559 8.94382 67.7511 8.95098 67.7456L7.73608 66.1569ZM6.94153 67.7303C6.94153 68.8441 7.84279 69.7263 8.94153 69.7263V67.7263C8.93901 67.7263 8.93778 67.726 8.93754 67.726C8.93725 67.7259 8.93733 67.7259 8.9376 67.726C8.93807 67.7262 8.93845 67.7265 8.9388 67.7268C8.93918 67.7272 8.94007 67.7282 8.94088 67.7301C8.94129 67.7311 8.94152 67.7319 8.94161 67.7324C8.94172 67.7329 8.94153 67.7323 8.94153 67.7303H6.94153ZM8.94153 69.7263C10.0418 69.7263 10.9365 68.8395 10.9365 67.7303H8.93653C8.93653 67.7326 8.9363 67.7335 8.93636 67.7333C8.9364 67.7331 8.93655 67.7325 8.93688 67.7317C8.93755 67.7301 8.93834 67.7291 8.93891 67.7285C8.93945 67.728 8.94033 67.7273 8.94173 67.7267C8.94246 67.7264 8.94309 67.7262 8.94343 67.7262C8.94383 67.7261 8.9433 67.7263 8.94153 67.7263V69.7263ZM10.9365 67.7303C10.9365 67.0544 10.5942 66.4958 10.1325 66.1505L8.93459 67.752C8.94623 67.7608 8.94697 67.7651 8.94389 67.7593C8.94227 67.7563 8.9402 67.7515 8.93863 67.7453C8.93701 67.739 8.93653 67.7336 8.93653 67.7303H10.9365ZM10.5335 66.9513V65.7543H8.53353V66.9513H10.5335ZM8.82831 66.4632L10.3283 67.9552L11.7387 66.5373L10.2387 65.0453L8.82831 66.4632ZM10.312 67.9387C10.9241 68.5765 11.9327 68.5644 12.539 67.9469L11.112 66.5456C11.2804 66.3742 11.571 66.362 11.755 66.5539L10.312 67.9387ZM12.5161 67.9695C13.1572 67.3574 13.1377 66.3497 12.5294 65.7469L11.1216 67.1676C10.9553 67.0028 10.9359 66.7131 11.135 66.523L12.5161 67.9695ZM12.5334 65.7509L10.3024 63.5149L8.88663 64.9276L11.1176 67.1636L12.5334 65.7509ZM10.2302 63.4493C10.127 63.3643 10.0293 63.3173 10.0044 63.3052C9.99666 63.3014 9.98974 63.2982 9.98751 63.2971C9.9839 63.2954 9.98517 63.296 9.98687 63.2968C9.99062 63.2986 10.008 63.307 10.0307 63.32L9.03839 65.0565C9.07159 65.0755 9.09956 65.0893 9.11388 65.0962C9.12085 65.0996 9.12738 65.1027 9.129 65.1035C9.132 65.1049 9.13027 65.1041 9.12766 65.1028C9.12277 65.1004 9.10146 65.09 9.07395 65.0738C9.04543 65.0571 9.00447 65.0308 8.95882 64.9932L10.2302 63.4493ZM10.5345 64.1883V60.4153H8.53453V64.1883H10.5345ZM9.7951 61.3807C10.2148 61.2674 10.5953 61.0743 10.9272 60.8196L9.70981 59.2329C9.57772 59.3342 9.43226 59.4071 9.27395 59.4498L9.7951 61.3807ZM9.72598 60.8318L12.782 63.0798L13.9671 61.4687L10.9111 59.2207L9.72598 60.8318ZM12.3745 62.2743C12.3745 62.2458 12.3758 62.2185 12.3781 62.1925C12.3803 62.1666 12.3834 62.1442 12.3862 62.1262C12.389 62.1088 12.3917 62.0954 12.3929 62.0895C12.3932 62.0879 12.3934 62.0867 12.3936 62.0859C12.3938 62.0851 12.3939 62.0846 12.3939 62.0845C12.3941 62.0836 12.3934 62.0866 12.393 62.0886C12.3907 62.0999 12.3837 62.1334 12.3783 62.1763C12.3756 62.1978 12.3733 62.2205 12.3718 62.2444C12.3703 62.2681 12.3695 62.2918 12.3695 62.3153H14.3695C14.3695 62.3337 14.3689 62.3528 14.3677 62.3723C14.3664 62.3919 14.3646 62.4106 14.3623 62.4285C14.3578 62.464 14.3521 62.4911 14.351 62.4964C14.3509 62.4969 14.3506 62.4985 14.3511 62.496C14.3514 62.4947 14.3521 62.4911 14.353 62.4867C14.3548 62.4779 14.358 62.4617 14.3613 62.4413C14.3646 62.4204 14.368 62.3949 14.3705 62.3659C14.3731 62.3368 14.3745 62.3062 14.3745 62.2743H12.3745ZM12.3811 62.467L12.8601 65.586L14.8369 65.2825L14.3579 62.1635L12.3811 62.467ZM12.8608 65.5907C12.9943 66.4332 13.7796 67.0115 14.6192 66.8983L14.3519 64.9162C14.5835 64.885 14.7988 65.0413 14.8362 65.2778L12.8608 65.5907ZM14.6407 66.8951C15.4928 66.7613 16.0806 65.9674 15.9465 65.1098L13.9705 65.4187C13.9324 65.1751 14.1023 64.9552 14.3304 64.9194L14.6407 66.8951ZM15.947 65.113L15.632 63.054L13.655 63.3565L13.97 65.4155L15.947 65.113ZM14.0501 64.0101L14.9981 64.7091L16.185 63.0994L15.237 62.4004L14.0501 64.0101ZM14.5915 63.911C14.5954 64.4738 14.8349 65.0917 15.392 65.4952L16.565 63.8753C16.5706 63.8793 16.5765 63.8848 16.5818 63.8913C16.5869 63.8975 16.59 63.9029 16.5915 63.9062C16.5942 63.9118 16.5916 63.9089 16.5915 63.8975L14.5915 63.911ZM15.3861 65.4909C16.2776 66.1465 17.5245 65.951 18.1771 65.0762L16.574 63.8803C16.5739 63.8804 16.5748 63.8795 16.5755 63.8791C16.5757 63.879 16.5747 63.8795 16.5729 63.8798C16.5711 63.8801 16.5703 63.8798 16.5708 63.88C16.5712 63.88 16.5716 63.8802 16.572 63.8804C16.5724 63.8806 16.5721 63.8805 16.571 63.8797L15.3861 65.4909ZM18.1863 65.0635C18.8338 64.1666 18.6404 62.9374 17.7655 62.2778L16.5615 63.8747C16.5648 63.8772 16.5667 63.8791 16.5676 63.8801C16.5685 63.8812 16.569 63.8819 16.5692 63.8823C16.5696 63.883 16.5697 63.8834 16.5697 63.8836C16.5698 63.8838 16.5698 63.8838 16.5697 63.884C16.5697 63.8841 16.5695 63.8847 16.569 63.8859C16.5685 63.887 16.5673 63.8894 16.5647 63.893L18.1863 65.0635ZM17.7635 62.2763C17.2061 61.8582 16.5421 61.8197 16.0034 61.9855L16.5916 63.897C16.6075 63.8922 16.6121 63.8944 16.6041 63.8933C16.5997 63.8927 16.5928 63.8912 16.5844 63.8878C16.5759 63.8844 16.5686 63.8801 16.5635 63.8763L17.7635 62.2763ZM16.8903 62.1359L15.9243 61.4249L14.7388 63.0356L15.7048 63.7466L16.8903 62.1359ZM15.4846 63.2185L17.5757 62.8945L17.2694 60.918L15.1784 61.242L15.4846 63.2185ZM17.5553 62.8974C18.4228 62.7812 19.0153 61.9723 18.8815 61.1168L16.9055 61.4257C16.8678 61.1842 17.0342 60.9493 17.2897 60.9151L17.5553 62.8974ZM18.8817 61.118C18.7519 60.2812 17.9629 59.6748 17.0939 59.8126L17.4071 61.7879C17.1562 61.8277 16.9411 61.6553 16.9053 61.4245L18.8817 61.118ZM73.8292 40.3524C73.6613 37.9191 72.009 32.7664 66.6803 29.412L65.6148 31.1045C70.31 34.0601 71.7018 38.5754 71.8339 40.4901L73.8292 40.3524ZM66.6796 29.4115C60.7896 25.7108 55.2565 25.5567 50.0242 27.2224L50.6309 29.1281C55.3626 27.6218 60.2754 27.7497 65.6155 31.105L66.6796 29.4115ZM51.259 27.8115C48.5859 20.9666 41.1982 14.5177 30.3423 15.9326L30.6008 17.9159C40.4148 16.6368 47.0071 22.4219 49.396 28.539L51.259 27.8115ZM30.3425 15.9326C19.7471 17.3112 13.9155 26.4063 13.9155 33.7993H15.9155C15.9155 27.3022 21.1059 19.1513 30.6006 17.9159L30.3425 15.9326ZM14.6474 32.8359C11.5218 33.7058 9.00107 35.1945 7.25739 37.2319C5.50585 39.2786 4.58653 41.8243 4.58653 44.7033H6.58653C6.58653 42.2732 7.35321 40.1959 8.77691 38.5323C10.2085 36.8596 12.3523 35.5507 15.1837 34.7626L14.6474 32.8359ZM4.58653 44.7033C4.58653 50.8807 10.5885 56.2712 20.8538 56.2373L20.8472 54.2373C11.1626 54.2693 6.58653 49.3118 6.58653 44.7033H4.58653ZM73.7088 56.2372C78.2394 56.1999 81.3858 54.9312 83.1773 52.852C84.9878 50.7509 85.2409 48.0249 84.3971 45.4967L82.5 46.1299C83.1701 48.1376 82.9193 50.0876 81.6622 51.5465C80.3863 53.0273 77.9017 54.2026 73.6923 54.2373L73.7088 56.2372ZM84.3972 45.4971C82.8102 40.7349 77.5609 38.2894 72.604 39.4475L73.059 41.395C77.1761 40.4331 81.2908 42.5016 82.4998 46.1294L84.3972 45.4971ZM90.7003 27.2153C89.6693 24.1199 86.2799 22.5704 83.1241 23.3075L83.579 25.255C85.8952 24.7141 88.1497 25.8866 88.8028 27.8473L90.7003 27.2153ZM84.3491 24.2113C84.2389 22.642 83.1911 19.4096 79.8535 17.3071L78.7875 18.9994C81.4919 20.7029 82.2801 23.2985 82.354 24.3513L84.3491 24.2113ZM79.8525 17.3065C76.1907 15.0058 72.7344 14.9076 69.4779 15.9455L70.0852 17.851C72.8406 16.9729 75.6764 17.0447 78.7885 19L79.8525 17.3065ZM70.7131 16.5348C69.0459 12.2612 64.4288 8.24181 57.6773 9.12164L57.9357 11.1049C63.6462 10.3607 67.4672 13.7173 68.8499 17.2617L70.7131 16.5348ZM57.6776 9.1216C51.7527 9.89171 48.247 14.5259 47.5728 18.788L49.5482 19.1005C50.1041 15.5866 53.0124 11.7448 57.9354 11.1049L57.6776 9.1216ZM47.8699 19.6674C49.4631 21.1891 50.7415 22.8901 51.6816 24.5885L53.4314 23.62C52.3955 21.7484 50.9939 19.8854 49.2512 18.2211L47.8699 19.6674ZM52.7581 25.0837C54.1491 24.7975 55.5215 24.6533 56.8535 24.6533V22.6533C55.3775 22.6533 53.87 22.813 52.355 23.1248L52.7581 25.0837ZM56.8535 24.6533C60.5623 24.6533 64.2391 25.7643 67.8005 28.002L68.8645 26.3085C65.0219 23.8942 60.9807 22.6533 56.8535 22.6533V24.6533ZM67.8 28.0017C70.4111 29.6444 72.1848 31.7186 73.3674 33.7402L75.0937 32.7303C73.7702 30.4679 71.782 28.1441 68.8651 26.3088L67.8 28.0017ZM74.2305 34.2353C78.2907 34.2353 81.8585 34.2313 83.8829 34.2162L83.8681 32.2163C81.8525 32.2312 78.2924 32.2353 74.2305 32.2353V34.2353ZM83.8839 34.2162C86.6803 34.1929 88.709 33.4092 89.8911 32.036C91.0921 30.6409 91.2437 28.8426 90.7 27.2145L88.803 27.848C89.1733 28.9569 89.0229 29.9791 88.3754 30.7312C87.7091 31.5053 86.3427 32.1956 83.8672 32.2163L83.8839 34.2162ZM20.8532 56.2373C24.2977 56.2279 30.4734 56.2348 37.4986 56.2445L37.5014 54.2445C30.478 54.2348 24.2974 54.2279 20.8478 54.2373L20.8532 56.2373ZM36.5949 54.8193L31.0949 66.526L32.9051 67.3765L38.4051 55.6697L36.5949 54.8193ZM32.1757 67.9357L40.6757 66.4187L40.3243 64.4498L31.8243 65.9668L32.1757 67.9357ZM39.6029 64.9924L29.5744 85.3534L31.3686 86.2371L41.3971 65.8761L39.6029 64.9924ZM31.276 86.3893L49.365 61.8943L47.7561 60.7062L29.6671 85.2012L31.276 86.3893ZM48.4601 60.3053L38.3996 61.3203L38.6004 63.3102L48.6609 62.2952L48.4601 60.3053ZM45.9987 56.2563C57.1121 56.2709 68.4832 56.2799 73.7087 56.2372L73.6924 54.2373C68.4788 54.2798 57.1196 54.2709 46.0013 54.2563L45.9987 56.2563ZM39.1854 63.0434L46.6854 55.9845L45.3146 54.5281L37.8146 61.5871L39.1854 63.0434Z" fill="#4ED1F0" mask="url(#path-2-inside-1_4_14)"/>
</g>
<defs>
<clipPath id="clip0_4_14">
<rect width="500" height="100" fill="white" transform="translate(115)"/>
</clipPath>
<clipPath id="clip1_4_14">
<rect width="90" height="77.21" fill="white" transform="translate(0 10)"/>
</clipPath>
</defs>
</svg>
