<svg width="645" height="218" viewBox="0 0 645 218" fill="none" xmlns="http://www.w3.org/2000/svg">
<path d="M127 17L78.2032 90L101.5 110L117.5 90L140 110L159 90L168 110L179.75 100.25L127 17Z" fill="white"/>
<path d="M322.5 83.5L293.25 116L306.5 126L322.5 116L331.5 126L339.222 116L322.5 83.5Z" fill="white"/>
<path d="M432 1L412.696 83.5L442.967 90L432 1Z" fill="white"/>
<path d="M570.5 30.5L537.649 83.5L550 100.25L561 83.5L570.5 100.25L577 83.5L587 100.25L597.803 83.5L570.5 30.5Z" fill="white"/>
<path d="M664 212L597.803 83.5M2 204L78.2032 90M78.2032 90L127 17L179.75 100.25M78.2032 90L101.5 110L117.5 90L140 110L159 90L168 110L179.75 100.25M179.75 100.25L232.5 183.5L293.25 116M293.25 116L322.5 83.5L339.222 116M293.25 116L306.5 126L322.5 116L331.5 126L339.222 116M339.222 116L384.5 204L412.696 83.5M412.696 83.5L432 1L442.967 90M412.696 83.5L442.967 90M442.967 90L458 212L537.649 83.5M537.649 83.5L570.5 30.5L597.803 83.5M537.649 83.5L550 100.25L561 83.5L570.5 100.25L577 83.5L587 100.25L597.803 83.5" stroke="white" stroke-width="4"/>
</svg>
